<svg xmlns="http://www.w3.org/2000/svg" width="40" height="40" fill="none" viewBox="0 0 24 24" id="camera">
  <path fill="#43576A" d="M19.5 6.5h1a1 1 0 0 1 1 1V8.88a0 0 0 0 1 0 0h-3a0 0 0 0 1 0 0V7.5A1 1 0 0 1 19.5 6.5zM3.5 6.5h2a1 1 0 0 1 1 1V9a0 0 0 0 1 0 0h-4a0 0 0 0 1 0 0V7.5A1 1 0 0 1 3.5 6.5z"></path>
  <path fill="#3A89D8" d="M7.78,8.62H1.5a1,1,0,0,0-1,1v12a1,1,0,0,0,1,1h21a1,1,0,0,0,1-1v-12a1,1,0,0,0-1-1H17.22a1,1,0,0,1-.95-.68l-.54-1.63a1,1,0,0,0-.95-.68H10.22a1,1,0,0,0-.95.68L8.73,7.94A1,1,0,0,1,7.78,8.62Z"></path>
  <circle cx="4" cy="12" r="1.5" fill="#FFFFFF"></circle>
  <path fill="#43576A" d="M13.5,8h-2a.5.5,0,0,1,0-1h2a.5.5,0,0,1,0,1Z"></path>
  <circle cx="12.5" cy="15.5" r="5" fill="#43576A"></circle>
  <circle cx="12.5" cy="15.5" r="3" fill="#FFFFFF"></circle>
  <circle cx="19.5" cy="10.5" r=".5" fill="#43576A"></circle>
</svg>
