<svg xmlns="http://www.w3.org/2000/svg" width="40" height="40" enable-background="new 0 0 270.45 285.506" viewBox="0 0 270.45 285.506" id="cheers">
  <ellipse fill="#F79009" cx="98.374" cy="56.336" rx="22.493" ry="22.495" transform="rotate(-72.554 98.37 56.337)"></ellipse>
  <path fill="#F79009" d="M117.389,81.732c-8.27-2.741-20.793,0.854-26.988,14.733c9.201-4.94,16.313-6.861,17.851-7.243
		c0.814-0.188,1.586-0.276,2.354-0.276c4.662,0,8.662,3.174,9.727,7.717c1.258,5.365-2.08,10.755-7.445,12.018l-0.15,0.039
		c-0.158,0.042-0.455,0.126-0.857,0.247c-0.773,0.23-2.035,0.638-3.676,1.267c-2.957,1.132-7.564,3.161-12.734,6.391
		c-5.34,3.346-10.135,7.223-14.385,11.592c-0.9,7.036-1.1,14.538-0.736,23.582c1.049,8.994,4.836,13.774,9.555,16.354
		c-1.734,13.219-8.066,38.809-30.971,72.29c-3.902,5.696-2.449,13.476,3.246,17.379c2.16,1.479,4.619,2.189,7.053,2.189
		c3.986,0,7.902-1.901,10.326-5.436c30.955-45.117,35.559-79.586,35.961-92.763c0.16-1.376,0.256-2.941,0.285-4.727
		c2.988-8.116,5.186-14.743,6.811-20.247c1.078,3.136,2.035,6.369,2.848,9.702c2.221-3.275,4.303-6.699,6.234-10.27
		c0.225-12.898-3.461-39.213-7.424-46.516C122.813,85.931,120.631,82.807,117.389,81.732z"></path>
  <path fill="#F79009" d="M107.486,108.367c1.647-0.631,2.955-1.058,3.815-1.315c0.43-0.13,0.748-0.219,0.939-0.269
		c0.094-0.024,0.156-0.041,0.189-0.05c4.297-1.011,6.963-5.314,5.955-9.613c-1.008-4.301-5.313-6.97-9.613-5.961v-0.003
		c-0.592,0.147-10.51,2.511-22.84,10.203c-12.305,7.668-27.084,20.849-36.51,42.258c-1.781,4.043,0.051,8.766,4.098,10.548
		c1.047,0.462,2.143,0.682,3.221,0.682c3.072,0,6.006-1.782,7.326-4.776c7.908-17.926,20.053-28.695,30.344-35.141
		C99.545,111.72,104.192,109.631,107.486,108.367z"></path>
  <ellipse fill="#3A89D8" cx="172.075" cy="56.336" rx="22.495" ry="22.493" transform="rotate(-17.451 172.06 56.333)"></ellipse>
  <path fill="#3A89D8" d="M180.543,168.156c4.721-2.579,8.51-7.36,9.559-16.357c0.363-9.044,0.164-16.546-0.736-23.582
		c-3.996-4.109-8.479-7.784-13.443-10.994c-10.029-6.475-18.287-8.524-18.369-8.544c-5.355-1.255-8.697-6.646-7.438-12.015
		c1.064-4.545,5.064-7.719,9.727-7.719c0.768,0,1.539,0.091,2.293,0.268c1.568,0.383,8.672,2.288,17.914,7.253
		c-6.193-13.88-18.717-17.475-26.988-14.733c-3.24,1.074-5.422,4.198-6.883,8.023c-3.963,7.303-7.648,33.617-7.424,46.516
		c1.932,3.57,4.014,6.994,6.234,10.27c0.813-3.333,1.772-6.566,2.848-9.702c1.625,5.503,3.822,12.131,6.811,20.247
		c0.029,1.765,0.123,3.316,0.279,4.681c0.392,13.139,4.971,47.637,35.969,92.808c2.422,3.535,6.338,5.436,10.322,5.436
		c2.435,0,4.894-0.71,7.055-2.189c5.693-3.903,7.147-11.683,3.246-17.377C188.611,206.963,182.277,181.375,180.543,168.156z"></path>
  <path fill="#3A89D8" d="M161.678,91.159c-4.303-1.01-8.607,1.658-9.615,5.962c-1.01,4.301,1.66,8.607,5.963,9.615v-0.002
		c0.568,0.138,8.98,2.35,18.982,8.809c10.078,6.518,21.713,17.157,29.377,34.526c1.318,2.994,4.252,4.776,7.326,4.776
		c1.076,0,2.172-0.219,3.221-0.681c4.041-1.783,5.877-6.505,4.096-10.546c-9.426-21.41-24.207-34.592-36.51-42.26
		C172.188,93.667,162.266,91.303,161.678,91.159z"></path>
  <polygon fill="#43576A" points="134.914 0 133.401 43.746 135.307 44.256 138.945 1.271"></polygon>
  <polygon fill="#43576A" points="164.647 10.408 140.721 47.063 142.088 48.486 167.44 13.582"></polygon>
  <polygon fill="#43576A" points="124.977 44.23 108.799 4.242 104.627 4.93 123.047 44.637"></polygon>
  <path fill="#43576A" d="M67.361 200.176c-.822-1.404-8.187 1.836-15.1 8.438-20.957 20.359-36.23 45.111-49.391 70.5-4.111 8.379-3.76 8.529.748.402 14.332-24.611 30.893-48.486 52.088-67.074C62.6 206.49 68.225 201.615 67.361 200.176zM218.188 208.613c-6.912-6.602-14.277-9.842-15.098-8.438-.863 1.439 4.762 6.314 11.652 12.266 21.195 18.588 37.758 42.463 52.088 67.074 4.508 8.127 4.859 7.977.748-.402C254.418 253.725 239.147 228.973 218.188 208.613z"></path>
</svg>
