<svg xmlns="http://www.w3.org/2000/svg" enable-background="new 0 0 24 24" viewBox="0 0 24 24" id="pied-piper-hat">
  <path fill="#F79009" d="M23.942,3.624c-0.118-0.229-0.393-0.332-0.631-0.232c-1.077,0.435-2.552,1.03-4.478,3.379c0,0,0,0.001-0.001,0.001c-1.594,1.954-2.625,4.009-3.013,4.782c-0.066,0.132-0.112,0.225-0.137,0.268l-0.836,1.424c0.096,0.171,0.183,0.355,0.249,0.565l0.226,0.698c-0.184-0.007-0.347,0.007-0.523,0.007l0.048,0.147c0.062,0.19,0.231,0.326,0.432,0.344c0.015,0.001,0.029,0.002,0.044,0.002c0.184,0,0.354-0.102,0.441-0.266c0.649-1.224,1.1-1.924,1.335-2.078c0.084-0.054,0.216-0.123,0.372-0.208c0.709-0.381,1.779-0.956,2.181-1.749c0.969-1.917-0.096-3.685,4.122-6.434C23.988,4.133,24.062,3.852,23.942,3.624z"></path>
  <path fill="#E05A4F" d="M3.883,20.646c-2.146,0-3.195-0.803-3.551-1.153C0.04,19.205,0,19.041,0,18.907c0-0.276,0.285-0.561,0.562-0.561c0.013,0,1.271-0.009,3.374-0.477c2.529-4.661,4.973-6.743,7.904-6.743c0.12,0,2.954,0.029,3.734,2.535l0.224,0.691c0.05,0.153,0.022,0.319-0.071,0.448c0.608,0.029,1.272,0.09,2.006,0.187c0.044,0.006,0.152,0.034,0.192,0.052c0.043,0.01,0.045,0.014,0.083,0.035c0.188,0.103,0.322,0.271,0.379,0.472c0.057,0.2,0.031,0.411-0.073,0.595l-1.939,3.381c-0.19,0.352-0.599,0.535-1.005,0.456c-2.835-0.524-5.258-0.135-7.6,0.241c-1.307,0.21-2.54,0.408-3.758,0.425C3.969,20.646,3.925,20.646,3.883,20.646z M1.77,19.258c0.479,0.214,1.205,0.42,2.228,0.387c1.146-0.016,2.345-0.208,3.613-0.412c2.313-0.37,4.935-0.791,7.95-0.236l1.721-3.06c-3.979-0.466-5.714,0.229-8.089,1.181c-0.456,0.184-0.936,0.376-1.456,0.57l0,0c0.006,0-0.518,0.254-1.578,0.598c-0.242,0.08-0.506-0.038-0.61-0.271c-0.104-0.233-0.017-0.508,0.203-0.637l0.906-0.535c2.617-1.555,4.723-2.805,7.975-2.845l-0.011-0.033c-0.562-1.804-2.692-1.837-2.783-1.838c-2.558,0-4.757,1.979-7.13,6.416c-0.067,0.128-0.188,0.22-0.328,0.252C3.295,19.046,2.412,19.183,1.77,19.258z M17.445,15.646c0,0.001-0.001,0.001-0.001,0.002L17.445,15.646z"></path>
</svg>
