<svg width="40" height="40" xmlns="http://www.w3.org/2000/svg" enable-background="new 0 0 65 65" viewBox="0 0 65 65" id="hot-balloon">
  <path fill="#3A89D8" d="M42.7012,50.71088h-4.67389v-4.05333c0.37814-0.17454,0.72727-0.40725,1.01817-0.71756C48.91699,35.35091,53.9206,26.40057,53.9206,19.34121c0-11.98544-7.0303-18.46301-20.29575-18.80244C33.24665,0.50971,32.87823,0.5,32.50974,0.5c-0.0097,0-0.0097,0-0.0097,0c-0.36849,0-0.74669,0.00971-1.12488,0.03877C18.09999,0.88784,11.0794,7.35576,11.0794,19.34121c0,7.05936,5.00367,16.0097,14.88488,26.59878c0.28119,0.3006,0.62056,0.54303,0.99876,0.71756v4.05333H22.2988c-0.53332,0-0.9697,0.42667-0.9697,0.9697c0,0.53338,0.43637,0.9697,0.9697,0.9697h1.30907v7.84488c0,2.21088,1.79397,4.00485,4.00485,4.00485h9.77456c2.20123,0,4.00486-1.79398,4.00486-4.00485v-7.84488h1.30907c0.53338,0,0.9697-0.43632,0.9697-0.9697C43.6709,51.13755,43.23458,50.71088,42.7012,50.71088z M51.98121,19.34121c0,6.22544-4.62542,14.57451-13.36239,24.18425c3.80119-6.39998,8.55273-16.01941,8.55273-24.18425c0-8.04847-2.13335-12.80972-5.12003-15.53456C48.70363,6.08546,51.98121,11.21514,51.98121,19.34121z M45.23215,19.34121c0,8.84363-6.00243,19.69454-9.79398,25.66785h-0.45573c1.41572-6.23515,3.48118-16.85328,3.48118-25.66785c0-8.28119-0.79516-13.70182-2.4436-16.51397C42.20671,4.23331,45.23215,9.66365,45.23215,19.34121z M36.08792,46.94845v3.76243h-7.18549v-3.76243H36.08792z M32.45156,2.43939h0.04847c0.61091,0,1.60967,0.41696,2.46301,2.73455c0.86304,2.31753,1.5612,6.54545,1.5612,14.16726c0,8.83393-2.14299,19.58789-3.52965,25.66785h-0.98911c-1.39637-6.07996-3.52971-16.82422-3.52971-25.66785C28.47576,4.28178,31.22002,2.48787,32.45156,2.43939z M13.01879,19.34121c0-8.12607,3.27758-13.25574,9.92969-15.52486c-2.98662,2.71514-5.12967,7.47639-5.12967,15.52486c0,8.16483,4.75154,17.78427,8.56244,24.18425C17.64426,33.90607,13.01879,25.56664,13.01879,19.34121z M19.7582,19.34121c0-9.67756,3.03516-15.1079,9.22183-16.51397c-1.6485,2.81214-2.44366,8.23278-2.44366,16.51397c0,8.82422,2.06546,19.4327,3.48124,25.66785h-0.44608C25.77033,39.04546,19.7582,28.18484,19.7582,19.34121z M39.45274,60.49515c0,1.14423-0.93093,2.06546-2.06546,2.06546h-9.77456c-1.14424,0-2.06546-0.92123-2.06546-2.06546v-7.84488h13.90548V60.49515z"></path>
  <path fill="#F79009" d="M39.45274 52.65027v7.84488c0 1.14423-.93093 2.06546-2.06546 2.06546h-9.77456c-1.14424 0-2.06546-.92123-2.06546-2.06546v-7.84488H39.45274zM30.01761 45.00906h-.44608c-3.8012-5.9636-9.81333-16.82422-9.81333-25.66785 0-9.67756 3.03516-15.1079 9.22183-16.51397-1.6485 2.81214-2.44366 8.23278-2.44366 16.51397C26.53637 28.16542 28.60183 38.77391 30.01761 45.00906zM45.23215 19.34121c0 8.84363-6.00243 19.69454-9.79398 25.66785h-.45573c1.41572-6.23515 3.48118-16.85328 3.48118-25.66785 0-8.28119-.79516-13.70182-2.4436-16.51397C42.20671 4.23331 45.23215 9.66365 45.23215 19.34121z"></path>
</svg>
