<svg xmlns="http://www.w3.org/2000/svg" width="24" height="24" viewBox="0 0 32 32" xml:space="preserve" id="instagram">
  <path fill="#E05A4F" d="M21.5 8.9V1.4c0-.4-.1-.4-.1-.4h-8.1v6.8c0 .4-.3.7-.7.7s-.7-.3-.7-.7V1h-1.4v6.8c0 .4-.3.7-.7.7s-.6-.3-.6-.7V1H7.9v6.8c0 .4-.3.7-.7.7s-.7-.3-.7-.7V1.1C3.2 1.1 1 2.5 1 5.8V24c0 3.5 3.4 7 7 7h18.2c3.1 0 4.9-2.6 4.9-7.1v-15h-9.6zm8.1 8.5V24c0 1.7-.3 5.7-3.5 5.7H8c-2.8 0-5.6-2.9-5.6-5.7v-6.6h6.8c.1 0 .2 0 .3-.1.4 3.4 3.3 6.1 6.8 6.1s6.4-2.6 6.8-6h6.5zm-7.9-.9c0 3-2.5 5.5-5.5 5.5s-5.5-2.5-5.5-5.5c0-1.1.4-2.3 1-3.2 1-1.4 2.7-2.3 4.5-2.3 1.8 0 3.4.9 4.5 2.3.7 1 1 2.1 1 3.2z"></path>
  <path fill="#F79009" d="M24.7 1h-1.9v6.8H31v-2C31 2.3 28.3 1 24.7 1zM16.2 13.3c-1 0-2 .5-2.6 1.4-.4.6-.6 1.2-.6 1.9 0 1.8 1.5 3.3 3.3 3.3 1.8 0 3.3-1.5 3.3-3.3 0-.7-.2-1.3-.6-1.9-.7-.9-1.7-1.4-2.8-1.4z"></path>
</svg>
