<svg xmlns="http://www.w3.org/2000/svg" width="40" height="40" viewBox="0 0 24 24" id="mode-potrait">
  <path fill="#E05A4F" d="M3 10.75c-.41 0-.75-.34-.75-.75V6c0-2.07 1.68-3.75 3.75-3.75h4c.41 0 .75.34.75.75s-.34.75-.75.75H6c-1.24 0-2.25 1.01-2.25 2.25v4c0 .41-.34.75-.75.75zM18 21.75h-4c-.41 0-.75-.34-.75-.75s.34-.75.75-.75h4c1.24 0 2.25-1.01 2.25-2.25v-4c0-.41.34-.75.75-.75s.75.34.75.75v4c0 2.07-1.68 3.75-3.75 3.75zM10 21.75H6c-2.07 0-3.75-1.68-3.75-3.75v-4c0-.41.34-.75.75-.75s.75.34.75.75v4c0 1.24 1.01 2.25 2.25 2.25h4c.41 0 .75.34.75.75s-.34.75-.75.75zM21 10.75c-.41 0-.75-.34-.75-.75V6c0-1.24-1.01-2.25-2.25-2.25h-4c-.41 0-.75-.34-.75-.75s.34-.75.75-.75h4c2.07 0 3.75 1.68 3.75 3.75v4c0 .41-.34.75-.75.75z"></path>
  <circle cx="12" cy="8" r="3" fill="#3A89D8"></circle>
  <ellipse cx="12" cy="15.5" fill="#3A89D8" rx="6" ry="3.5"></ellipse>
</svg>
