<svg xmlns="http://www.w3.org/2000/svg" width="40" height="40" viewBox="0 0 100 100" id="nuts-not-allowed">
  <path fill="#3A89D8" stroke="#E05A4F" stroke-width="3" d="M36.346 32.473c-.518.229-1.037.576-1.391.832-.347.256-.839.651-1.218 1.088-.543.626-.476 1.573.149 2.116.284.246.634.367.982.367.42 0 .838-.175 1.134-.517.057-.065.276-.304.724-.634.463-.336.753-.475.832-.509.757-.335 1.1-1.221.766-1.979C37.988 32.479 37.103 32.138 36.346 32.473zM20.219 43.759c-.521.229-1.043.578-1.393.833-.495.364-.916.74-1.218 1.086-.544.625-.479 1.572.146 2.116.284.248.635.369.984.369.419 0 .836-.174 1.132-.515.058-.065.278-.305.729-.637.459-.335.746-.471.823-.505.759-.332 1.104-1.217.772-1.976C21.862 43.772 20.978 43.426 20.219 43.759zM51.001 25.588c.42 0 .837-.175 1.133-.516.058-.066.279-.307.728-.635.456-.334.745-.471.823-.505.759-.332 1.105-1.216.772-1.975-.331-.759-1.216-1.106-1.975-.773-.523.229-1.045.577-1.393.831-.488.358-.921.744-1.22 1.088-.544.626-.478 1.573.147 2.116C50.302 25.467 50.652 25.588 51.001 25.588zM25.121 33.6c-.521.229-1.042.578-1.39.832-.497.364-.919.741-1.22 1.088-.543.626-.477 1.573.149 2.116.284.246.634.367.982.367.42 0 .837-.175 1.134-.517.057-.065.276-.304.727-.635.457-.334.747-.472.824-.506.759-.333 1.104-1.218.771-1.977C26.765 33.609 25.879 33.264 25.121 33.6zM40.912 26.196c.056-.064.273-.302.722-.63.468-.341.748-.474.822-.506.76-.331 1.106-1.216.775-1.975-.331-.76-1.216-1.106-1.975-.775-.511.223-1.037.574-1.392.832-.5.366-.923.744-1.226 1.095-.541.627-.471 1.574.156 2.115.284.244.632.364.979.364C40.196 26.717 40.615 26.54 40.912 26.196z"></path>
  <path fill="#E05A4F" stroke="#E05A4F" stroke-width="4" d="M18.659 58.145c1.689 2.793 3.952 6.506 5.046 8.173.512.779 1.41 2.077 2.354 3.423l2.154-2.154c-.815-1.166-1.563-2.248-1.999-2.914-1.127-1.719-3.556-5.71-5.253-8.519 5.066-4.275 12.2-9.69 19.854-15.045 7.651-5.354 15.182-10.202 20.936-13.497.865 1.077 1.881 2.345 2.861 3.576l2.135-2.135c-.768-.965-1.566-1.963-2.337-2.921.24-.129.483-.261.714-.383.611-.321.924-1.017.759-1.687-.421-1.705-3.204-5.992-3.565-6.511-2.182-3.117-5.383-4.697-9.514-4.697-4.396 0-9.867 1.838-16.188 5.423-1.961.973-4.38.84-6.227-.302l-3.844-5.494c-1.443-2.062-4.107-.2-5.389.696-1.177.824-3.932 2.755-2.489 4.815l3.823 5.478c.477 2.229-.254 4.545-1.939 6.082-.008.007-.016.014-.023.021C7.244 41.022 8.185 48.761 11.316 53.239c.36.514 3.422 4.59 4.893 5.579.255.172.547.256.837.256.363 0 .724-.132 1.008-.389C18.247 58.51 18.455 58.326 18.659 58.145zM21.462 16.756c.218-.218.632-.572 1.414-1.12.79-.552 1.268-.821 1.548-.952l2.869 4.1-2.968 2.076L21.462 16.756zM13.775 51.52c-3.53-5.047-.582-11.681 8.764-19.719.031-.027.062-.055.09-.084 2.232-2.069 3.312-5.079 2.939-8.065l3.909-2.736c2.589 1.326 5.752 1.399 8.544.011 5.936-3.365 10.91-5.071 14.781-5.071 3.139 0 5.445 1.118 7.054 3.416.653.937 1.963 3.094 2.663 4.471-6.046 3.298-14.672 8.784-23.426 14.909-8.755 6.127-16.864 12.351-22.033 16.9C16.004 54.42 14.428 52.451 13.775 51.52zM76.259 42.105c-.174-.254-4.189-6.113-5.794-8.287l-2.146 2.146c1.726 2.379 5.426 7.777 5.474 7.849 8.704 12.439 1.235 26.63-2.378 32.153-.582.887-1.373 3.004-.211 4.664l.166.237c.707 1.013.46 2.412-.552 3.121-1.012.706-2.411.461-3.113-.541l-.168-.241c-1.074-1.534-3.209-1.701-4.384-1.436-8.056 1.814-22.811 3.09-31.106-8.767-.007-.01-.128-.181-.319-.447l-2.15 2.151c.005.007.018.024.021.028 9.291 13.277 25.425 11.938 34.214 9.961.43-.096 1.129.03 1.271.234l.157.227c1.019 1.454 2.647 2.232 4.301 2.232 1.038 0 2.085-.307 2.998-.945 2.365-1.656 2.944-4.929 1.284-7.306l-.156-.223c-.139-.198.002-.919.257-1.308C82.27 64.855 83.118 51.909 76.259 42.105z"></path>
  <path fill="#3A89D8" stroke="#3A89D8" stroke-width="4" d="M65.541,41.965c-0.328-0.438-0.837-1.093-1.406-1.815l-2.137,2.136c0.459,0.586,0.863,1.105,1.138,1.474
		c1.005,1.35,3.909,5.587,3.946,5.643c3.94,5.631,2.799,11.786,1.146,15.959c-0.305,0.77,0.072,1.642,0.843,1.946
		c0.181,0.072,0.368,0.105,0.552,0.105c0.598,0,1.162-0.358,1.396-0.948c2.757-6.965,2.246-13.46-1.47-18.771
		C69.429,47.518,66.582,43.363,65.541,41.965z"></path>
  <path fill="#F79009" d="M50,5c-8.82,0-17.037,2.552-23.981,6.938c0.188,0.14,0.366,0.313,0.526,0.543l3.02,4.316
		C35.512,13.125,42.512,11,50,11c9.685,0,18.549,3.557,25.376,9.422L20.427,75.373c-5.26-6.127-8.662-13.895-9.304-22.424
		c-2.221-3.379-3.13-8.508,1.986-15.564c1.889-5.502,4.973-10.45,8.946-14.536l-3.389-4.855c-0.041-0.059-0.067-0.117-0.102-0.176
		C10.201,25.988,5,37.384,5,50c0,24.854,20.146,45,45,45c24.852,0,45-20.146,45-45C95,25.147,74.852,5,50,5z M74.433,80.356
		c0.795,2.181,0.089,4.701-1.895,6.09c-0.913,0.639-1.96,0.945-2.998,0.945c-1.438,0-2.854-0.589-3.87-1.698
		C60.87,87.811,55.574,89,50,89c-9.666,0-18.516-3.537-25.334-9.381l54.949-54.951C85.459,31.488,89,40.336,89,50
		C89,62.259,83.305,73.201,74.433,80.356z"></path>
</svg>
