<svg xmlns="http://www.w3.org/2000/svg" width="70.496" height="65.529" id="reindeer">
  <path fill="#E05A4F" d="M40.093 41.486c-.069 1.366 3.406 5.432 6.913 7.23s6.392.97 7.829 1.646 1.665 3.899 3.365 4.599 12.619 4.951 12.284 6.491c-.334 1.562-13.12-5.3-14.341-5.021 1.392 2.363 12.311 7.721 11.609 8.907-.707 1.218-10.275-3.887-11.965-5.479s-2.787-3.5-5.11-4.524c-2.331-1.007-11.578-.2-16.071-3.132-.707-.465-3.72 1.84-7.462 2.637-4.288.906-8.024-.459-10.832.8-2.474 1.107-7.781-3.206-9.062-2.795-.62.2 1.021 1.946 3.132 3.069 2.966 1.587 3.9 3.027 3.293 3.333a8.7 8.7 0 0 1-3.428.532s.949 2.737-.4 2.347C8.52 61.734-1.384 49.22.164 47.776c1.556-1.424 8.295-.369 8.295-.369s-1.318-7.521-.093-11.781 5.894-8.337 5.87-9.819-4.4-3.805-4.4-3.805-2-2-.485-2.275c.762-.129 4.234-.435 6.916-1 2.312-.487 3.383-1.091 4.619-1.139-.606-1.967-1.837-5.121-2.787-5.79a.584.584 0 0 1 .664-.96c1.149.8 2.223 3.459 2.808 5.165a7.719 7.719 0 0 1 2.634-2.455c.438-.638 3.072-4.6 2.236-7.491a3.943 3.943 0 0 0-2.623-2.545.581.581 0 0 1 .419-1.083 5.052 5.052 0 0 1 3.312 3.3c.686 2.323-.427 5.065-1.371 6.815 1.176-.509 2.466-.946 3.805-1.384.6-.944 3.513-5.875.488-8.472a.586.586 0 0 1-.056-.82.57.57 0 0 1 .815-.061c3.014 2.6 1.5 6.7.4 8.819a40.54 40.54 0 0 0 4.092-1.529c.443-.387 4.089-3.781 1.368-6.981a.578.578 0 0 1 .058-.825.59.59 0 0 1 .82.063 5.2 5.2 0 0 1 .427 6.265A8.572 8.572 0 0 0 42.3.561a.581.581 0 0 1 .594-.557.592.592 0 0 1 .562.6C43.182 6.61 39 9.161 34.433 10.887c.831 1.308 3.4 4.353 8.369 2.7a.582.582 0 0 1 .741.361.6.6 0 0 1-.366.741c-.417.14-.823.242-1.2.33a7.881 7.881 0 0 1-8.651-3.734c-.8.277-1.6.541-2.386.789-3.7 1.205-7.225 2.355-8.538 4.823a11.884 11.884 0 0 1 5.843 1.489c.978-.44 2.974-1.592 3.375-3a2.163 2.163 0 0 0-.475-1.912.58.58 0 1 1 .928-.695 3.235 3.235 0 0 1 .648 2.927c-.443 1.577-2.112 2.732-3.219 3.351a54.297 54.297 0 0 1 3.09 1.9c1.191-.279 3.7-1.11 4.179-2.376a1.63 1.63 0 0 0-.385-1.582.581.581 0 0 1 .119-.814.564.564 0 0 1 .8.124 2.7 2.7 0 0 1 .556 2.684c-.572 1.495-2.6 2.371-3.968 2.813.135.093.264.185.406.274 1.366.91 2.71 1.793 4 2.555 1.961-.411 5.033-1.468 5.563-2.787a1.323 1.323 0 0 0-.309-1.345.574.574 0 0 1 .113-.815.58.58 0 0 1 .81.124 2.432 2.432 0 0 1 .458 2.452c-.665 1.69-3.37 2.7-5.128 3.19 2.1 1.065 4.061 1.643 5.756 1.184 1.521-.406 2.787-1.637 3.823-3.754a.583.583 0 0 1 1.047.514c-1.21 2.441-2.7 3.86-4.566 4.364-.1.026-.185.047-.282.074-3.235.691-6.874-1.455-10.729-3.994-.288 1.289-.509 3.369.351 4.4a2.48 2.48 0 0 0 2.355.638.586.586 0 0 1 .651.512.574.574 0 0 1-.458.633.069.069 0 0 1-.053.011 3.553 3.553 0 0 1-3.386-1.055c-1.387-1.661-.788-4.707-.5-5.824-.053-.037-.119-.077-.167-.114-.49-.33-.989-.659-1.49-.978-3.488-2.283-7-4.324-10.006-3.989a8.268 8.268 0 0 1 .749 3.4s1.374.557 2.014.86c1.695.793-2.666 1.732-2.666 1.732l-1.426 1.1s-2.7 12.27-1.156 14.192c.008.137 3.311 7.011 17.618.1 2.871 1.561 3.649-2.354 4.556-1.791.659.392-1.748 3.781-1.748 3.817Z"></path>
</svg>
