<svg xmlns="http://www.w3.org/2000/svg" viewBox="0 0 48 48" id="schedule">
  <path fill="#E05A4F" d="M44 5h-2V1a1 1 0 0 0-2 0v7.28a2 2 0 1 1-2 0V5h-2V1a1 1 0 0 0-2 0v7.28a2 2 0 1 1-2 0V5H17V1a1 1 0 0 0-2 0v7.28a2 2 0 1 1-2 0V5h-2V1a1 1 0 0 0-2 0v7.28a2 2 0 1 1-2 0V5H4a3 3 0 0 0-3 3v7h46V8a3 3 0 0 0-3-3ZM37 40h4v2h-4zM7 22h4v2H7zM27 31h4v2h-4zM17 31h4v2h-4zM27 40h4v2h-4zM17 22h4v2h-4zM37 22h4v2h-4zM7 40h4v2H7z"></path>
  <path fill="#F79009" d="M1 44a3 3 0 0 0 3 3h40a3 3 0 0 0 3-3V17H1Zm34-23a1 1 0 0 1 1-1h6a1 1 0 0 1 1 1v4a1 1 0 0 1-1 1h-6a1 1 0 0 1-1-1Zm1.71 10.29 1.29 1.3 3.29-3.3a1 1 0 0 1 1.42 1.42l-4 4a1 1 0 0 1-1.42 0l-2-2a1 1 0 0 1 1.42-1.42ZM35 39a1 1 0 0 1 1-1h6a1 1 0 0 1 1 1v4a1 1 0 0 1-1 1h-6a1 1 0 0 1-1-1Zm-8.29-16.71 1.29 1.3 3.29-3.3a1 1 0 0 1 1.42 1.42l-4 4a1 1 0 0 1-1.42 0l-2-2a1 1 0 0 1 1.42-1.42ZM25 30a1 1 0 0 1 1-1h6a1 1 0 0 1 1 1v4a1 1 0 0 1-1 1h-6a1 1 0 0 1-1-1Zm0 9a1 1 0 0 1 1-1h6a1 1 0 0 1 1 1v4a1 1 0 0 1-1 1h-6a1 1 0 0 1-1-1ZM15 21a1 1 0 0 1 1-1h6a1 1 0 0 1 1 1v4a1 1 0 0 1-1 1h-6a1 1 0 0 1-1-1Zm0 9a1 1 0 0 1 1-1h6a1 1 0 0 1 1 1v4a1 1 0 0 1-1 1h-6a1 1 0 0 1-1-1Zm1.71 10.29 1.29 1.3 3.29-3.3a1 1 0 0 1 1.42 1.42l-4 4a1 1 0 0 1-1.42 0l-2-2a1 1 0 0 1 1.42-1.42ZM5 21a1 1 0 0 1 1-1h6a1 1 0 0 1 1 1v4a1 1 0 0 1-1 1H6a1 1 0 0 1-1-1Zm0 9a1 1 0 0 1 1-1h6a1 1 0 0 1 1 1v4a1 1 0 0 1-1 1H6a1 1 0 0 1-1-1Zm0 9a1 1 0 0 1 1-1h6a1 1 0 0 1 1 1v4a1 1 0 0 1-1 1H6a1 1 0 0 1-1-1Z"></path>
  <path fill="#3A89D8" d="M7 31h4v2H7z"></path>
</svg>
