<svg width="15" height="12" viewBox="0 0 15 12" fill="none" xmlns="http://www.w3.org/2000/svg">
<path d="M14.52 4.91335C14.4573 4.836 14.378 4.7737 14.288 4.73101C14.198 4.68832 14.0996 4.66634 14 4.66668H12.6667V4.00002C12.6667 3.46958 12.456 2.96087 12.0809 2.5858C11.7058 2.21073 11.1971 2.00002 10.6667 2.00002H6.48L6.26667 1.33335C6.12837 0.942168 5.87183 0.603684 5.5326 0.364789C5.19337 0.125894 4.78824 -0.0015846 4.37333 1.48691e-05H2C1.46957 1.48691e-05 0.960859 0.210729 0.585786 0.585801C0.210714 0.960874 0 1.46958 0 2.00002V10C0 10.5304 0.210714 11.0392 0.585786 11.4142C0.960859 11.7893 1.46957 12 2 12H11.6C12.0541 11.9987 12.4943 11.8428 12.8481 11.5581C13.2019 11.2734 13.4483 10.8767 13.5467 10.4333L14.6667 5.48001C14.6869 5.38063 14.6843 5.27792 14.6589 5.17972C14.6334 5.08153 14.5859 4.99042 14.52 4.91335ZM2.91333 10.1467C2.87947 10.2971 2.79453 10.4311 2.67298 10.5259C2.55143 10.6207 2.40077 10.6704 2.24667 10.6667H2C1.82319 10.6667 1.65362 10.5964 1.5286 10.4714C1.40357 10.3464 1.33333 10.1768 1.33333 10V2.00002C1.33333 1.8232 1.40357 1.65363 1.5286 1.52861C1.65362 1.40359 1.82319 1.33335 2 1.33335H4.37333C4.51871 1.32576 4.66258 1.36597 4.78296 1.44782C4.90334 1.52968 4.99361 1.64869 5.04 1.78668L5.4 2.88002C5.44278 3.00718 5.52293 3.11848 5.62998 3.19936C5.73703 3.28024 5.86599 3.32693 6 3.33335H10.6667C10.8435 3.33335 11.013 3.40359 11.1381 3.52861C11.2631 3.65363 11.3333 3.8232 11.3333 4.00002V4.66668H4.66667C4.51256 4.66292 4.36191 4.71267 4.24036 4.80748C4.11881 4.90229 4.03387 5.03629 4 5.18668L2.91333 10.1467ZM12.2467 10.1467C12.2128 10.2971 12.1279 10.4311 12.0063 10.5259C11.8848 10.6207 11.7341 10.6704 11.58 10.6667H4.14C4.17457 10.5925 4.19923 10.514 4.21333 10.4333L5.2 6.00001H13.2L12.2467 10.1467Z" fill="#43576A"/>
</svg>
