<svg width="48" height="40" viewBox="0 0 48 40" fill="none" xmlns="http://www.w3.org/2000/svg">
<g id="Logo">
<path id="Aim" fill-rule="evenodd" clip-rule="evenodd" d="M17.7333 39.9998C27.2496 39.9998 34.9667 32.1201 34.9667 22.3998C34.9667 19.5378 34.2977 16.8354 33.1107 14.4466L29.0313 16.852C29.823 18.5304 30.2667 20.4122 30.2667 22.3998C30.2667 29.4689 24.6548 35.1998 17.7333 35.1998C10.8118 35.1998 5.2 29.4689 5.2 22.3998C5.2 15.3307 10.8118 9.5998 17.7333 9.5998C21.5828 9.5998 25.0273 11.3725 27.3264 14.1622L31.4431 11.7349C28.2943 7.51974 23.3244 4.7998 17.7333 4.7998C8.21706 4.7998 0.5 12.6795 0.5 22.3998C0.5 32.1201 8.21706 39.9998 17.7333 39.9998ZM21.7244 17.4654C20.6404 16.5499 19.2497 15.9998 17.7333 15.9998C14.2726 15.9998 11.4667 18.865 11.4667 22.3998C11.4667 25.9346 14.2726 28.7998 17.7333 28.7998C21.1941 28.7998 24 25.9346 24 22.3998C24 21.5781 23.8484 20.7926 23.5722 20.0709L19.1045 22.7052C18.3472 23.1517 17.3826 22.8933 16.95 22.128C16.5174 21.3628 16.7805 20.3804 17.5378 19.9339L21.7244 17.4654Z" fill="#E05A4F"/>
<g id="Vector Dart">
<path d="M32.657 14.7137L38.9464 17.4575C39.5216 17.7084 40.1822 17.6667 40.7275 17.3452L46.6445 13.8563L39.4409 10.7137L32.657 14.7137Z" fill="#3A89D8"/>
<path d="M31.0904 11.9425L31.9084 5.00797C31.9832 4.3738 32.3489 3.81032 32.8942 3.48878L38.8112 -9.77046e-05L37.8742 7.94247L31.0904 11.9425Z" fill="#3A89D8"/>
</g>
</g>
</svg>
