<svg width="31" height="26" viewBox="0 0 31 26" fill="none" xmlns="http://www.w3.org/2000/svg">
<path fill-rule="evenodd" clip-rule="evenodd" d="M11.3667 26C17.6434 26 22.7333 20.8782 22.7333 14.56C22.7333 12.6997 22.2921 10.9431 21.5092 9.39044L18.8185 10.9539C19.3407 12.0449 19.6333 13.268 19.6333 14.56C19.6333 19.1549 15.9319 22.88 11.3667 22.88C6.80143 22.88 3.1 19.1549 3.1 14.56C3.1 9.96505 6.80143 6.24 11.3667 6.24C13.9057 6.24 16.1776 7.39225 17.694 9.20555L20.4093 7.62779C18.3324 4.88796 15.0544 3.12 11.3667 3.12C5.08997 3.12 0 8.24179 0 14.56C0 20.8782 5.08997 26 11.3667 26ZM13.999 11.3526C13.2841 10.7576 12.3668 10.4 11.3667 10.4C9.08405 10.4 7.23333 12.2624 7.23333 14.56C7.23333 16.8576 9.08405 18.72 11.3667 18.72C13.6493 18.72 15.5 16.8576 15.5 14.56C15.5 14.0259 15.4 13.5153 15.2178 13.0462L12.2644 14.7623C11.7686 15.0504 11.1353 14.8808 10.85 14.3833C10.5647 13.8859 10.7353 13.2491 11.2311 12.961L13.999 11.3526Z" fill="#E05A4F"/>
<path d="M21.2094 9.564L25.0427 11.212C25.6205 11.4604 26.2818 11.4201 26.827 11.1033L30.4352 9.00667L25.6838 6.964L21.2094 9.564Z" fill="#3A89D8"/>
<path d="M20.176 7.76267L20.6746 3.59748C20.7498 2.96968 21.1151 2.41344 21.6603 2.09662L25.2685 3.64657e-06L24.6505 5.16267L20.176 7.76267Z" fill="#3A89D8"/>
</svg>
