<svg width="16" height="16" viewBox="0 0 16 16" fill="none" xmlns="http://www.w3.org/2000/svg">
<path d="M14.491 2.49993L12.8777 0.886597C12.7527 0.761617 12.5831 0.691406 12.4063 0.691406C12.2296 0.691406 12.06 0.761617 11.935 0.886597L8.88167 3.93993C8.75664 4.06493 8.68638 4.23447 8.68634 4.41126V6.0246C8.68634 6.20141 8.75658 6.37098 8.8816 6.496C9.00663 6.62103 9.1762 6.69126 9.35301 6.69126H10.9663C11.1431 6.69123 11.3127 6.62096 11.4377 6.49593L14.491 3.4426C14.616 3.31758 14.6862 3.14804 14.6862 2.97126C14.6862 2.79449 14.616 2.62495 14.491 2.49993ZM10.691 5.35793H10.0197V4.68726L12.4063 2.3006L13.077 2.97126L10.691 5.35793ZM12.6663 7.3326C12.4895 7.3326 12.32 7.40283 12.1949 7.52786C12.0699 7.65288 11.9997 7.82245 11.9997 7.99926V9.59393L11.013 8.60726C10.6655 8.26021 10.1945 8.06527 9.70334 8.06527C9.21222 8.06527 8.74117 8.26021 8.39367 8.60726L7.92834 9.07193L6.27101 7.4146C5.9239 7.06807 5.45348 6.87344 4.96301 6.87344C4.47254 6.87344 4.00211 7.06807 3.65501 7.4146L2.66634 8.40326V4.66593C2.66652 4.48917 2.73681 4.31971 2.8618 4.19472C2.98678 4.06974 3.15625 3.99944 3.33301 3.99926H7.33301C7.50982 3.99926 7.67939 3.92903 7.80441 3.804C7.92944 3.67898 7.99967 3.50941 7.99967 3.3326C7.99967 3.15579 7.92944 2.98622 7.80441 2.86119C7.67939 2.73617 7.50982 2.66593 7.33301 2.66593H3.33301C2.80274 2.66646 2.29434 2.87734 1.91938 3.2523C1.54442 3.62726 1.33354 4.13566 1.33301 4.66593V12.6659C1.33354 13.1962 1.54442 13.7046 1.91938 14.0796C2.29434 14.4545 2.80274 14.6654 3.33301 14.6659H11.333C11.8633 14.6654 12.3717 14.4545 12.7466 14.0796C13.1216 13.7046 13.3325 13.1962 13.333 12.6659V7.99926C13.333 7.82245 13.2628 7.65288 13.1377 7.52786C13.0127 7.40283 12.8432 7.3326 12.6663 7.3326ZM3.33301 13.3326C3.15625 13.3324 2.98678 13.2621 2.8618 13.1371C2.73681 13.0122 2.66652 12.8427 2.66634 12.6659V10.2886L4.59767 8.35726C4.69659 8.26426 4.82724 8.21249 4.96301 8.21249C5.09877 8.21249 5.22943 8.26426 5.32834 8.35726L7.44034 10.4686C7.44634 10.4753 7.44834 10.4833 7.45367 10.4886L10.2983 13.3326H3.33301ZM11.9997 12.6659C11.9963 12.7945 11.9548 12.9191 11.8803 13.0239L8.87101 10.0146L9.33634 9.54926C9.43378 9.45237 9.5656 9.39798 9.70301 9.39798C9.84042 9.39798 9.97224 9.45237 10.0697 9.54926L11.9997 11.4793V12.6659Z" fill="white"/>
</svg>
