<svg width="16" height="16" viewBox="0 0 16 16" fill="none" xmlns="http://www.w3.org/2000/svg">
<path d="M11.3337 6.00065V4.66732C11.3337 3.78326 10.9825 2.93542 10.3573 2.3103C9.73223 1.68517 8.88438 1.33398 8.00033 1.33398C7.11627 1.33398 6.26842 1.68517 5.6433 2.3103C5.01818 2.93542 4.66699 3.78326 4.66699 4.66732V6.00065C4.13656 6.00065 3.62785 6.21136 3.25278 6.58644C2.87771 6.96151 2.66699 7.47022 2.66699 8.00065V12.6673C2.66699 13.1978 2.87771 13.7065 3.25278 14.0815C3.62785 14.4566 4.13656 14.6673 4.66699 14.6673H11.3337C11.8641 14.6673 12.3728 14.4566 12.7479 14.0815C13.1229 13.7065 13.3337 13.1978 13.3337 12.6673V8.00065C13.3337 7.47022 13.1229 6.96151 12.7479 6.58644C12.3728 6.21136 11.8641 6.00065 11.3337 6.00065ZM6.00033 4.66732C6.00033 4.13688 6.21104 3.62818 6.58611 3.2531C6.96118 2.87803 7.46989 2.66732 8.00033 2.66732C8.53076 2.66732 9.03947 2.87803 9.41454 3.2531C9.78961 3.62818 10.0003 4.13688 10.0003 4.66732V6.00065H6.00033V4.66732ZM12.0003 12.6673C12.0003 12.8441 11.9301 13.0137 11.8051 13.1387C11.68 13.2637 11.5105 13.334 11.3337 13.334H4.66699C4.49018 13.334 4.32061 13.2637 4.19559 13.1387C4.07056 13.0137 4.00033 12.8441 4.00033 12.6673V8.00065C4.00033 7.82384 4.07056 7.65427 4.19559 7.52925C4.32061 7.40422 4.49018 7.33398 4.66699 7.33398H11.3337C11.5105 7.33398 11.68 7.40422 11.8051 7.52925C11.9301 7.65427 12.0003 7.82384 12.0003 8.00065V12.6673Z" fill="#3A89D8"/>
</svg>
