<svg width="16" height="16" viewBox="0 0 16 16" fill="none" xmlns="http://www.w3.org/2000/svg">
<g id="uil:medal">
<path id="Vector" d="M14.2529 3.84001C14.2301 3.75488 14.1907 3.67511 14.137 3.6053C14.0832 3.5355 14.0161 3.47705 13.9396 3.43334L10.4729 1.43334C10.3972 1.38898 10.3135 1.36001 10.2266 1.34806C10.1397 1.33612 10.0513 1.34145 9.96642 1.36375C9.88157 1.38604 9.80196 1.42487 9.73214 1.47799C9.66233 1.53112 9.60368 1.5975 9.55957 1.67334L7.99957 4.38001L6.43957 1.67334C6.39547 1.5975 6.33682 1.53112 6.26701 1.47799C6.19719 1.42487 6.11758 1.38604 6.03273 1.36375C5.94788 1.34145 5.85946 1.33612 5.77255 1.34806C5.68563 1.36001 5.60193 1.38898 5.52624 1.43334L2.05957 3.43334C1.98306 3.47705 1.91598 3.5355 1.86219 3.6053C1.80841 3.67511 1.769 3.75488 1.74624 3.84001C1.70212 4.00897 1.72606 4.1885 1.81291 4.34001L4.47957 8.89334C4.18207 9.43837 4.0176 10.046 3.99957 10.6667C3.99799 11.2722 4.1339 11.8702 4.39705 12.4155C4.66021 12.9609 5.04375 13.4394 5.51874 13.8149C5.99374 14.1905 6.5478 14.4533 7.13916 14.5835C7.73051 14.7138 8.34371 14.7081 8.93253 14.5668C9.52136 14.4256 10.0704 14.1525 10.5384 13.7682C11.0063 13.3839 11.3808 12.8983 11.6338 12.3482C11.8868 11.798 12.0115 11.1976 11.9987 10.5922C11.9858 9.98683 11.8357 9.39226 11.5596 8.85334L14.1596 4.34667C14.208 4.27263 14.2411 4.18971 14.2572 4.10272C14.2732 4.01573 14.2717 3.92643 14.2529 3.84001ZM3.33291 4.25334L5.63957 2.92001L7.78624 6.66667C6.87119 6.72321 6.0041 7.09549 5.33291 7.72001L3.33291 4.25334ZM7.99957 13.3333C7.29233 13.3333 6.61405 13.0524 6.11396 12.5523C5.61386 12.0522 5.33291 11.3739 5.33291 10.6667C5.33291 9.95943 5.61386 9.28115 6.11396 8.78105C6.61405 8.28096 7.29233 8.00001 7.99957 8.00001C8.70682 8.00001 9.3851 8.28096 9.88519 8.78105C10.3853 9.28115 10.6662 9.95943 10.6662 10.6667C10.6662 11.3739 10.3853 12.0522 9.88519 12.5523C9.3851 13.0524 8.70682 13.3333 7.99957 13.3333ZM10.6662 7.70001C10.3043 7.36941 9.88374 7.10939 9.42624 6.93334L8.77291 5.71334L10.3862 2.92001L12.6929 4.25334L10.6662 7.70001Z" fill="#F2C94C"/>
</g>
</svg>
