<svg width="24" height="24" viewBox="0 0 24 24" fill="none" xmlns="http://www.w3.org/2000/svg">
<path d="M19.8701 8.60001C19.7956 8.42872 19.6746 8.28173 19.5209 8.17569C19.3671 8.06964 19.1867 8.00878 19.0001 8.00001H14.4201L15.6901 3.26001C15.7306 3.11168 15.7363 2.95603 15.7068 2.80514C15.6773 2.65425 15.6134 2.5122 15.5201 2.39001C15.427 2.26899 15.3073 2.17092 15.1704 2.10332C15.0334 2.03571 14.8828 2.00037 14.7301 2.00001H7.73012C7.50436 1.99227 7.28263 2.06121 7.10104 2.19558C6.91946 2.32995 6.78872 2.52184 6.73012 2.74001L4.05012 12.74C4.00967 12.8883 4.00397 13.044 4.03345 13.1949C4.06294 13.3458 4.12681 13.4878 4.22012 13.61C4.31431 13.7324 4.43555 13.8312 4.57434 13.8989C4.71314 13.9666 4.86572 14.0012 5.02012 14H8.89012L7.08012 20.74C7.02082 20.9573 7.03664 21.1883 7.12502 21.3956C7.21341 21.6028 7.36917 21.7741 7.56708 21.8817C7.76499 21.9894 7.99344 22.027 8.21543 21.9886C8.43741 21.9502 8.63991 21.8379 8.79012 21.67L19.6901 9.67001C19.8199 9.52789 19.9059 9.35134 19.9379 9.16154C19.9698 8.97175 19.9463 8.77677 19.8701 8.60001Z" fill="#F79009"/>
</svg>
