<svg width="24" height="24" viewBox="0 0 24 24" fill="none" xmlns="http://www.w3.org/2000/svg">
<path d="M19.8701 8.60059C19.7956 8.4293 19.6746 8.28231 19.5209 8.17627C19.3671 8.07022 19.1867 8.00936 19.0001 8.00059H14.4201L15.6901 3.26059C15.7306 3.11226 15.7363 2.95661 15.7068 2.80572C15.6773 2.65483 15.6134 2.51278 15.5201 2.39059C15.427 2.26957 15.3073 2.1715 15.1704 2.1039C15.0334 2.03629 14.8828 2.00095 14.7301 2.00059H7.73012C7.50436 1.99285 7.28263 2.06179 7.10104 2.19616C6.91946 2.33053 6.78872 2.52242 6.73012 2.74059L4.05012 12.7406C4.00967 12.8889 4.00397 13.0446 4.03345 13.1955C4.06294 13.3463 4.12681 13.4884 4.22012 13.6106C4.31431 13.7329 4.43555 13.8318 4.57434 13.8995C4.71314 13.9672 4.86572 14.0018 5.02012 14.0006H8.89012L7.08012 20.7406C7.02082 20.9579 7.03664 21.1889 7.12502 21.3961C7.21341 21.6034 7.36917 21.7747 7.56708 21.8823C7.76499 21.9899 7.99344 22.0276 8.21543 21.9892C8.43741 21.9507 8.63991 21.8385 8.79012 21.6706L19.6901 9.67059C19.8199 9.52847 19.9059 9.35192 19.9379 9.16212C19.9698 8.97232 19.9463 8.77735 19.8701 8.60059ZM10.0801 17.2806L11.1501 13.2806C11.1906 13.1323 11.1963 12.9766 11.1668 12.8257C11.1373 12.6748 11.0734 12.5328 10.9801 12.4106C10.887 12.2896 10.7673 12.1915 10.6304 12.1239C10.4934 12.0563 10.3428 12.021 10.1901 12.0206H6.35012L8.49012 4.00059H13.4201L12.1501 8.74059C12.1093 8.89164 12.1046 9.05016 12.1362 9.20339C12.1679 9.35662 12.235 9.50029 12.3323 9.62284C12.4295 9.7454 12.5542 9.84342 12.6963 9.90903C12.8383 9.97463 12.9938 10.006 13.1501 10.0006H16.7201L10.0801 17.2806Z" fill="#039824"/>
<path d="M10.0801 17.2806L11.1501 13.2806C11.1906 13.1323 11.1963 12.9766 11.1668 12.8257C11.1373 12.6748 11.0734 12.5328 10.9801 12.4106C10.887 12.2896 10.7673 12.1915 10.6304 12.1239C10.4934 12.0563 10.3428 12.021 10.1901 12.0206H6.35012L8.49012 4.00059H13.4201L12.1501 8.74059C12.1093 8.89164 12.1046 9.05016 12.1362 9.20339C12.1679 9.35662 12.235 9.50029 12.3323 9.62284C12.4295 9.7454 12.5542 9.84342 12.6963 9.90903C12.8383 9.97463 12.9938 10.006 13.1501 10.0006H16.7201L10.0801 17.2806Z" fill="#039824"/>
</svg>
