<svg width="14" height="12" viewBox="0 0 14 12" fill="none" xmlns="http://www.w3.org/2000/svg">
<path d="M13.138 5.52852L7.80467 0.195191C7.71143 0.101985 7.59266 0.038514 7.46335 0.0128023C7.33405 -0.0129094 7.20003 0.000292634 7.07823 0.0507393C6.95643 0.101186 6.85232 0.186612 6.77907 0.296219C6.70581 0.405825 6.6667 0.534691 6.66667 0.666525V3.02986C4.84553 3.19839 3.15282 4.04043 1.91979 5.39121C0.686769 6.74199 0.00218115 8.50427 0 10.3332V11.3332C0.000105237 11.4716 0.0432731 11.6065 0.123516 11.7192C0.203759 11.832 0.3171 11.917 0.447817 11.9624C0.578535 12.0078 0.72015 12.0115 0.85302 11.9728C0.98589 11.9341 1.10343 11.855 1.18933 11.7465C1.84246 10.9698 2.64384 10.3311 3.54663 9.86761C4.44942 9.40414 5.43553 9.12523 6.44733 9.04719C6.48067 9.04319 6.564 9.03652 6.66667 9.02986V11.3332C6.6667 11.465 6.70581 11.5939 6.77907 11.7035C6.85232 11.8131 6.95643 11.8985 7.07823 11.949C7.20003 11.9994 7.33405 12.0126 7.46335 11.9869C7.59266 11.9612 7.71143 11.8977 7.80467 11.8045L13.138 6.47119C13.263 6.34617 13.3332 6.17663 13.3332 5.99986C13.3332 5.82308 13.263 5.65354 13.138 5.52852ZM8 9.72386V8.33319C8 8.15638 7.92976 7.98681 7.80474 7.86179C7.67971 7.73676 7.51014 7.66652 7.33333 7.66652C7.16333 7.66652 6.46933 7.69986 6.292 7.72319C4.49524 7.88874 2.78495 8.57138 1.368 9.68852C1.52883 8.21815 2.22636 6.85875 3.32704 5.87063C4.42771 4.88251 5.85419 4.33509 7.33333 4.33319C7.51014 4.33319 7.67971 4.26295 7.80474 4.13793C7.92976 4.0129 8 3.84334 8 3.66652V2.27586L11.724 5.99986L8 9.72386Z" fill="#43576A"/>
</svg>
