<svg width="24" height="24" viewBox="0 0 24 24" fill="none" xmlns="http://www.w3.org/2000/svg">
<path d="M21.6693 9.20749C21.822 9.32642 21.9368 9.48708 22 9.66999C22.0486 9.85287 22.0444 10.0458 21.9877 10.2263C21.9311 10.4069 21.8244 10.5677 21.68 10.69L17.55 14.69L18.55 20.37C18.5857 20.5575 18.567 20.7512 18.4961 20.9284C18.4252 21.1056 18.3051 21.2589 18.15 21.37C17.9784 21.4942 17.7718 21.5607 17.56 21.56C17.3988 21.5605 17.2403 21.5192 17.1 21.44L12 18.76L6.87998 21.43C6.71575 21.5171 6.5305 21.5566 6.34503 21.5443C6.15955 21.5319 5.98119 21.4681 5.82998 21.36C5.67483 21.2489 5.55473 21.0956 5.48385 20.9184C5.41297 20.7412 5.39428 20.5475 5.42998 20.36L6.42998 14.68L2.29998 10.68C2.17144 10.5517 2.08025 10.3909 2.03621 10.2147C1.99216 10.0385 1.99692 9.85367 2.04998 9.67999C2.10794 9.50227 2.21455 9.34435 2.35773 9.22415C2.5009 9.10396 2.6749 9.0263 2.85998 8.99999L8.54998 8.15999L11.1 2.99999C11.1819 2.83092 11.3097 2.68833 11.4689 2.58857C11.6281 2.4888 11.8121 2.43588 12 2.43588C12.1878 2.43588 12.3719 2.4888 12.5311 2.58857C12.6902 2.68833 12.8181 2.83092 12.9 2.99999L15.45 8.16999L21.14 8.99999C21.3328 9.01649 21.5167 9.08857 21.6693 9.20749Z" fill="current"/>
</svg>
