<svg width="16" height="16" viewBox="0 0 16 16" fill="none" xmlns="http://www.w3.org/2000/svg">
<path d="M12.2 5.72406L12.8066 5.12406C12.9322 4.99853 13.0027 4.82826 13.0027 4.65073C13.0027 4.47319 12.9322 4.30293 12.8066 4.1774C12.6811 4.05186 12.5108 3.98133 12.3333 3.98133C12.1558 3.98133 11.9855 4.05186 11.86 4.1774L11.26 4.78406C10.3257 4.0613 9.17787 3.66915 7.99664 3.66915C6.81542 3.66915 5.66761 4.0613 4.73331 4.78406L4.12664 4.17073C4.00022 4.04519 3.82911 3.97502 3.65095 3.97564C3.47279 3.97627 3.30218 4.04764 3.17664 4.17406C3.05111 4.30048 2.98093 4.47159 2.98156 4.64975C2.98218 4.82791 3.05356 4.99853 3.17998 5.12406L3.79331 5.73073C3.06199 6.66243 2.66517 7.81296 2.66664 8.9974C2.66447 9.84768 2.86562 10.6862 3.25333 11.4429C3.64103 12.1997 4.20405 12.8527 4.89544 13.3477C5.58682 13.8426 6.38652 14.1651 7.22785 14.2882C8.06918 14.4113 8.92774 14.3315 9.73194 14.0553C10.5361 13.7792 11.2627 13.3148 11.8509 12.7008C12.4392 12.0869 12.8721 11.3412 13.1136 10.5259C13.3551 9.71065 13.3982 8.84946 13.2393 8.01416C13.0804 7.17886 12.724 6.39366 12.2 5.72406ZM7.99998 12.9974C7.20885 12.9974 6.43549 12.7628 5.7777 12.3233C5.1199 11.8837 4.60721 11.259 4.30446 10.5281C4.00171 9.79723 3.92249 8.99296 4.07684 8.21703C4.23118 7.44111 4.61214 6.72838 5.17155 6.16897C5.73096 5.60956 6.44369 5.2286 7.21962 5.07425C7.99554 4.91991 8.79981 4.99913 9.53071 5.30188C10.2616 5.60463 10.8863 6.11732 11.3259 6.77511C11.7654 7.43291 12 8.20627 12 8.9974C12 10.0583 11.5786 11.0757 10.8284 11.8258C10.0783 12.576 9.06084 12.9974 7.99998 12.9974ZM6.66664 2.9974H9.33331C9.51012 2.9974 9.67969 2.92716 9.80472 2.80213C9.92974 2.67711 9.99998 2.50754 9.99998 2.33073C9.99998 2.15392 9.92974 1.98435 9.80472 1.85932C9.67969 1.7343 9.51012 1.66406 9.33331 1.66406H6.66664C6.48983 1.66406 6.32026 1.7343 6.19524 1.85932C6.07021 1.98435 5.99998 2.15392 5.99998 2.33073C5.99998 2.50754 6.07021 2.67711 6.19524 2.80213C6.32026 2.92716 6.48983 2.9974 6.66664 2.9974ZM8.66664 6.9974C8.66664 6.82058 8.59641 6.65102 8.47138 6.52599C8.34636 6.40097 8.17679 6.33073 7.99998 6.33073C7.82317 6.33073 7.6536 6.40097 7.52857 6.52599C7.40355 6.65102 7.33331 6.82058 7.33331 6.9974V8.2574C7.18236 8.39241 7.07596 8.57008 7.02819 8.76689C6.98042 8.9637 6.99354 9.17038 7.0658 9.35957C7.13807 9.54877 7.26608 9.71156 7.43289 9.82641C7.5997 9.94126 7.79745 10.0028 7.99998 10.0028C8.2025 10.0028 8.40025 9.94126 8.56707 9.82641C8.73388 9.71156 8.86188 9.54877 8.93415 9.35957C9.00642 9.17038 9.01953 8.9637 8.97176 8.76689C8.924 8.57008 8.8176 8.39241 8.66664 8.2574V6.9974Z" fill="#43576A"/>
</svg>
