<svg width="16" height="16" viewBox="0 0 16 16" fill="none" xmlns="http://www.w3.org/2000/svg">
<path d="M6.66671 8.66732H2.00004C1.82323 8.66732 1.65366 8.73756 1.52864 8.86258C1.40361 8.9876 1.33337 9.15717 1.33337 9.33398V14.0007C1.33337 14.1775 1.40361 14.347 1.52864 14.4721C1.65366 14.5971 1.82323 14.6673 2.00004 14.6673H6.66671C6.84352 14.6673 7.01309 14.5971 7.13811 14.4721C7.26314 14.347 7.33337 14.1775 7.33337 14.0007V9.33398C7.33337 9.15717 7.26314 8.9876 7.13811 8.86258C7.01309 8.73756 6.84352 8.66732 6.66671 8.66732ZM6.00004 13.334H2.66671V10.0007H6.00004V13.334ZM14 1.33398H9.33337C9.15656 1.33398 8.98699 1.40422 8.86197 1.52925C8.73695 1.65427 8.66671 1.82384 8.66671 2.00065V6.66732C8.66671 6.84413 8.73695 7.0137 8.86197 7.13872C8.98699 7.26375 9.15656 7.33398 9.33337 7.33398H14C14.1769 7.33398 14.3464 7.26375 14.4714 7.13872C14.5965 7.0137 14.6667 6.84413 14.6667 6.66732V2.00065C14.6667 1.82384 14.5965 1.65427 14.4714 1.52925C14.3464 1.40422 14.1769 1.33398 14 1.33398ZM13.3334 6.00065H10V2.66732H13.3334V6.00065ZM14 8.66732H9.33337C9.15656 8.66732 8.98699 8.73756 8.86197 8.86258C8.73695 8.9876 8.66671 9.15717 8.66671 9.33398V14.0007C8.66671 14.1775 8.73695 14.347 8.86197 14.4721C8.98699 14.5971 9.15656 14.6673 9.33337 14.6673H14C14.1769 14.6673 14.3464 14.5971 14.4714 14.4721C14.5965 14.347 14.6667 14.1775 14.6667 14.0007V9.33398C14.6667 9.15717 14.5965 8.9876 14.4714 8.86258C14.3464 8.73756 14.1769 8.66732 14 8.66732ZM13.3334 13.334H10V10.0007H13.3334V13.334ZM6.66671 1.33398H2.00004C1.82323 1.33398 1.65366 1.40422 1.52864 1.52925C1.40361 1.65427 1.33337 1.82384 1.33337 2.00065V6.66732C1.33337 6.84413 1.40361 7.0137 1.52864 7.13872C1.65366 7.26375 1.82323 7.33398 2.00004 7.33398H6.66671C6.84352 7.33398 7.01309 7.26375 7.13811 7.13872C7.26314 7.0137 7.33337 6.84413 7.33337 6.66732V2.00065C7.33337 1.82384 7.26314 1.65427 7.13811 1.52925C7.01309 1.40422 6.84352 1.33398 6.66671 1.33398ZM6.00004 6.00065H2.66671V2.66732H6.00004V6.00065Z" fill="#3A89D8"/>
</svg>
