<svg viewBox="0 0 16 16" fill="none" xmlns="http://www.w3.org/2000/svg">
<path d="M6.00017 7.33334C6.13202 7.33334 6.26091 7.29424 6.37055 7.22099C6.48018 7.14774 6.56563 7.04362 6.61609 6.9218C6.66654 6.79998 6.67975 6.66594 6.65402 6.53662C6.6283 6.4073 6.56481 6.28851 6.47157 6.19527C6.37833 6.10204 6.25955 6.03854 6.13023 6.01282C6.00091 5.9871 5.86686 6.0003 5.74504 6.05076C5.62323 6.10122 5.51911 6.18666 5.44585 6.2963C5.3726 6.40593 5.3335 6.53482 5.3335 6.66668C5.3335 6.84349 5.40374 7.01306 5.52876 7.13808C5.65379 7.26311 5.82335 7.33334 6.00017 7.33334ZM8.00017 1.33334C6.68162 1.33334 5.39269 1.72434 4.29636 2.45688C3.20004 3.18942 2.34555 4.23061 1.84097 5.44879C1.33638 6.66696 1.20436 8.00741 1.4616 9.30061C1.71883 10.5938 2.35377 11.7817 3.28612 12.7141C4.21847 13.6464 5.40636 14.2813 6.69956 14.5386C7.99277 14.7958 9.33322 14.6638 10.5514 14.1592C11.7696 13.6546 12.8108 12.8001 13.5433 11.7038C14.2758 10.6075 14.6668 9.31855 14.6668 8.00001C14.6668 7.12453 14.4944 6.25762 14.1594 5.44879C13.8243 4.63995 13.3333 3.90502 12.7142 3.28596C12.0952 2.66691 11.3602 2.17584 10.5514 1.84081C9.74255 1.50578 8.87565 1.33334 8.00017 1.33334ZM8.00017 13.3333C6.94533 13.3333 5.91419 13.0205 5.03712 12.4345C4.16006 11.8485 3.47648 11.0155 3.07281 10.041C2.66914 9.06645 2.56352 7.99409 2.76931 6.95953C2.9751 5.92496 3.48305 4.97465 4.22893 4.22877C4.97481 3.48289 5.92512 2.97494 6.95968 2.76916C7.99425 2.56337 9.06661 2.66899 10.0411 3.07265C11.0157 3.47632 11.8486 4.15991 12.4347 5.03697C13.0207 5.91403 13.3335 6.94518 13.3335 8.00001C13.3335 9.4145 12.7716 10.7711 11.7714 11.7712C10.7712 12.7714 9.41465 13.3333 8.00017 13.3333ZM10.0002 8.66668H6.00017C5.82335 8.66668 5.65379 8.73692 5.52876 8.86194C5.40374 8.98696 5.3335 9.15653 5.3335 9.33334C5.3335 10.0406 5.61445 10.7189 6.11455 11.219C6.61464 11.7191 7.29292 12 8.00017 12C8.70741 12 9.38569 11.7191 9.88578 11.219C10.3859 10.7189 10.6668 10.0406 10.6668 9.33334C10.6668 9.15653 10.5966 8.98696 10.4716 8.86194C10.3465 8.73692 10.177 8.66668 10.0002 8.66668ZM8.00017 10.6667C7.76635 10.6664 7.53671 10.6047 7.33427 10.4877C7.13184 10.3707 6.96374 10.2025 6.84683 10H9.1535C9.03659 10.2025 8.86849 10.3707 8.66606 10.4877C8.46363 10.6047 8.23398 10.6664 8.00017 10.6667ZM10.0002 6.00001C9.86831 6.00001 9.73942 6.03911 9.62979 6.11236C9.52015 6.18562 9.4347 6.28974 9.38425 6.41155C9.33379 6.53337 9.32059 6.66742 9.34631 6.79674C9.37203 6.92606 9.43553 7.04485 9.52876 7.13808C9.622 7.23132 9.74079 7.29481 9.87011 7.32053C9.99943 7.34626 10.1335 7.33306 10.2553 7.2826C10.3771 7.23214 10.4812 7.14669 10.5545 7.03706C10.6277 6.92742 10.6668 6.79853 10.6668 6.66668C10.6668 6.48987 10.5966 6.3203 10.4716 6.19527C10.3465 6.07025 10.177 6.00001 10.0002 6.00001Z" fill="#D6E4EF"/>
</svg>
