<svg width="20" height="20" viewBox="0 0 20 20" fill="none" xmlns="http://www.w3.org/2000/svg">
<path fill-rule="evenodd" clip-rule="evenodd" d="M14.9997 8.33464V10.9846C15.486 11.1566 15.9072 11.4747 16.2056 11.8954C16.5039 12.3161 16.6649 12.8188 16.6663 13.3346V15.0013C16.6663 15.2223 16.5785 15.4343 16.4223 15.5906C16.266 15.7468 16.054 15.8346 15.833 15.8346H13.2163C13.0244 16.5408 12.6055 17.1642 12.0242 17.6086C11.4428 18.053 10.7314 18.2938 9.99967 18.2938C9.26792 18.2938 8.5565 18.053 7.97517 17.6086C7.39384 17.1642 6.97491 16.5408 6.78301 15.8346H4.16634C3.94533 15.8346 3.73337 15.7468 3.57709 15.5906C3.42081 15.4343 3.33301 15.2223 3.33301 15.0013V13.3346C3.33446 12.8188 3.49541 12.3161 3.79379 11.8954C4.09217 11.4747 4.51338 11.1566 4.99967 10.9846V8.33464C5.00087 7.1539 5.41988 6.01169 6.1825 5.11028C6.94511 4.20887 8.00212 3.60642 9.16634 3.40964V2.5013C9.16634 2.28029 9.25414 2.06833 9.41042 1.91205C9.5667 1.75577 9.77866 1.66797 9.99967 1.66797C10.2207 1.66797 10.4326 1.75577 10.5889 1.91205C10.7452 2.06833 10.833 2.28029 10.833 2.5013V3.40964C11.9972 3.60642 13.0542 4.20887 13.8169 5.11028C14.5795 6.01169 14.9985 7.1539 14.9997 8.33464ZM7.64265 5.97761C7.01753 6.60273 6.66634 7.45058 6.66634 8.33464V10.8346C6.66634 10.8346 6.66634 12.5013 5.83301 12.5013C5.61199 12.5013 5.40003 12.5891 5.24375 12.7454C5.08747 12.9017 4.99967 13.1136 4.99967 13.3346V14.168H14.9997V13.3346C14.9997 13.1136 14.9119 12.9017 14.7556 12.7454C14.5993 12.5891 14.3874 12.5013 14.1663 12.5013C13.333 12.5013 13.333 10.8346 13.333 10.8346V8.33464C13.333 7.45058 12.9818 6.60273 12.3567 5.97761C11.7316 5.35249 10.8837 5.0013 9.99967 5.0013C9.11562 5.0013 8.26777 5.35249 7.64265 5.97761ZM9.17203 16.4422C9.42349 16.5884 9.70882 16.6662 9.99967 16.668C10.2905 16.6662 10.5759 16.5884 10.8273 16.4422C11.0788 16.296 11.2876 16.0865 11.433 15.8346H8.56634C8.71177 16.0865 8.92058 16.296 9.17203 16.4422Z" fill="#718395"/>
</svg>
