<svg width="17" height="16" viewBox="0 0 17 16" fill="none" xmlns="http://www.w3.org/2000/svg">
<g id="uil:comment-alt-lines">
<path id="Vector" d="M9.16683 7.33334H5.16683C4.99002 7.33334 4.82045 7.40357 4.69543 7.5286C4.5704 7.65362 4.50016 7.82319 4.50016 8C4.50016 8.17681 4.5704 8.34638 4.69543 8.47141C4.82045 8.59643 4.99002 8.66667 5.16683 8.66667H9.16683C9.34364 8.66667 9.51321 8.59643 9.63823 8.47141C9.76326 8.34638 9.8335 8.17681 9.8335 8C9.8335 7.82319 9.76326 7.65362 9.63823 7.5286C9.51321 7.40357 9.34364 7.33334 9.16683 7.33334ZM11.8335 4.66667H5.16683C4.99002 4.66667 4.82045 4.73691 4.69543 4.86193C4.5704 4.98696 4.50016 5.15652 4.50016 5.33334C4.50016 5.51015 4.5704 5.67972 4.69543 5.80474C4.82045 5.92976 4.99002 6 5.16683 6H11.8335C12.0103 6 12.1799 5.92976 12.3049 5.80474C12.4299 5.67972 12.5002 5.51015 12.5002 5.33334C12.5002 5.15652 12.4299 4.98696 12.3049 4.86193C12.1799 4.73691 12.0103 4.66667 11.8335 4.66667ZM13.1668 1.33334H3.8335C3.30306 1.33334 2.79436 1.54405 2.41928 1.91912C2.04421 2.2942 1.8335 2.8029 1.8335 3.33334V10C1.8335 10.5304 2.04421 11.0391 2.41928 11.4142C2.79436 11.7893 3.30306 12 3.8335 12H11.5602L14.0268 14.4733C14.0891 14.5351 14.163 14.584 14.2442 14.6172C14.3254 14.6504 14.4124 14.6672 14.5002 14.6667C14.5876 14.6689 14.6744 14.6507 14.7535 14.6133C14.8752 14.5633 14.9795 14.4784 15.053 14.3692C15.1266 14.2601 15.1662 14.1316 15.1668 14V3.33334C15.1668 2.8029 14.9561 2.2942 14.581 1.91912C14.206 1.54405 13.6973 1.33334 13.1668 1.33334ZM13.8335 12.3933L12.3068 10.86C12.2445 10.7982 12.1707 10.7493 12.0894 10.7162C12.0082 10.683 11.9212 10.6662 11.8335 10.6667H3.8335C3.65669 10.6667 3.48712 10.5964 3.36209 10.4714C3.23707 10.3464 3.16683 10.1768 3.16683 10V3.33334C3.16683 3.15652 3.23707 2.98696 3.36209 2.86193C3.48712 2.73691 3.65669 2.66667 3.8335 2.66667H13.1668C13.3436 2.66667 13.5132 2.73691 13.6382 2.86193C13.7633 2.98696 13.8335 3.15652 13.8335 3.33334V12.3933Z" fill="#43576A"/>
</g>
</svg>
