<svg width="122" height="30" viewBox="0 0 122 30" fill="none" xmlns="http://www.w3.org/2000/svg">
<path fill-rule="evenodd" clip-rule="evenodd" d="M11.3667 26.0001C17.6434 26.0001 22.7333 20.8783 22.7333 14.5601C22.7333 12.6998 22.2921 10.9432 21.5092 9.39056L18.8185 10.954C19.3407 12.045 19.6333 13.2682 19.6333 14.5601C19.6333 19.1551 15.9319 22.8801 11.3667 22.8801C6.80143 22.8801 3.1 19.1551 3.1 14.5601C3.1 9.96518 6.80143 6.24012 11.3667 6.24012C13.9057 6.24012 16.1776 7.39237 17.694 9.20567L20.4093 7.62791C18.3324 4.88808 15.0544 3.12012 11.3667 3.12012C5.08997 3.12012 0 8.24191 0 14.5601C0 20.8783 5.08997 26.0001 11.3667 26.0001ZM13.999 11.3527C13.2841 10.7577 12.3668 10.4001 11.3667 10.4001C9.08405 10.4001 7.23333 12.2625 7.23333 14.5601C7.23333 16.8577 9.08405 18.7201 11.3667 18.7201C13.6493 18.7201 15.5 16.8577 15.5 14.5601C15.5 14.026 15.4 13.5155 15.2178 13.0463L12.2644 14.7625C11.7686 15.0506 11.1353 14.8809 10.85 14.3835C10.5647 13.886 10.7353 13.2492 11.2311 12.9611L13.999 11.3527Z" fill="#E05A4F"/>
<path d="M21.2094 9.56391L25.0427 11.2119C25.6205 11.4603 26.2818 11.42 26.827 11.1032L30.4352 9.00658L25.6838 6.96391L21.2094 9.56391Z" fill="#3A89D8"/>
<path d="M20.176 7.76258L20.6746 3.59739C20.7498 2.96959 21.1151 2.41335 21.6603 2.09653L25.2685 -8.79062e-05L24.6505 5.16258L20.176 7.76258Z" fill="#3A89D8"/>
<g clip-path="url(#clip0_403_306)">
<path d="M45.2811 7.59993C47.5251 7.59993 49.3951 8.3406 50.8911 9.82193C52.4018 11.2886 53.1571 13.1146 53.1571 15.2999C53.1571 17.4852 52.4018 19.3186 50.8911 20.7999C49.3951 22.2666 47.5251 22.9999 45.2811 22.9999H39.5391V7.59993H45.2811ZM45.2811 19.4359C46.4984 19.4359 47.4884 19.0546 48.2511 18.2919C49.0284 17.5146 49.4171 16.5172 49.4171 15.2999C49.4171 14.0679 49.0284 13.0706 48.2511 12.3079C47.4884 11.5453 46.4984 11.1639 45.2811 11.1639H43.2791V19.4359H45.2811ZM61.7264 10.6139C63.7064 10.6139 65.2904 11.3033 66.4784 12.6819C67.6664 14.0459 68.1651 15.7326 67.9744 17.7419H59.1524C59.2404 18.6219 59.5264 19.2892 60.0104 19.7439C60.5091 20.1839 61.1104 20.4039 61.8144 20.4039C62.3278 20.4039 62.7751 20.2866 63.1564 20.0519C63.5378 19.8026 63.8018 19.4652 63.9484 19.0399H67.7984C67.4024 20.4626 66.6544 21.5259 65.5544 22.2299C64.4691 22.9339 63.2224 23.2859 61.8144 23.2859C59.9078 23.2859 58.3531 22.6846 57.1504 21.4819C55.9478 20.2792 55.3464 18.7686 55.3464 16.9499C55.3464 15.1459 55.9404 13.6426 57.1284 12.4399C58.3311 11.2226 59.8638 10.6139 61.7264 10.6139ZM61.7044 13.4959C60.4284 13.4959 59.6144 14.1559 59.2624 15.4759H64.0804C63.9484 14.8746 63.6771 14.3979 63.2664 14.0459C62.8704 13.6793 62.3498 13.4959 61.7044 13.4959ZM70.2291 22.9999V6.05993H73.9691V22.9999H70.2291ZM85.7728 19.2159L86.4108 22.2299C86.0295 22.4939 85.4795 22.7359 84.7608 22.9559C84.0421 23.1759 83.3308 23.2859 82.6268 23.2859C81.3215 23.2859 80.2215 22.8826 79.3268 22.0759C78.4468 21.2546 78.0068 20.0006 78.0068 18.3139V14.4199H75.9388V10.8999H78.0068V8.41393L81.7468 7.59993V10.8999H85.8168V14.4199H81.7468V18.0939C81.7468 19.2379 82.2601 19.8099 83.2868 19.8099C83.6975 19.8099 84.5261 19.6119 85.7728 19.2159ZM90.5963 5.17993C91.2563 5.17993 91.799 5.38526 92.2243 5.79593C92.6496 6.19193 92.8623 6.69793 92.8623 7.31393C92.8623 7.9446 92.6496 8.46526 92.2243 8.87593C91.799 9.27193 91.2563 9.46993 90.5963 9.46993C89.951 9.46993 89.4083 9.2646 88.9683 8.85393C88.543 8.44326 88.3303 7.92993 88.3303 7.31393C88.3303 6.69793 88.543 6.19193 88.9683 5.79593C89.4083 5.38526 89.951 5.17993 90.5963 5.17993ZM88.7263 22.9999V10.8999H92.4663V22.9999H88.7263ZM102.334 10.6139C103.698 10.6139 104.769 11.0466 105.546 11.9119C106.323 12.7773 106.712 13.9506 106.712 15.4319V22.9999H102.972V16.2679C102.972 15.5639 102.833 15.0432 102.554 14.7059C102.275 14.3539 101.777 14.1779 101.058 14.1779C99.5766 14.1779 98.836 14.9773 98.836 16.5759V22.9999H95.096V10.8999H98.836V12.2639C99.7306 11.1639 100.897 10.6139 102.334 10.6139ZM117.911 10.8999H121.651V22.8239C121.651 24.6132 121.094 26.0506 119.979 27.1359C118.879 28.2359 117.405 28.7859 115.557 28.7859C113.958 28.7859 112.565 28.3826 111.377 27.5759C110.204 26.7692 109.522 25.5739 109.331 23.9899H113.181C113.416 24.9726 114.171 25.4639 115.447 25.4639C117.09 25.4639 117.911 24.6279 117.911 22.9559V21.4819C117.031 22.5379 115.887 23.0659 114.479 23.0659C112.924 23.0659 111.626 22.4792 110.585 21.3059C109.544 20.1326 109.023 18.6439 109.023 16.8399C109.023 15.0359 109.544 13.5473 110.585 12.3739C111.641 11.2006 112.939 10.6139 114.479 10.6139C115.902 10.6139 117.046 11.1566 117.911 12.2419V10.8999ZM115.359 19.5019C116.092 19.5019 116.701 19.2526 117.185 18.7539C117.669 18.2552 117.911 17.6172 117.911 16.8399C117.911 16.0626 117.669 15.4246 117.185 14.9259C116.701 14.4273 116.092 14.1779 115.359 14.1779C114.626 14.1779 114.017 14.4273 113.533 14.9259C113.049 15.4246 112.807 16.0626 112.807 16.8399C112.807 17.6172 113.049 18.2552 113.533 18.7539C114.032 19.2526 114.64 19.5019 115.359 19.5019Z" fill="#43576A"/>
</g>
<defs>
<clipPath id="clip0_403_306">
<rect width="83" height="24" fill="white" transform="translate(39 5)"/>
</clipPath>
</defs>
</svg>
