<svg width="24" height="24" viewBox="0 0 24 24" fill="none" xmlns="http://www.w3.org/2000/svg">
  <path d="M12 2C6.48 2 2 6.48 2 12s4.48 10 10 10 10-4.48 10-10S17.52 2 12 2zm-1.5 14.5h-3c-.28 0-.5-.22-.5-.5v-3c0-.28.22-.5.5-.5h3c.28 0 .5.22.5.5v3c0 .28-.22.5-.5.5zm6 0h-3c-.28 0-.5-.22-.5-.5v-3c0-.28.22-.5.5-.5h3c.28 0 .5.22.5.5v3c0 .28-.22.5-.5.5zm-6-6h-3c-.28 0-.5-.22-.5-.5v-3c0-.28.22-.5.5-.5h3c.28 0 .5.22.5.5v3c0 .28-.22.5-.5.5zm6 0h-3c-.28 0-.5-.22-.5-.5v-3c0-.28.22-.5.5-.5h3c.28 0 .5.22.5.5v3c0 .28-.22.5-.5.5z" fill="currentColor"/>
</svg>
