<svg width="40" height="40" viewBox="0 0 40 40" fill="none" xmlns="http://www.w3.org/2000/svg">
 <rect x="0.5" y="0.5" width="39" height="39" rx="5.5" fill="white"/>
 <rect x="0.5" y="0.5" width="39" height="39" rx="5.5" stroke="#E7EEF4"/>
 <path d="M10.2929 28.2929C10.4804 28.1054 10.7348 28 11 28H23C23.2652 28 23.5196 28.1054 23.7071 28.2929C23.8946 28.4804 24 28.7348 24 29C24 29.2652 23.8946 29.5196 23.7071 29.7071C23.5196 29.8946 23.2652 30 23 30H11C10.7348 30 10.4804 29.8946 10.2929 29.7071C10.1054 29.5196 10 29.2652 10 29C10 28.7348 10.1054 28.4804 10.2929 28.2929Z" fill="#718395"/>
 <path fill-rule="evenodd" clip-rule="evenodd" d="M21 26V28H19V26C19 25.7348 19.1054 25.4804 19.2929 25.2929C19.4804 25.1054 19.7348 25 20 25C20.2652 25 20.5196 25.1054 20.7071 25.2929C20.8946 25.4804 21 25.7348 21 26ZM17 28V24.62L20.45 22.89C20.6149 22.8069 20.7536 22.6798 20.8507 22.5227C20.9478 22.3656 20.9994 22.1847 21 22V18C21 17.7348 20.8946 17.4804 20.7071 17.2929C20.5196 17.1054 20.2652 17 20 17C19.7348 17 19.4804 17.1054 19.2929 17.2929C19.1054 17.4804 19 17.7348 19 18V21.38L17 22.38V16C17 15.7348 16.8946 15.4804 16.7071 15.2929C16.5196 15.1054 16.2652 15 16 15C15.7348 15 15.4804 15.1054 15.2929 15.2929C15.1054 15.4804 15 15.7348 15 16V24.38L13 23.38V21C13 20.7348 12.8946 20.4804 12.7071 20.2929C12.5196 20.1054 12.2652 20 12 20C11.7348 20 11.4804 20.1054 11.2929 20.2929C11.1054 20.4804 11 20.7348 11 21V24C11.0006 24.1847 11.0522 24.3656 11.1493 24.5227C11.2464 24.6798 11.3851 24.8069 11.55 24.89L15 26.62V28H17Z" fill="#039824"/>
 <path fill-rule="evenodd" clip-rule="evenodd" d="M26 10C25.2089 10 24.4355 10.2346 23.7777 10.6741C23.1199 11.1136 22.6072 11.7384 22.3045 12.4693C22.0017 13.2002 21.9225 14.0044 22.0769 14.7804C22.2312 15.5563 22.6122 16.269 23.1716 16.8284C23.731 17.3878 24.4437 17.7688 25.2196 17.9231C25.9956 18.0775 26.7998 17.9983 27.5307 17.6955C28.2616 17.3928 28.8864 16.8801 29.3259 16.2223C29.7654 15.5645 30 14.7911 30 14C30 12.9391 29.5786 11.9217 28.8284 11.1716C28.0783 10.4214 27.0609 10 26 10ZM24.8889 15.6629C25.2178 15.8827 25.6044 16 26 16C26.5304 16 27.0391 15.7893 27.4142 15.4142C27.7893 15.0391 28 14.5304 28 14C28 13.6044 27.8827 13.2178 27.6629 12.8889C27.4432 12.56 27.1308 12.3036 26.7654 12.1522C26.3999 12.0009 25.9978 11.9613 25.6098 12.0384C25.2219 12.1156 24.8655 12.3061 24.5858 12.5858C24.3061 12.8655 24.1156 13.2219 24.0384 13.6098C23.9613 13.9978 24.0009 14.3999 24.1522 14.7654C24.3036 15.1308 24.56 15.4432 24.8889 15.6629Z" fill="#718395"/>
</svg>
