<svg width="16" height="16" viewBox="0 0 16 16" fill="none" xmlns="http://www.w3.org/2000/svg">
<path d="M12.6668 1.33301H3.3335C2.80306 1.33301 2.29436 1.54372 1.91928 1.91879C1.54421 2.29387 1.3335 2.80257 1.3335 3.33301V4.11301C1.3334 4.3883 1.39014 4.66065 1.50016 4.91301V4.95301C1.59435 5.16699 1.72776 5.36145 1.8935 5.52634L6.00016 9.60634V13.9997C5.99994 14.113 6.02859 14.2245 6.08341 14.3236C6.13823 14.4228 6.21742 14.5063 6.3135 14.5663C6.41959 14.6321 6.54201 14.6667 6.66683 14.6663C6.77119 14.6657 6.87395 14.6406 6.96683 14.593L9.6335 13.2597C9.74344 13.2043 9.83589 13.1195 9.90061 13.0148C9.96533 12.9101 9.99979 12.7895 10.0002 12.6663V9.60634L14.0802 5.52634C14.2459 5.36145 14.3793 5.16699 14.4735 4.95301V4.91301C14.5927 4.66263 14.6585 4.39019 14.6668 4.11301V3.33301C14.6668 2.80257 14.4561 2.29387 14.081 1.91879C13.706 1.54372 13.1973 1.33301 12.6668 1.33301ZM8.86016 8.85967C8.79837 8.92197 8.74949 8.99585 8.71632 9.07707C8.68314 9.1583 8.66632 9.24527 8.66683 9.33301V12.253L7.3335 12.9197V9.33301C7.334 9.24527 7.31719 9.1583 7.28401 9.07707C7.25083 8.99585 7.20195 8.92197 7.14016 8.85967L3.60683 5.33301H12.3935L8.86016 8.85967ZM13.3335 3.99967H2.66683V3.33301C2.66683 3.1562 2.73707 2.98663 2.86209 2.8616C2.98712 2.73658 3.15669 2.66634 3.3335 2.66634H12.6668C12.8436 2.66634 13.0132 2.73658 13.1382 2.8616C13.2633 2.98663 13.3335 3.1562 13.3335 3.33301V3.99967Z" fill="#43576A"/>
</svg>
