<svg width="16" height="16" viewBox="0 0 16 16" fill="none" xmlns="http://www.w3.org/2000/svg">
<path d="M9.33329 5.99935H6.66663C6.48981 5.99935 6.32025 6.06959 6.19522 6.19461C6.0702 6.31963 5.99996 6.4892 5.99996 6.66602V14.666C5.99996 14.8428 6.0702 15.0124 6.19522 15.1374C6.32025 15.2624 6.48981 15.3327 6.66663 15.3327H9.33329C9.5101 15.3327 9.67967 15.2624 9.8047 15.1374C9.92972 15.0124 9.99996 14.8428 9.99996 14.666V6.66602C9.99996 6.4892 9.92972 6.31963 9.8047 6.19461C9.67967 6.06959 9.5101 5.99935 9.33329 5.99935ZM8.66663 13.9993H7.33329V7.33268H8.66663V13.9993ZM14.6666 0.666016H12C11.8231 0.666016 11.6536 0.736253 11.5286 0.861278C11.4035 0.986302 11.3333 1.15587 11.3333 1.33268V14.666C11.3333 14.8428 11.4035 15.0124 11.5286 15.1374C11.6536 15.2624 11.8231 15.3327 12 15.3327H14.6666C14.8434 15.3327 15.013 15.2624 15.138 15.1374C15.2631 15.0124 15.3333 14.8428 15.3333 14.666V1.33268C15.3333 1.15587 15.2631 0.986302 15.138 0.861278C15.013 0.736253 14.8434 0.666016 14.6666 0.666016ZM14 13.9993H12.6666V1.99935H14V13.9993ZM3.99996 9.99935H1.33329C1.15648 9.99935 0.986912 10.0696 0.861888 10.1946C0.736864 10.3196 0.666626 10.4892 0.666626 10.666V14.666C0.666626 14.8428 0.736864 15.0124 0.861888 15.1374C0.986912 15.2624 1.15648 15.3327 1.33329 15.3327H3.99996C4.17677 15.3327 4.34634 15.2624 4.47136 15.1374C4.59639 15.0124 4.66663 14.8428 4.66663 14.666V10.666C4.66663 10.4892 4.59639 10.3196 4.47136 10.1946C4.34634 10.0696 4.17677 9.99935 3.99996 9.99935ZM3.33329 13.9993H1.99996V11.3327H3.33329V13.9993Z" fill="#3A89D8"/>
</svg>
