<svg width="16" height="16" viewBox="0 0 16 16" fill="none" xmlns="http://www.w3.org/2000/svg">
<g id="uil:thumbs-up">
<path id="Vector" d="M14.2007 6.71995C14.0133 6.49505 13.7789 6.314 13.514 6.1896C13.249 6.06519 12.96 6.00045 12.6673 5.99995H9.62732L10.0007 5.04662C10.1559 4.6292 10.2077 4.18035 10.1514 3.73856C10.0951 3.29677 9.93244 2.87523 9.67744 2.5101C9.42244 2.14497 9.08267 1.84715 8.68728 1.64218C8.29189 1.43721 7.85267 1.33121 7.40732 1.33328C7.27908 1.33355 7.15363 1.3708 7.04603 1.44056C6.93843 1.51033 6.85323 1.60965 6.80065 1.72661L4.90065 5.99995H3.33398C2.80355 5.99995 2.29484 6.21066 1.91977 6.58573C1.5447 6.96081 1.33398 7.46952 1.33398 7.99995V12.6666C1.33398 13.197 1.5447 13.7058 1.91977 14.0808C2.29484 14.4559 2.80355 14.6666 3.33398 14.6666H11.8207C12.2885 14.6665 12.7415 14.5023 13.1009 14.2026C13.4602 13.903 13.7031 13.4868 13.7873 13.0266L14.634 8.35995C14.6864 8.07153 14.6747 7.77514 14.5998 7.49173C14.5249 7.20833 14.3886 6.94485 14.2007 6.71995ZM4.66732 13.3333H3.33398C3.15717 13.3333 2.9876 13.263 2.86258 13.138C2.73756 13.013 2.66732 12.8434 2.66732 12.6666V7.99995C2.66732 7.82314 2.73756 7.65357 2.86258 7.52854C2.9876 7.40352 3.15717 7.33328 3.33398 7.33328H4.66732V13.3333ZM13.334 8.11995L12.4873 12.7866C12.4589 12.9419 12.3763 13.0821 12.2542 13.1822C12.1322 13.2823 11.9785 13.3359 11.8207 13.3333H6.00065V6.80661L7.81398 2.72662C8.00064 2.78103 8.17399 2.87355 8.32309 2.99834C8.47219 3.12312 8.5938 3.27746 8.68025 3.45161C8.7667 3.62576 8.81611 3.81594 8.82535 4.01015C8.8346 4.20436 8.80349 4.39837 8.73398 4.57995L8.38065 5.53328C8.30536 5.73479 8.27994 5.95151 8.30657 6.16497C8.33319 6.37842 8.41106 6.58227 8.53354 6.75911C8.65602 6.93595 8.81946 7.08053 9.00992 7.18051C9.20038 7.28049 9.41221 7.33291 9.62732 7.33328H12.6673C12.7653 7.33312 12.862 7.35455 12.9508 7.39603C13.0395 7.43751 13.118 7.49803 13.1807 7.57328C13.2449 7.6475 13.2919 7.73498 13.3184 7.82948C13.3449 7.92397 13.3502 8.02316 13.334 8.11995Z" fill="#718395"/>
</g>
</svg>
