<svg width="24" height="24" viewBox="0 0 24 24" fill="none" xmlns="http://www.w3.org/2000/svg">
<path d="M18.422 8.208C18.3525 8.14088 18.2753 8.08214 18.192 8.033C18.0742 7.96362 17.9434 7.91914 17.8076 7.90233C17.6719 7.88551 17.5342 7.89671 17.403 7.93523C17.2718 7.97375 17.1499 8.03878 17.0448 8.12629C16.9397 8.21379 16.8537 8.32193 16.792 8.444C16.4476 9.12292 15.9725 9.72714 15.394 10.222C15.4827 9.72355 15.5276 9.21828 15.528 8.712C15.5299 7.17214 15.1238 5.65927 14.3509 4.32742C13.578 2.99558 12.4659 1.89233 11.128 1.13C10.9806 1.04623 10.8143 1.00132 10.6447 0.999508C10.4751 0.997693 10.3079 1.03903 10.1587 1.11962C10.0095 1.20022 9.88326 1.31743 9.79183 1.46024C9.70039 1.60305 9.64678 1.76677 9.63602 1.936C9.58003 2.8841 9.33216 3.81096 8.90742 4.66045C8.48267 5.50993 7.8899 6.26435 7.16502 6.878L6.93502 7.065C6.17663 7.57524 5.50537 8.2043 4.94702 8.928C4.07929 10.0211 3.47821 11.3014 3.19143 12.6672C2.90466 14.0331 2.94009 15.447 3.29491 16.7968C3.64973 18.1466 4.31418 19.3952 5.23557 20.4434C6.15695 21.4917 7.30991 22.3109 8.60302 22.836C8.75484 22.8978 8.91952 22.9213 9.08257 22.9045C9.24562 22.8877 9.40203 22.8311 9.53805 22.7396C9.67407 22.6481 9.78552 22.5246 9.86259 22.38C9.93966 22.2353 9.97998 22.0739 9.98002 21.91C9.97918 21.8041 9.96233 21.6989 9.93002 21.598C9.70628 20.757 9.64184 19.8817 9.74002 19.017C10.6865 20.8016 12.2056 22.216 14.053 23.033C14.2784 23.1338 14.5332 23.1473 14.768 23.071C16.2275 22.5998 17.5423 21.7634 18.5874 20.641C19.6326 19.5187 20.3734 18.1477 20.7396 16.6584C21.1057 15.1691 21.085 13.6109 20.6793 12.1319C20.2737 10.6529 19.4967 9.30215 18.422 8.208Z" fill="#384149"/>
</svg>
