<svg width="17" height="16" viewBox="0 0 17 16" fill="none" xmlns="http://www.w3.org/2000/svg">
<g id="uil:image-v">
<path id="Vector" d="M13.1673 1.33331H3.83398C3.30355 1.33331 2.79484 1.54403 2.41977 1.9191C2.0447 2.29417 1.83398 2.80288 1.83398 3.33331V12.6666C1.83398 13.1971 2.0447 13.7058 2.41977 14.0809C2.79484 14.4559 3.30355 14.6666 3.83398 14.6666H13.1673C13.277 14.6651 13.3863 14.654 13.494 14.6333L13.694 14.5866H13.774L14.0207 14.4933L14.1073 14.4466C14.174 14.4066 14.2473 14.3733 14.314 14.3266C14.403 14.2612 14.4876 14.1899 14.5673 14.1133L14.614 14.0533C14.6794 13.987 14.7396 13.9157 14.794 13.84L14.854 13.7533C14.9005 13.6791 14.9407 13.601 14.974 13.52C14.9923 13.488 15.0079 13.4545 15.0207 13.42C15.054 13.34 15.074 13.2533 15.1006 13.1666V13.0666C15.1384 12.9364 15.1608 12.8021 15.1673 12.6666V3.33331C15.1673 2.80288 14.9566 2.29417 14.5815 1.9191C14.2065 1.54403 13.6977 1.33331 13.1673 1.33331ZM3.83398 13.3333C3.65717 13.3333 3.4876 13.2631 3.36258 13.1381C3.23756 13.013 3.16732 12.8435 3.16732 12.6666V9.79331L5.36065 7.59331C5.42263 7.53083 5.49636 7.48123 5.5776 7.44738C5.65884 7.41354 5.74598 7.39611 5.83398 7.39611C5.92199 7.39611 6.00913 7.41354 6.09037 7.44738C6.17161 7.48123 6.24534 7.53083 6.30732 7.59331L12.0407 13.3333H3.83398ZM13.834 12.6666C13.8334 12.7488 13.8175 12.8302 13.7873 12.9066C13.7721 12.9391 13.7542 12.9704 13.734 13C13.7161 13.0282 13.6961 13.055 13.674 13.08L10.1073 9.51331L10.694 8.92665C10.756 8.86416 10.8297 8.81456 10.9109 8.78072C10.9922 8.74687 11.0793 8.72945 11.1673 8.72945C11.2553 8.72945 11.3425 8.74687 11.4237 8.78072C11.5049 8.81456 11.5787 8.86416 11.6406 8.92665L13.834 11.1266V12.6666ZM13.834 9.23998L12.5807 7.99998C12.1991 7.63797 11.6932 7.43617 11.1673 7.43617C10.6414 7.43617 10.1355 7.63797 9.75398 7.99998L9.16732 8.58665L7.24732 6.66665C6.8658 6.30464 6.35992 6.10283 5.83398 6.10283C5.30805 6.10283 4.80217 6.30464 4.42065 6.66665L3.16732 7.90665V3.33331C3.16732 3.1565 3.23756 2.98693 3.36258 2.86191C3.4876 2.73688 3.65717 2.66665 3.83398 2.66665H13.1673C13.3441 2.66665 13.5137 2.73688 13.6387 2.86191C13.7637 2.98693 13.834 3.1565 13.834 3.33331V9.23998Z" fill="#718395"/>
</g>
</svg>
