<svg width="16" height="16" viewBox="0 0 16 16" fill="none" xmlns="http://www.w3.org/2000/svg">
<path d="M8.19935 8.14665C8.55507 7.83874 8.84038 7.4579 9.03593 7.02999C9.23148 6.60209 9.33269 6.13712 9.33268 5.66665C9.33268 4.78259 8.98149 3.93475 8.35637 3.30962C7.73125 2.6845 6.8834 2.33331 5.99935 2.33331C5.11529 2.33331 4.26745 2.6845 3.64233 3.30962C3.01721 3.93475 2.66602 4.78259 2.66602 5.66665C2.66601 6.13712 2.76722 6.60209 2.96277 7.02999C3.15832 7.4579 3.44363 7.83874 3.79935 8.14665C2.86611 8.56924 2.07433 9.25167 1.51867 10.1123C0.963012 10.973 0.666997 11.9755 0.666016 13C0.666016 13.1768 0.736253 13.3464 0.861278 13.4714C0.986302 13.5964 1.15587 13.6666 1.33268 13.6666C1.50949 13.6666 1.67906 13.5964 1.80409 13.4714C1.92911 13.3464 1.99935 13.1768 1.99935 13C1.99935 11.9391 2.42078 10.9217 3.17092 10.1716C3.92107 9.42141 4.93848 8.99998 5.99935 8.99998C7.06021 8.99998 8.07763 9.42141 8.82778 10.1716C9.57792 10.9217 9.99935 11.9391 9.99935 13C9.99935 13.1768 10.0696 13.3464 10.1946 13.4714C10.3196 13.5964 10.4892 13.6666 10.666 13.6666C10.8428 13.6666 11.0124 13.5964 11.1374 13.4714C11.2624 13.3464 11.3327 13.1768 11.3327 13C11.3317 11.9755 11.0357 10.973 10.48 10.1123C9.92437 9.25167 9.13259 8.56924 8.19935 8.14665ZM5.99935 7.66665C5.60379 7.66665 5.21711 7.54935 4.88821 7.32959C4.55931 7.10982 4.30297 6.79747 4.15159 6.43201C4.00021 6.06656 3.96061 5.66443 4.03778 5.27647C4.11495 4.8885 4.30543 4.53214 4.58514 4.25243C4.86484 3.97273 5.22121 3.78225 5.60917 3.70508C5.99713 3.62791 6.39926 3.66751 6.76472 3.81889C7.13017 3.97026 7.44253 4.22661 7.66229 4.55551C7.88205 4.8844 7.99935 5.27108 7.99935 5.66665C7.99935 6.19708 7.78864 6.70579 7.41356 7.08086C7.03849 7.45593 6.52978 7.66665 5.99935 7.66665ZM12.4927 7.87998C12.9193 7.39953 13.198 6.80602 13.2952 6.17087C13.3924 5.53573 13.304 4.88603 13.0405 4.29998C12.7771 3.71393 12.3499 3.21651 11.8103 2.86759C11.2708 2.51868 10.6419 2.33314 9.99935 2.33331C9.82254 2.33331 9.65297 2.40355 9.52794 2.52858C9.40292 2.6536 9.33268 2.82317 9.33268 2.99998C9.33268 3.17679 9.40292 3.34636 9.52794 3.47138C9.65297 3.59641 9.82254 3.66665 9.99935 3.66665C10.5298 3.66665 11.0385 3.87736 11.4136 4.25243C11.7886 4.62751 11.9993 5.13621 11.9993 5.66665C11.9984 6.01681 11.9055 6.36058 11.7301 6.66359C11.5546 6.96661 11.3026 7.21823 10.9993 7.39331C10.9005 7.45033 10.818 7.53176 10.7596 7.62981C10.7012 7.72786 10.669 7.83925 10.666 7.95331C10.6632 8.06649 10.6893 8.17851 10.7418 8.27882C10.7943 8.37913 10.8714 8.46441 10.966 8.52665L11.226 8.69998L11.3127 8.74665C12.1163 9.12779 12.7942 9.73064 13.2667 10.4842C13.7391 11.2377 13.9864 12.1106 13.9793 13C13.9793 13.1768 14.0496 13.3464 14.1746 13.4714C14.2996 13.5964 14.4692 13.6666 14.646 13.6666C14.8228 13.6666 14.9924 13.5964 15.1174 13.4714C15.2424 13.3464 15.3127 13.1768 15.3127 13C15.3181 11.9769 15.0619 10.9695 14.5683 10.0734C14.0748 9.17723 13.3602 8.42219 12.4927 7.87998Z" fill="#3A89D8"/>
</svg>
