<svg width="17" height="16" viewBox="0 0 17 16" fill="none" xmlns="http://www.w3.org/2000/svg">
<g id="uil:plus">
<path id="Vector" d="M13.166 7.33335H9.16602V3.33335C9.16602 3.15654 9.09578 2.98697 8.97075 2.86195C8.84573 2.73693 8.67616 2.66669 8.49935 2.66669C8.32254 2.66669 8.15297 2.73693 8.02794 2.86195C7.90292 2.98697 7.83268 3.15654 7.83268 3.33335V7.33335H3.83268C3.65587 7.33335 3.4863 7.40359 3.36128 7.52862C3.23625 7.65364 3.16602 7.82321 3.16602 8.00002C3.16602 8.17683 3.23625 8.3464 3.36128 8.47142C3.4863 8.59645 3.65587 8.66669 3.83268 8.66669H7.83268V12.6667C7.83268 12.8435 7.90292 13.0131 8.02794 13.1381C8.15297 13.2631 8.32254 13.3334 8.49935 13.3334C8.67616 13.3334 8.84573 13.2631 8.97075 13.1381C9.09578 13.0131 9.16602 12.8435 9.16602 12.6667V8.66669H13.166C13.3428 8.66669 13.5124 8.59645 13.6374 8.47142C13.7624 8.3464 13.8327 8.17683 13.8327 8.00002C13.8327 7.82321 13.7624 7.65364 13.6374 7.52862C13.5124 7.40359 13.3428 7.33335 13.166 7.33335Z" fill="white"/>
</g>
</svg>
