<svg width="24" height="24" viewBox="0 0 24 24" fill="none" xmlns="http://www.w3.org/2000/svg">
<path d="M19.87 8.60059C19.7955 8.4293 19.6745 8.28231 19.5207 8.17627C19.367 8.07022 19.1866 8.00936 19 8.00059H14.42L15.69 3.26059C15.7304 3.11226 15.7362 2.95661 15.7067 2.80572C15.6772 2.65483 15.6133 2.51278 15.52 2.39059C15.4268 2.26957 15.3072 2.1715 15.1703 2.1039C15.0333 2.03629 14.8827 2.00095 14.73 2.00059H7.73C7.50424 1.99285 7.28251 2.06179 7.10092 2.19616C6.91934 2.33053 6.7886 2.52242 6.73 2.74059L4.05 12.7406C4.00955 12.8889 4.00385 13.0446 4.03333 13.1955C4.06282 13.3463 4.12669 13.4884 4.22 13.6106C4.31418 13.7329 4.43543 13.8318 4.57422 13.8995C4.71302 13.9672 4.86559 14.0018 5.02 14.0006H8.89L7.08 20.7406C7.0207 20.9579 7.03652 21.1889 7.1249 21.3961C7.21329 21.6034 7.36905 21.7747 7.56696 21.8823C7.76487 21.9899 7.99332 22.0276 8.2153 21.9892C8.43728 21.9507 8.63979 21.8385 8.79 21.6706L19.69 9.67059C19.8198 9.52847 19.9058 9.35192 19.9377 9.16212C19.9697 8.97232 19.9461 8.77735 19.87 8.60059ZM10.08 17.2806L11.15 13.2806C11.1904 13.1323 11.1962 12.9766 11.1667 12.8257C11.1372 12.6748 11.0733 12.5328 10.98 12.4106C10.8868 12.2896 10.7672 12.1915 10.6303 12.1239C10.4933 12.0563 10.3427 12.021 10.19 12.0206H6.35L8.49 4.00059H13.42L12.15 8.74059C12.1092 8.89164 12.1045 9.05016 12.1361 9.20339C12.1677 9.35662 12.2349 9.50029 12.3322 9.62284C12.4294 9.7454 12.5541 9.84342 12.6961 9.90903C12.8382 9.97463 12.9936 10.006 13.15 10.0006H16.72L10.08 17.2806Z" fill="#F79009"/>
<path d="M10.08 17.2806L11.15 13.2806C11.1904 13.1323 11.1962 12.9766 11.1667 12.8257C11.1372 12.6748 11.0733 12.5328 10.98 12.4106C10.8868 12.2896 10.7672 12.1915 10.6303 12.1239C10.4933 12.0563 10.3427 12.021 10.19 12.0206H6.35L8.49 4.00059H13.42L12.15 8.74059C12.1092 8.89164 12.1045 9.05016 12.1361 9.20339C12.1677 9.35662 12.2349 9.50029 12.3322 9.62284C12.4294 9.7454 12.5541 9.84342 12.6961 9.90903C12.8382 9.97463 12.9936 10.006 13.15 10.0006H16.72L10.08 17.2806Z" fill="#F79009"/>
</svg>
