<svg width="24" height="24" viewBox="0 0 24 24" fill="none" xmlns="http://www.w3.org/2000/svg">
<path d="M8.6699 4.23059C8.83178 4.27314 9.00175 4.27439 9.16424 4.2342C9.32672 4.19402 9.47652 4.11369 9.5999 4.00059H14.6999L13.4299 8.74059C13.3895 8.88891 13.3837 9.04457 13.4132 9.19545C13.4427 9.34634 13.5066 9.4884 13.5999 9.61059C13.6931 9.7316 13.8127 9.82967 13.9496 9.89727C14.0866 9.96488 14.2372 10.0002 14.3899 10.0006H17.9999L16.8699 11.2406C16.6926 11.4371 16.6005 11.6958 16.6136 11.96C16.6267 12.2243 16.7441 12.4726 16.9399 12.6506C17.1233 12.8173 17.3621 12.9099 17.6099 12.9106C17.7494 12.9103 17.8874 12.8807 18.0148 12.8239C18.1423 12.7671 18.2564 12.6842 18.3499 12.5806L20.9999 9.67059C21.1312 9.52526 21.2169 9.34458 21.2465 9.15097C21.276 8.95736 21.248 8.75934 21.166 8.58148C21.084 8.40362 20.9516 8.25376 20.7852 8.1505C20.6188 8.04723 20.4257 7.9951 20.2299 8.00059H15.6899L16.9999 3.26059C17.039 3.11151 17.043 2.95542 17.0118 2.8045C16.9806 2.65358 16.9149 2.51193 16.8199 2.39059C16.7237 2.26549 16.5992 2.16493 16.4567 2.09715C16.3142 2.02937 16.1577 1.99628 15.9999 2.00059H8.9999C8.77414 1.99285 8.55241 2.06179 8.37082 2.19616C8.18924 2.33053 8.0585 2.52242 7.9999 2.74059V3.00059C7.92826 3.25251 7.95831 3.52248 8.08359 3.75248C8.20888 3.98248 8.4194 4.15415 8.6699 4.23059ZM21.6699 20.2906L3.6699 2.29059C3.47529 2.14871 3.23601 2.08184 2.99604 2.10225C2.75607 2.12267 2.53153 2.22901 2.36368 2.40172C2.19583 2.57443 2.09595 2.80192 2.0824 3.04238C2.06884 3.28283 2.14252 3.52011 2.2899 3.71059L6.6099 8.00059L5.3499 12.7406C5.31084 12.8897 5.30676 13.0458 5.33798 13.1967C5.36921 13.3476 5.43489 13.4892 5.5299 13.6106C5.62306 13.7316 5.7427 13.8297 5.87964 13.8973C6.01658 13.9649 6.16718 14.0002 6.3199 14.0006H10.1599L8.3499 20.7406C8.29128 20.958 8.30777 21.1889 8.3967 21.3958C8.48563 21.6027 8.64179 21.7735 8.8399 21.8806C8.98732 21.9602 9.15238 22.0014 9.3199 22.0006C9.45944 22.0003 9.59738 21.9707 9.72482 21.9139C9.85227 21.8571 9.96641 21.7742 10.0599 21.6706L14.9099 16.3306L20.2899 21.7106C20.3829 21.8043 20.4935 21.8787 20.6153 21.9295C20.7372 21.9802 20.8679 22.0064 20.9999 22.0064C21.1319 22.0064 21.2626 21.9802 21.3845 21.9295C21.5063 21.8787 21.6169 21.8043 21.7099 21.7106C21.8036 21.6176 21.878 21.507 21.9288 21.3852C21.9796 21.2633 22.0057 21.1326 22.0057 21.0006C22.0057 20.8686 21.9796 20.7379 21.9288 20.616C21.878 20.4942 21.8036 20.3835 21.7099 20.2906H21.6699ZM7.6199 12.0006L8.2499 9.66059L10.5899 12.0006H7.6199ZM11.3499 17.2806L12.3499 13.7206L13.5499 14.9106L11.3499 17.2806Z" fill="#718395"/>
</svg>
