<svg width="16" height="16" viewBox="0 0 16 16" fill="none" xmlns="http://www.w3.org/2000/svg">
<path d="M15.0673 1.37434C15.0373 1.2601 14.9775 1.1559 14.894 1.07238C14.8104 0.988857 14.7062 0.929026 14.592 0.899006C13.2245 0.543901 11.7845 0.582208 10.4379 1.00952C9.0912 1.43682 7.89257 2.23576 6.98 3.31434L6.236 4.19701L4.5 3.77834C4.07784 3.63104 3.61663 3.6415 3.20158 3.80779C2.78652 3.97408 2.44568 4.28496 2.242 4.68301L0.775336 7.28301C0.723985 7.37404 0.694759 7.47588 0.690017 7.5803C0.685276 7.68471 0.705153 7.78878 0.748042 7.8841C0.790932 7.97941 0.855633 8.06331 0.936922 8.12902C1.01821 8.19472 1.11381 8.24039 1.216 8.26234L3.26467 8.70167C3.09119 9.22989 2.96732 9.77313 2.89467 10.3243C2.88147 10.4255 2.89167 10.5284 2.9245 10.625C2.95732 10.7217 3.01189 10.8095 3.084 10.8817L5.15067 12.9483C5.21264 13.0103 5.28623 13.0595 5.36722 13.093C5.44821 13.1265 5.53502 13.1437 5.62267 13.1437C5.64181 13.1438 5.66095 13.1429 5.68 13.141C6.24366 13.0904 6.80047 12.9809 7.34134 12.8143L7.77067 14.817C7.79262 14.9192 7.83829 15.0148 7.90399 15.0961C7.9697 15.1774 8.0536 15.2421 8.14891 15.285C8.24423 15.3279 8.3483 15.3477 8.45271 15.343C8.55713 15.3383 8.65897 15.309 8.75 15.2577L11.3533 13.7897C11.7198 13.567 12.0061 13.2337 12.1709 12.8378C12.3356 12.4419 12.3703 12.0039 12.27 11.587L11.8247 9.74701L12.6493 8.98901C13.7318 8.07883 14.5337 6.88002 14.9616 5.53202C15.3896 4.18402 15.4266 2.74223 15.0673 1.37434ZM2.38134 7.14834L3.41867 5.30834C3.48322 5.18352 3.59305 5.0881 3.72567 5.04162C3.85829 4.99514 4.00365 5.00112 4.132 5.05834L5.27734 5.33567L4.844 5.85034C4.43302 6.34268 4.07754 6.8788 3.784 7.44901L2.38134 7.14834ZM10.6947 12.6297L8.88467 13.651L8.598 12.3143C9.17856 12.0249 9.71945 11.6619 10.2073 11.2343L10.7027 10.779L10.972 11.8883C11.0068 12.0254 10.9989 12.1699 10.9494 12.3024C10.8998 12.4349 10.8109 12.5491 10.6947 12.6297ZM11.7713 7.98634L9.31467 10.2437C8.34244 11.0844 7.14325 11.6189 5.868 11.7797L4.26467 10.177C4.47997 8.89832 5.03253 7.70023 5.86534 6.70634L6.98467 5.37767C7.00327 5.35833 7.02063 5.33785 7.03667 5.31634L7.99334 4.17967C8.7007 3.34426 9.6171 2.71154 10.649 2.34611C11.6808 1.98068 12.7912 1.89564 13.8667 2.09967C14.0756 3.1785 13.9914 4.2936 13.6228 5.32882C13.2543 6.36405 12.6149 7.28219 11.7713 7.98634ZM11.156 3.87701C10.9582 3.87701 10.7649 3.93566 10.6004 4.04554C10.436 4.15542 10.3078 4.3116 10.2321 4.49432C10.1564 4.67705 10.1366 4.87812 10.1752 5.0721C10.2138 5.26608 10.309 5.44426 10.4489 5.58411C10.5887 5.72397 10.7669 5.81921 10.9609 5.85779C11.1549 5.89638 11.356 5.87657 11.5387 5.80089C11.7214 5.7252 11.8776 5.59703 11.9875 5.43258C12.0974 5.26813 12.156 5.07479 12.156 4.87701C12.156 4.61179 12.0506 4.35744 11.8631 4.1699C11.6756 3.98236 11.4212 3.87701 11.156 3.87701Z" fill="#3A89D8"/>
</svg>
