<svg width="16" height="16" viewBox="0 0 16 16" fill="none" xmlns="http://www.w3.org/2000/svg">
<path d="M6.66669 9.33594C6.48988 9.33594 6.32031 9.40618 6.19528 9.5312C6.07026 9.65622 6.00002 9.82579 6.00002 10.0026V14.0026C6.00002 14.1794 6.07026 14.349 6.19528 14.474C6.32031 14.599 6.48988 14.6693 6.66669 14.6693C6.8435 14.6693 7.01307 14.599 7.13809 14.474C7.26312 14.349 7.33335 14.1794 7.33335 14.0026V10.0026C7.33335 9.82579 7.26312 9.65622 7.13809 9.5312C7.01307 9.40618 6.8435 9.33594 6.66669 9.33594ZM3.33335 12.0026C3.15654 12.0026 2.98697 12.0728 2.86195 12.1979C2.73693 12.3229 2.66669 12.4925 2.66669 12.6693V14.0026C2.66669 14.1794 2.73693 14.349 2.86195 14.474C2.98697 14.599 3.15654 14.6693 3.33335 14.6693C3.51016 14.6693 3.67973 14.599 3.80476 14.474C3.92978 14.349 4.00002 14.1794 4.00002 14.0026V12.6693C4.00002 12.4925 3.92978 12.3229 3.80476 12.1979C3.67973 12.0728 3.51016 12.0026 3.33335 12.0026ZM13.3334 1.33594C13.1565 1.33594 12.987 1.40618 12.8619 1.5312C12.7369 1.65622 12.6667 1.82579 12.6667 2.0026V14.0026C12.6667 14.1794 12.7369 14.349 12.8619 14.474C12.987 14.599 13.1565 14.6693 13.3334 14.6693C13.5102 14.6693 13.6797 14.599 13.8048 14.474C13.9298 14.349 14 14.1794 14 14.0026V2.0026C14 1.82579 13.9298 1.65622 13.8048 1.5312C13.6797 1.40618 13.5102 1.33594 13.3334 1.33594ZM10 6.0026C9.82321 6.0026 9.65364 6.07284 9.52862 6.19787C9.40359 6.32289 9.33335 6.49246 9.33335 6.66927V14.0026C9.33335 14.1794 9.40359 14.349 9.52862 14.474C9.65364 14.599 9.82321 14.6693 10 14.6693C10.1768 14.6693 10.3464 14.599 10.4714 14.474C10.5964 14.349 10.6667 14.1794 10.6667 14.0026V6.66927C10.6667 6.49246 10.5964 6.32289 10.4714 6.19787C10.3464 6.07284 10.1768 6.0026 10 6.0026Z" fill="#43576A"/>
</svg>
