<svg width="17" height="16" viewBox="0 0 17 16" fill="none" xmlns="http://www.w3.org/2000/svg">
<g id="uil:signin">
<path id="Vector" d="M13.8346 8.00016C13.8346 7.82335 13.7644 7.65378 13.6394 7.52876C13.5143 7.40373 13.3448 7.3335 13.168 7.3335H8.10797L9.6413 5.80683C9.70346 5.74467 9.75277 5.67088 9.78641 5.58966C9.82005 5.50845 9.83736 5.4214 9.83736 5.3335C9.83736 5.24559 9.82005 5.15854 9.78641 5.07733C9.75277 4.99612 9.70346 4.92232 9.6413 4.86016C9.57914 4.798 9.50535 4.7487 9.42414 4.71506C9.34292 4.68142 9.25588 4.6641 9.16797 4.6641C9.08006 4.6641 8.99302 4.68142 8.9118 4.71506C8.83059 4.7487 8.75679 4.798 8.69464 4.86016L6.02797 7.52683C5.96728 7.59023 5.9197 7.665 5.88797 7.74683C5.82129 7.90914 5.82129 8.09119 5.88797 8.2535C5.9197 8.33533 5.96728 8.41009 6.02797 8.4735L8.69464 11.1402C8.75661 11.2026 8.83034 11.2522 8.91158 11.2861C8.99282 11.3199 9.07996 11.3374 9.16797 11.3374C9.25598 11.3374 9.34311 11.3199 9.42435 11.2861C9.50559 11.2522 9.57933 11.2026 9.6413 11.1402C9.70379 11.0782 9.75338 11.0045 9.78723 10.9232C9.82108 10.842 9.8385 10.7548 9.8385 10.6668C9.8385 10.5788 9.82108 10.4917 9.78723 10.4104C9.75338 10.3292 9.70379 10.2555 9.6413 10.1935L8.10797 8.66683H13.168C13.3448 8.66683 13.5143 8.59659 13.6394 8.47157C13.7644 8.34654 13.8346 8.17697 13.8346 8.00016ZM11.8346 1.3335H5.16797C4.63754 1.3335 4.12883 1.54421 3.75376 1.91928C3.37868 2.29436 3.16797 2.80306 3.16797 3.3335V12.6668C3.16797 13.1973 3.37868 13.706 3.75376 14.081C4.12883 14.4561 4.63754 14.6668 5.16797 14.6668H11.8346C12.3651 14.6668 12.8738 14.4561 13.2488 14.081C13.6239 13.706 13.8346 13.1973 13.8346 12.6668V10.6668C13.8346 10.49 13.7644 10.3204 13.6394 10.1954C13.5143 10.0704 13.3448 10.0002 13.168 10.0002C12.9912 10.0002 12.8216 10.0704 12.6966 10.1954C12.5715 10.3204 12.5013 10.49 12.5013 10.6668V12.6668C12.5013 12.8436 12.4311 13.0132 12.306 13.1382C12.181 13.2633 12.0114 13.3335 11.8346 13.3335H5.16797C4.99116 13.3335 4.82159 13.2633 4.69656 13.1382C4.57154 13.0132 4.5013 12.8436 4.5013 12.6668V3.3335C4.5013 3.15669 4.57154 2.98712 4.69656 2.86209C4.82159 2.73707 4.99116 2.66683 5.16797 2.66683H11.8346C12.0114 2.66683 12.181 2.73707 12.306 2.86209C12.4311 2.98712 12.5013 3.15669 12.5013 3.3335V5.3335C12.5013 5.51031 12.5715 5.67988 12.6966 5.8049C12.8216 5.92992 12.9912 6.00016 13.168 6.00016C13.3448 6.00016 13.5143 5.92992 13.6394 5.8049C13.7644 5.67988 13.8346 5.51031 13.8346 5.3335V3.3335C13.8346 2.80306 13.6239 2.29436 13.2488 1.91928C12.8738 1.54421 12.3651 1.3335 11.8346 1.3335Z" fill="white"/>
</g>
</svg>
