<svg width="14" height="14" viewBox="0 0 14 14" fill="none" xmlns="http://www.w3.org/2000/svg">
<path d="M8.66667 4H4.66667C4.48986 4 4.32029 4.07024 4.19527 4.19526C4.07024 4.32029 4 4.48986 4 4.66667V8.66667C4 8.84348 4.07024 9.01305 4.19527 9.13807C4.32029 9.26309 4.48986 9.33333 4.66667 9.33333H8.66667C8.84348 9.33333 9.01305 9.26309 9.13807 9.13807C9.2631 9.01305 9.33334 8.84348 9.33334 8.66667V4.66667C9.33334 4.48986 9.2631 4.32029 9.13807 4.19526C9.01305 4.07024 8.84348 4 8.66667 4ZM8 8H5.33334V5.33333H8V8ZM6.66667 0C5.34813 0 4.0592 0.390993 2.96287 1.12354C1.86654 1.85608 1.01206 2.89727 0.507473 4.11544C0.00288856 5.33362 -0.129134 6.67406 0.128101 7.96727C0.385336 9.26047 1.02027 10.4484 1.95262 11.3807C2.88497 12.3131 4.07286 12.948 5.36607 13.2052C6.65927 13.4625 7.99972 13.3304 9.21789 12.8259C10.4361 12.3213 11.4773 11.4668 12.2098 10.3705C12.9423 9.27414 13.3333 7.98521 13.3333 6.66667C13.3333 5.79119 13.1609 4.92428 12.8259 4.11544C12.4908 3.30661 11.9998 2.57168 11.3807 1.95262C10.7617 1.33356 10.0267 0.842501 9.21789 0.50747C8.40906 0.172438 7.54215 0 6.66667 0ZM6.66667 12C5.61184 12 4.58069 11.6872 3.70363 11.1012C2.82657 10.5151 2.14298 9.68218 1.73931 8.70764C1.33565 7.73311 1.23003 6.66075 1.43582 5.62618C1.6416 4.59162 2.14955 3.64131 2.89543 2.89543C3.64131 2.14955 4.59162 1.6416 5.62619 1.43581C6.66075 1.23002 7.73311 1.33564 8.70765 1.73931C9.68219 2.14298 10.5151 2.82656 11.1012 3.70363C11.6872 4.58069 12 5.61183 12 6.66667C12 8.08115 11.4381 9.43771 10.4379 10.4379C9.43771 11.4381 8.08116 12 6.66667 12Z" fill="#43576A"/>
</svg>
