<svg width="24" height="24" viewBox="0 0 24 24" fill="none" xmlns="http://www.w3.org/2000/svg">
  <path d="M12 2C6.48 2 2 6.48 2 12s4.48 10 10 10 10-4.48 10-10S17.52 2 12 2zm4.64 6.8c-.15 1.58-.8 5.42-1.13 7.19-.14.75-.42 1-.69 1.02-.59.05-1.04-.39-1.62-.76-.9-.59-1.41-.96-2.28-1.54-1-.62-.35-.96.22-1.52.15-.15 2.71-2.48 2.76-2.69.01-.03.01-.14-.06-.2-.07-.06-.17-.04-.24-.02-.1.02-1.79 1.14-5.06 3.35-.48.33-.92.49-1.31.48-.43-.01-1.26-.24-1.88-.44-.76-.24-1.36-.37-1.31-.78.03-.24.29-.48.8-.74 3.31-1.44 5.52-2.4 6.63-2.88 3.05-1.32 3.68-1.55 4.09-1.55.09 0 .29.02.42.12.13.09.17.21.19.42-.01.12-.01.78-.01 1.23z" fill="currentColor"/>
</svg>
