<svg width="16" height="16" viewBox="0 0 16 16" fill="none" xmlns="http://www.w3.org/2000/svg">
<path d="M12.1994 5.72666L12.806 5.12666C12.9316 5.00112 13.0021 4.83086 13.0021 4.65332C13.0021 4.47579 12.9316 4.30553 12.806 4.17999C12.6805 4.05445 12.5102 3.98393 12.3327 3.98393C12.1552 3.98393 11.9849 4.05445 11.8594 4.17999L11.2594 4.78666C10.3251 4.06389 9.17726 3.67175 7.99603 3.67175C6.8148 3.67175 5.667 4.06389 4.7327 4.78666L4.12603 4.17332C3.99961 4.04779 3.8285 3.97761 3.65034 3.97824C3.47218 3.97886 3.30157 4.05024 3.17603 4.17666C3.0505 4.30308 2.98032 4.47419 2.98095 4.65235C2.98157 4.83051 3.05295 5.00112 3.17937 5.12666L3.7927 5.73332C3.06138 6.66502 2.66456 7.81555 2.66603 8.99999C2.66386 9.85027 2.86501 10.6888 3.25272 11.4455C3.64042 12.2022 4.20344 12.8553 4.89483 13.3503C5.58621 13.8452 6.38591 14.1677 7.22724 14.2908C8.06857 14.4139 8.92713 14.334 9.73133 14.0579C10.5355 13.7818 11.2621 13.3174 11.8503 12.7034C12.4386 12.0895 12.8715 11.3438 13.113 10.5285C13.3545 9.71324 13.3976 8.85205 13.2387 8.01675C13.0798 7.18145 12.7234 6.39626 12.1994 5.72666ZM7.99937 13C7.20824 13 6.43488 12.7654 5.77709 12.3259C5.11929 11.8863 4.6066 11.2616 4.30385 10.5307C4.0011 9.79982 3.92188 8.99555 4.07623 8.21963C4.23057 7.4437 4.61153 6.73097 5.17094 6.17156C5.73035 5.61215 6.44308 5.23119 7.21901 5.07685C7.99493 4.92251 8.7992 5.00172 9.5301 5.30447C10.261 5.60722 10.8857 6.11991 11.3252 6.77771C11.7648 7.43551 11.9994 8.20886 11.9994 8.99999C11.9994 10.0609 11.5779 11.0783 10.8278 11.8284C10.0776 12.5786 9.06023 13 7.99937 13ZM6.66603 2.99999H9.3327C9.50951 2.99999 9.67908 2.92975 9.8041 2.80473C9.92913 2.6797 9.99937 2.51013 9.99937 2.33332C9.99937 2.15651 9.92913 1.98694 9.8041 1.86192C9.67908 1.73689 9.50951 1.66666 9.3327 1.66666H6.66603C6.48922 1.66666 6.31965 1.73689 6.19463 1.86192C6.0696 1.98694 5.99937 2.15651 5.99937 2.33332C5.99937 2.51013 6.0696 2.6797 6.19463 2.80473C6.31965 2.92975 6.48922 2.99999 6.66603 2.99999ZM8.66603 6.99999C8.66603 6.82318 8.5958 6.65361 8.47077 6.52859C8.34575 6.40356 8.17618 6.33332 7.99937 6.33332C7.82256 6.33332 7.65299 6.40356 7.52796 6.52859C7.40294 6.65361 7.3327 6.82318 7.3327 6.99999V8.25999C7.18175 8.39501 7.07535 8.57268 7.02758 8.76949C6.97981 8.9663 6.99293 9.17298 7.06519 9.36217C7.13746 9.55136 7.26547 9.71415 7.43228 9.829C7.59909 9.94385 7.79684 10.0053 7.99937 10.0053C8.20189 10.0053 8.39964 9.94385 8.56646 9.829C8.73327 9.71415 8.86127 9.55136 8.93354 9.36217C9.0058 9.17298 9.01892 8.9663 8.97115 8.76949C8.92339 8.57268 8.81699 8.39501 8.66603 8.25999V6.99999Z" fill="#3A89D8"/>
</svg>
