<svg width="1200" height="630" viewBox="0 0 1200 630" fill="none" xmlns="http://www.w3.org/2000/svg">
<g clip-path="url(#clip0_2617_36803)">
<rect width="1200" height="630" fill="#3A89D8"/>
<path d="M600 533.182C720.49 533.182 818.182 435.503 818.182 315C818.182 194.497 720.49 96.8182 600 96.8182C479.51 96.8182 381.818 194.497 381.818 315C381.818 435.503 479.51 533.182 600 533.182Z" fill="white" fill-opacity="0.04"/>
<path fill-rule="evenodd" clip-rule="evenodd" d="M1200 315C1200 646.374 931.321 915 600 915C268.679 915 0 646.374 0 315C0 -16.3743 268.679 -285 600 -285C931.321 -285 1200 -16.3743 1200 315ZM1036.36 315C1036.36 555.993 840.98 751.364 600 751.364C359.02 751.364 163.636 555.993 163.636 315C163.636 74.0066 359.02 -121.364 600 -121.364C840.98 -121.364 1036.36 74.0066 1036.36 315Z" fill="white" fill-opacity="0.04"/>
</g>
<defs>
<clipPath id="clip0_2617_36803">
<rect width="1200" height="630" fill="white"/>
</clipPath>
</defs>
</svg>
