<svg width="72" height="60" viewBox="0 0 72 60" fill="none" xmlns="http://www.w3.org/2000/svg">
<path d="M26.4004 7.2002C34.9651 7.20032 42.5768 11.2811 47.4004 17.6035L41.0947 21.2432C37.5727 17.0592 32.297 14.4005 26.4004 14.4004C15.7974 14.4004 7.20041 22.9961 7.2002 33.5996C7.2002 44.2033 15.7973 52.7998 26.4004 52.7998C37.0033 52.7996 45.5996 44.2032 45.5996 33.5996C45.5996 30.6181 44.9189 27.7959 43.7061 25.2783L49.9551 21.6699C51.7737 25.2531 52.7997 29.3064 52.7998 33.5996C52.7998 48.1799 40.9783 59.9998 26.4004 60C11.8223 60 0 48.1801 0 33.5996C0.000210204 19.0193 11.8224 7.2002 26.4004 7.2002ZM26.4004 24C28.7228 24.0001 30.8523 24.8255 32.5127 26.1982L26.0781 29.9141C24.9305 30.5769 24.5375 32.0446 25.2002 33.1924C25.863 34.3402 27.3307 34.733 28.4785 34.0703L35.3408 30.1074C35.7641 31.1901 36 32.367 36 33.5996C36 38.9016 31.7018 43.2 26.4004 43.2002C21.0988 43.2002 16.7998 38.9018 16.7998 33.5996C16.8 28.2976 21.099 24 26.4004 24Z" fill="white"/>
<path d="M49.2605 22.0704L59.3763 26.3914C59.9552 26.6387 60.6168 26.599 61.162 26.2842L70.6882 20.7842L59.6529 16.0704L49.2605 22.0704Z" fill="white"/>
<path d="M46.8605 17.9135L48.1763 6.99243C48.2516 6.36743 48.6168 5.81437 49.162 5.49961L58.6882 -0.000391197L57.2529 11.9135L46.8605 17.9135Z" fill="white"/>
</svg>
