<svg width="16" height="16" viewBox="0 0 16 16" fill="none" xmlns="http://www.w3.org/2000/svg">
<path d="M13.9133 11.5L12.1066 8.38C12.4763 7.701 12.6689 6.93978 12.6666 6.16667C12.6666 4.92899 12.175 3.742 11.2998 2.86683C10.4246 1.99167 9.23764 1.5 7.99997 1.5C6.76229 1.5 5.57531 1.99167 4.70014 2.86683C3.82497 3.742 3.3333 4.92899 3.3333 6.16667C3.331 6.93978 3.5236 7.701 3.8933 8.38L2.08663 11.5C2.02801 11.6015 1.9972 11.7167 1.99731 11.834C1.99743 11.9512 2.02847 12.0664 2.08729 12.1678C2.14612 12.2692 2.23066 12.3534 2.33237 12.4117C2.43409 12.47 2.54939 12.5005 2.66663 12.5H4.57997L5.5533 14.14C5.58611 14.1944 5.62652 14.2437 5.6733 14.2867C5.79689 14.4058 5.96165 14.4726 6.1333 14.4733H6.22663C6.32728 14.4596 6.42345 14.423 6.50779 14.3664C6.59214 14.3097 6.66243 14.2346 6.7133 14.1467L7.99997 11.9333L9.28663 14.1667C9.33825 14.2534 9.40887 14.3272 9.49317 14.3826C9.57747 14.4381 9.67326 14.4736 9.7733 14.4867H9.86663C10.0406 14.4877 10.2081 14.4207 10.3333 14.3C10.3781 14.2595 10.4164 14.2123 10.4466 14.16L11.42 12.52H13.3333C13.4508 12.5205 13.5663 12.4899 13.6681 12.4313C13.77 12.3728 13.8546 12.2884 13.9133 12.1867C13.9756 12.083 14.0085 11.9643 14.0085 11.8433C14.0085 11.7224 13.9756 11.6037 13.9133 11.5ZM6.12663 12.52L5.5333 11.5267C5.47488 11.4281 5.39204 11.3463 5.29278 11.2891C5.19353 11.2318 5.0812 11.2012 4.96663 11.2H3.8133L4.76663 9.54667C5.42312 10.1793 6.25051 10.6057 7.14663 10.7733L6.12663 12.52ZM7.99997 9.5C7.3407 9.5 6.69623 9.3045 6.14807 8.93823C5.5999 8.57196 5.17266 8.05136 4.92037 7.44228C4.66808 6.83319 4.60207 6.16297 4.73068 5.51637C4.8593 4.86976 5.17677 4.27582 5.64294 3.80964C6.10912 3.34347 6.70306 3.026 7.34967 2.89738C7.99627 2.76877 8.66649 2.83478 9.27558 3.08707C9.88467 3.33936 10.4053 3.7666 10.7715 4.31477C11.1378 4.86293 11.3333 5.5074 11.3333 6.16667C11.3333 7.05072 10.9821 7.89857 10.357 8.52369C9.73187 9.14881 8.88402 9.5 7.99997 9.5ZM11.0333 11.2C10.9187 11.2012 10.8064 11.2318 10.7072 11.2891C10.6079 11.3463 10.5251 11.4281 10.4666 11.5267L9.8733 12.52L8.85997 10.7533C9.75295 10.5823 10.5773 10.1562 11.2333 9.52667L12.1866 11.18L11.0333 11.2Z" fill="#F9C718"/>
</svg>
