<svg width="88" height="27" viewBox="0 0 88 27" fill="currentColor" xmlns="http://www.w3.org/2000/svg">
<path d="M6.944 3.2C11.84 3.2 15.536 6.824 15.536 11.6C15.536 16.376 11.84 20 6.944 20H0.68V3.2H6.944ZM6.944 16.112C9.608 16.112 11.456 14.264 11.456 11.6C11.456 8.912 9.608 7.088 6.944 7.088H4.76V16.112H6.944ZM24.4044 6.488C28.7724 6.488 31.6284 9.92 31.2204 14.264H21.5964C21.7884 16.304 23.0844 17.168 24.5004 17.168C25.6044 17.168 26.5164 16.64 26.8284 15.68H31.0284C30.1164 18.944 27.3564 20.312 24.5004 20.312C20.2764 20.312 17.4444 17.312 17.4444 13.4C17.4444 9.488 20.3004 6.488 24.4044 6.488ZM24.3804 9.632C22.9164 9.632 22.0524 10.52 21.7164 11.792H26.9724C26.7084 10.52 25.8444 9.632 24.3804 9.632ZM33.2 20V1.52H37.28V20H33.2ZM49.6768 15.872L50.3728 19.16C49.6288 19.688 47.9008 20.312 46.2448 20.312C43.7008 20.312 41.2048 18.824 41.2048 14.888V10.64H38.9488V6.8H41.2048V4.088L45.2848 3.2V6.8H49.7248V10.64H45.2848V14.648C45.2848 15.92 45.9328 16.52 46.9648 16.52C47.6848 16.52 48.5488 16.232 49.6768 15.872ZM54.4588 0.559999C55.8988 0.559999 56.9308 1.544 56.9308 2.888C56.9308 4.256 55.8988 5.24 54.4588 5.24C53.0668 5.24 51.9868 4.256 51.9868 2.888C51.9868 1.544 53.0668 0.559999 54.4588 0.559999ZM52.4188 20V6.8H56.4988V20H52.4188ZM66.7835 6.488C69.7595 6.488 71.5595 8.528 71.5595 11.744V20H67.4795V12.656C67.4795 11.216 67.0475 10.376 65.3915 10.376C63.7835 10.376 62.9675 11.168 62.9675 12.992V20H58.8875V6.8H62.9675V8.288C63.9275 7.112 65.1515 6.488 66.7835 6.488ZM83.2966 6.8H87.3766V19.808C87.3766 23.72 84.7606 26.312 80.7286 26.312C77.5126 26.312 74.3686 24.728 73.9366 21.08H78.1366C78.4486 22.4 79.5046 22.688 80.6086 22.688C82.3846 22.688 83.2966 21.848 83.2966 19.952V18.344C82.4326 19.376 81.2326 20.072 79.5526 20.072C76.1926 20.072 73.6006 17.24 73.6006 13.28C73.6006 9.296 76.2406 6.488 79.5526 6.488C81.2086 6.488 82.4566 7.208 83.2966 8.264V6.8ZM80.5126 16.184C82.0966 16.184 83.2966 15.008 83.2966 13.28C83.2966 11.576 82.0966 10.376 80.5126 10.376C78.9286 10.376 77.7286 11.576 77.7286 13.28C77.7286 15.008 78.9526 16.184 80.5126 16.184Z" fill="white"/>
</svg>
