<svg width="16" height="16" viewBox="0 0 16 16" fill="none" xmlns="http://www.w3.org/2000/svg">
<g id="uil:arrow-to-bottom">
<path id="Vector" d="M12.6666 13.3333H3.33329C3.15648 13.3333 2.98691 13.4036 2.86189 13.5286C2.73686 13.6536 2.66663 13.8232 2.66663 14C2.66663 14.1768 2.73686 14.3464 2.86189 14.4714C2.98691 14.5964 3.15648 14.6667 3.33329 14.6667H12.6666C12.8434 14.6667 13.013 14.5964 13.138 14.4714C13.2631 14.3464 13.3333 14.1768 13.3333 14C13.3333 13.8232 13.2631 13.6536 13.138 13.5286C13.013 13.4036 12.8434 13.3333 12.6666 13.3333ZM7.52663 11.8067C7.59003 11.8674 7.66479 11.9149 7.74663 11.9467C7.82643 11.9819 7.91271 12.0002 7.99996 12.0002C8.08721 12.0002 8.17349 11.9819 8.25329 11.9467C8.33513 11.9149 8.40989 11.8674 8.47329 11.8067L11.14 9.14C11.2655 9.01446 11.336 8.8442 11.336 8.66667C11.336 8.48913 11.2655 8.31887 11.14 8.19333C11.0144 8.0678 10.8442 7.99727 10.6666 7.99727C10.4891 7.99727 10.3188 8.0678 10.1933 8.19333L8.66663 9.72667V2C8.66663 1.82319 8.59639 1.65362 8.47136 1.5286C8.34634 1.40357 8.17677 1.33333 7.99996 1.33333C7.82315 1.33333 7.65358 1.40357 7.52855 1.5286C7.40353 1.65362 7.33329 1.82319 7.33329 2V9.72667L5.80663 8.19333C5.74447 8.13117 5.67067 8.08187 5.58946 8.04823C5.50824 8.01459 5.4212 7.99727 5.33329 7.99727C5.24539 7.99727 5.15834 8.01459 5.07713 8.04823C4.99591 8.08187 4.92212 8.13117 4.85996 8.19333C4.7978 8.25549 4.74849 8.32929 4.71485 8.4105C4.68121 8.49172 4.6639 8.57876 4.6639 8.66667C4.6639 8.75457 4.68121 8.84162 4.71485 8.92283C4.74849 9.00405 4.7978 9.07784 4.85996 9.14L7.52663 11.8067Z" fill="#43576A"/>
</g>
</svg>
