<svg width="16" height="16" viewBox="0 0 16 16" fill="none" xmlns="http://www.w3.org/2000/svg">
<g id="uil:chart-down">
<path id="Vector" d="M14.0004 7.33313C13.8236 7.33313 13.6541 7.40337 13.529 7.52839C13.404 7.65342 13.3338 7.82299 13.3338 7.9998V9.72646L9.14045 5.52646C9.07847 5.46398 9.00474 5.41438 8.9235 5.38054C8.84226 5.34669 8.75512 5.32927 8.66712 5.32927C8.57911 5.32927 8.49197 5.34669 8.41073 5.38054C8.32949 5.41438 8.25576 5.46398 8.19378 5.52646L6.00045 7.72646L2.47378 4.19313C2.34825 4.0676 2.17798 3.99707 2.00045 3.99707C1.82291 3.99707 1.65265 4.0676 1.52712 4.19313C1.40158 4.31867 1.33105 4.48893 1.33105 4.66646C1.33105 4.844 1.40158 5.01426 1.52712 5.1398L5.52712 9.1398C5.58909 9.20228 5.66283 9.25188 5.74406 9.28573C5.8253 9.31957 5.91244 9.337 6.00045 9.337C6.08846 9.337 6.17559 9.31957 6.25683 9.28573C6.33807 9.25188 6.41181 9.20228 6.47378 9.1398L8.66712 6.9398L12.3938 10.6665H10.6671C10.4903 10.6665 10.3207 10.7367 10.1957 10.8617C10.0707 10.9868 10.0004 11.1563 10.0004 11.3331C10.0004 11.5099 10.0707 11.6795 10.1957 11.8045C10.3207 11.9296 10.4903 11.9998 10.6671 11.9998H14.0004C14.0876 11.9987 14.1736 11.9806 14.2538 11.9465C14.4167 11.8788 14.5461 11.7494 14.6138 11.5865C14.6479 11.5063 14.6661 11.4202 14.6671 11.3331V7.9998C14.6671 7.82299 14.5969 7.65342 14.4719 7.52839C14.3468 7.40337 14.1773 7.33313 14.0004 7.33313Z" fill="#039824"/>
</g>
</svg>
