<svg width="16" height="16" viewBox="0 0 16 16" fill="none" xmlns="http://www.w3.org/2000/svg">
<g id="uil:rocket" clip-path="url(#clip0_424_381)">
<path id="Vector" d="M15.0655 1.37483C15.0355 1.26059 14.9757 1.15638 14.8921 1.07286C14.8086 0.989345 14.7044 0.929514 14.5902 0.899494C13.2227 0.54439 11.7827 0.582696 10.436 1.01C9.08936 1.43731 7.89074 2.23625 6.97817 3.31483L6.23417 4.19749L4.49817 3.77883C4.07601 3.63153 3.6148 3.64199 3.19975 3.80828C2.78469 3.97457 2.44385 4.28545 2.24017 4.68349L0.773505 7.28349C0.722154 7.37453 0.692928 7.47637 0.688186 7.58079C0.683445 7.6852 0.703322 7.78927 0.746211 7.88458C0.789101 7.9799 0.853802 8.0638 0.935091 8.1295C1.01638 8.19521 1.11198 8.24088 1.21417 8.26283L3.26284 8.70216C3.08935 9.23038 2.96549 9.77362 2.89284 10.3248C2.87964 10.426 2.88984 10.5289 2.92266 10.6255C2.95549 10.7221 3.01006 10.81 3.08217 10.8822L5.14884 12.9488C5.21081 13.0108 5.2844 13.06 5.36539 13.0935C5.44638 13.127 5.53319 13.1442 5.62084 13.1442C5.63998 13.1443 5.65912 13.1434 5.67817 13.1415C6.24183 13.0908 6.79864 12.9814 7.33951 12.8148L7.76884 14.8175C7.79079 14.9197 7.83646 15.0153 7.90216 15.0966C7.96787 15.1779 8.05176 15.2426 8.14708 15.2855C8.2424 15.3283 8.34647 15.3482 8.45088 15.3435C8.5553 15.3387 8.65713 15.3095 8.74817 15.2582L11.3515 13.7902C11.718 13.5675 12.0043 13.2342 12.169 12.8383C12.3338 12.4424 12.3685 12.0044 12.2682 11.5875L11.8228 9.74749L12.6475 8.98949C13.73 8.07932 14.5319 6.88051 14.9598 5.53251C15.3877 4.18451 15.4248 2.74272 15.0655 1.37483ZM2.37951 7.14883L3.41684 5.30883C3.48139 5.18401 3.59122 5.08859 3.72384 5.04211C3.85645 4.99563 4.00182 5.00161 4.13017 5.05883L5.27551 5.33616L4.84217 5.85083C4.43119 6.34316 4.07571 6.87929 3.78217 7.44949L2.37951 7.14883ZM10.6928 12.6302L8.88284 13.6515L8.59617 12.3148C9.17673 12.0254 9.71762 11.6624 10.2055 11.2348L10.7008 10.7795L10.9702 11.8888C11.005 12.0259 10.9971 12.1704 10.9476 12.3029C10.898 12.4354 10.8091 12.5496 10.6928 12.6302ZM11.7695 7.98683L9.31284 10.2442C8.34061 11.0849 7.14142 11.6194 5.86617 11.7802L4.26284 10.1775C4.47814 8.89881 5.0307 7.70072 5.86351 6.70683L6.98284 5.37816C7.00144 5.35882 7.0188 5.33834 7.03484 5.31683L7.99151 4.18016C8.69887 3.34475 9.61527 2.71202 10.6471 2.3466C11.679 1.98117 12.7894 1.89613 13.8648 2.10016C14.0737 3.17899 13.9895 4.29409 13.621 5.32931C13.2525 6.36453 12.6131 7.28267 11.7695 7.98683ZM11.1542 3.87749C10.9564 3.87749 10.7631 3.93614 10.5986 4.04602C10.4342 4.15591 10.306 4.31208 10.2303 4.49481C10.1546 4.67754 10.1348 4.8786 10.1734 5.07258C10.212 5.26657 10.3072 5.44475 10.4471 5.5846C10.5869 5.72445 10.7651 5.81969 10.9591 5.85828C11.1531 5.89686 11.3541 5.87706 11.5369 5.80137C11.7196 5.72569 11.8758 5.59751 11.9856 5.43306C12.0955 5.26862 12.1542 5.07528 12.1542 4.87749C12.1542 4.61228 12.0488 4.35792 11.8613 4.17039C11.6737 3.98285 11.4194 3.87749 11.1542 3.87749Z" fill="white"/>
</g>
<defs>
<clipPath id="clip0_424_381">
<rect width="16" height="16" fill="white"/>
</clipPath>
</defs>
</svg>
