<svg width="24" height="24" viewBox="0 0 24 24" fill="none" xmlns="http://www.w3.org/2000/svg">
<path d="M20.16 5.00001C19.1 3.93722 17.6948 3.28855 16.1984 3.17118C14.7019 3.05381 13.2128 3.47548 12 4.36001C10.7277 3.41365 9.14402 2.98452 7.56795 3.15905C5.99188 3.33358 4.54047 4.09879 3.506 5.3006C2.47154 6.5024 1.93085 8.05153 1.99283 9.63603C2.05481 11.2205 2.71485 12.7227 3.84003 13.84L10.05 20.06C10.57 20.5718 11.2704 20.8586 12 20.8586C12.7296 20.8586 13.43 20.5718 13.95 20.06L20.16 13.84C21.3276 12.6653 21.983 11.0763 21.983 9.42001C21.983 7.76374 21.3276 6.17475 20.16 5.00001Z" fill="#384149"/>
</svg>
