<svg width="16" height="16" viewBox="0 0 16 16" fill="none" xmlns="http://www.w3.org/2000/svg">
<path d="M14.6667 6.44579C14.6246 6.32385 14.548 6.21674 14.4462 6.13745C14.3445 6.05817 14.2219 6.01012 14.0933 5.99912L10.3 5.44579L8.60001 1.99912C8.54541 1.88641 8.46018 1.79135 8.35406 1.72484C8.24795 1.65832 8.12524 1.62305 8.00001 1.62305C7.87477 1.62305 7.75206 1.65832 7.64595 1.72484C7.53983 1.79135 7.4546 1.88641 7.40001 1.99912L5.70001 5.43912L1.90667 5.99912C1.78329 6.01666 1.66729 6.06843 1.57184 6.14856C1.47639 6.22869 1.40531 6.33397 1.36667 6.45245C1.3313 6.56824 1.32813 6.69147 1.35749 6.80892C1.38685 6.92637 1.44764 7.0336 1.53334 7.11912L4.28667 9.78579L3.62001 13.5725C3.59621 13.6974 3.60867 13.8266 3.65592 13.9448C3.70317 14.0629 3.78324 14.165 3.88667 14.2391C3.98748 14.3112 4.10639 14.3537 4.23004 14.362C4.35369 14.3702 4.47719 14.3438 4.58667 14.2858L8.00001 12.5058L11.4 14.2925C11.4936 14.3452 11.5992 14.3728 11.7067 14.3725C11.8479 14.373 11.9856 14.3286 12.1 14.2458C12.2034 14.1717 12.2835 14.0696 12.3308 13.9514C12.378 13.8333 12.3905 13.7041 12.3667 13.5791L11.7 9.79245L14.4533 7.12579C14.5496 7.04424 14.6207 6.93706 14.6585 6.81669C14.6963 6.69632 14.6991 6.5677 14.6667 6.44579ZM10.5667 9.11245C10.4885 9.18808 10.43 9.28168 10.3963 9.3851C10.3626 9.48852 10.3547 9.59862 10.3733 9.70579L10.8533 12.4991L8.34667 11.1658C8.25022 11.1144 8.14262 11.0876 8.03334 11.0876C7.92406 11.0876 7.81646 11.1144 7.72001 11.1658L5.21334 12.4991L5.69334 9.70579C5.71196 9.59862 5.70408 9.48852 5.67038 9.3851C5.63668 9.28168 5.57819 9.18808 5.50001 9.11245L3.50001 7.11245L6.30667 6.70579C6.41467 6.69076 6.51734 6.64948 6.60567 6.58556C6.69401 6.52163 6.76531 6.43701 6.81334 6.33912L8.00001 3.79912L9.25334 6.34579C9.30137 6.44368 9.37267 6.5283 9.46101 6.59222C9.54934 6.65615 9.65201 6.69743 9.76001 6.71245L12.5667 7.11912L10.5667 9.11245Z" fill="#F79009"/>
</svg>
