<svg xmlns="http://www.w3.org/2000/svg" enable-background="new 0 0 40 40" viewBox="0 0 512 512" id="achive">
  <g>
		<path fill="#F79009" d="M440.092,110.881v290.237c0,11.73-9.509,21.239-21.239,21.239H93.146
		c-11.73,0-21.239-9.509-21.239-21.239V110.881c0-11.73,9.509-21.239,21.239-21.239h325.707
		C430.583,89.643,440.092,99.152,440.092,110.881z"></path>
		<path fill="#FCA907" d="M100.226,394.039V132.121c0-7.82,6.339-14.159,14.159-14.159h283.229
		c7.82,0,14.159,6.339,14.159,14.159v261.918H100.226z"></path>
		<path fill="#ededed" d="M383.912,156.751v193.802H128.087V156.751c0-7.82,6.339-14.159,14.159-14.159h227.507
		C377.573,142.592,383.912,148.931,383.912,156.751z"></path>
		<path fill="#F79009" d="M71.908,245.983v155.136c0,11.73,9.509,21.239,21.239,21.239h325.707
		c11.73,0,21.239-9.509,21.239-21.239V245.983c0-11.73-9.509-21.239-21.239-21.239H93.147
		C81.417,224.744,71.908,234.253,71.908,245.983z"></path>
		<path fill="#3A89D8" d="M175.576,358.427c-7.681,0-14.155-5.24-16.007-12.319h-0.461l-0.046-3.241
		c-0.016-0.302-0.024-0.604-0.024-0.909c0-0.129,0-36.813,0-36.813c0-9.082,7.388-16.47,16.469-16.47s16.469,7.388,16.469,16.47
		v20.344h128.193v-20.344c0-9.082,7.356-16.47,16.398-16.47c9.081,0,16.469,7.388,16.469,16.47v40.963h-0.53
		c-1.843,7.079-8.291,12.319-15.939,12.319H175.576z"></path>
		<path fill="#43576A" d="M418.854,85.893H93.146c-13.778,0-24.988,11.21-24.988,24.989v135.101v155.135
		c0,13.779,11.21,24.989,24.988,24.989h325.708c13.778,0,24.988-11.21,24.988-24.989V245.983V110.882
		C443.842,97.102,432.632,85.893,418.854,85.893z M93.146,93.393h325.708c9.642,0,17.488,7.845,17.488,17.489v117.282
		c-4.511-4.428-10.683-7.17-17.488-7.17h-3.331v-88.873c0-9.875-8.033-17.909-17.909-17.909H114.385
		c-9.875,0-17.909,8.033-17.909,17.909v88.873h-3.33c-6.805,0-12.977,2.742-17.488,7.17V110.882
		C75.658,101.238,83.504,93.393,93.146,93.393z M380.163,220.994H131.836v-64.243c0-5.74,4.67-10.409,10.41-10.409h227.507
		c5.74,0,10.409,4.669,10.409,10.409V220.994z M369.754,138.842H142.246c-9.875,0-17.91,8.033-17.91,17.909v64.243h-20.36v-88.873
		c0-5.74,4.669-10.409,10.409-10.409h283.229c5.74,0,10.409,4.669,10.409,10.409v88.873h-20.36v-64.243
		C387.663,146.875,379.629,138.842,369.754,138.842z M436.342,401.118c0,9.644-7.845,17.489-17.488,17.489H93.146
		c-9.642,0-17.488-7.845-17.488-17.489V245.983c0-9.644,7.845-17.489,17.488-17.489h325.708c9.642,0,17.488,7.845,17.488,17.489
		V401.118z"></path>
		<path fill="#43576A" d="M336.565 284.925c-11.11 0-20.148 9.071-20.148 20.22v16.594H195.724v-16.594c0-11.149-9.07-20.22-20.219-20.22s-20.219 9.071-20.219 20.22c.007 4.194-.026-15.193.071 41.017.044 3.07 6.587 16.016 20.219 16.016h160.989c12.269 0 20.219-11.929 20.219-16.069v-40.963C356.784 293.996 347.714 284.925 336.565 284.925zM348.875 345.163c-1.459 5.602-6.521 9.514-12.31 9.514H175.576c-5.823 0-10.913-3.914-12.379-9.518-.87-3.328-.106-2.948-.41-40.015 0-7.014 5.706-12.72 12.719-12.72s12.719 5.706 12.719 12.72v20.344c0 2.072 1.678 3.75 3.75 3.75h128.193c2.072 0 3.75-1.678 3.75-3.75v-20.344c0-7.014 5.674-12.72 12.648-12.72 7.013 0 12.719 5.706 12.719 12.72C349.113 326.432 349.607 342.362 348.875 345.163zM338.269 182.738h-164.54c-2.072 0-3.75 1.678-3.75 3.75s1.678 3.75 3.75 3.75h164.54c2.072 0 3.75-1.678 3.75-3.75S340.341 182.738 338.269 182.738z"></path>
  </g>
</svg>
