<svg xmlns="http://www.w3.org/2000/svg" width="40" height="40" viewBox="0 0 512 512" id="books">
  <g>
    <path fill="#F79009" d="M55.848,280.171l400.304,0c4.549,0,8.236,3.687,8.236,8.236v89.399
    c0,4.549-3.687,8.236-8.236,8.236l-400.304,0c-4.549,0-8.236-3.687-8.236-8.236l0-89.399
    C47.612,283.858,51.299,280.171,55.848,280.171z"></path>
    <path fill="#E05A4F" d="M55.848,125.959l400.304,0c4.549,0,8.236,3.687,8.236,8.236v89.399
    c0,4.549-3.687,8.236-8.236,8.236l-400.304,0c-4.549,0-8.236-3.687-8.236-8.236l0-89.399
    C47.612,129.647,51.299,125.959,55.848,125.959z"></path>
    <rect width="43.938" height="105.872" x="355.349" y="280.167" fill="#FFFFFF"></rect>
    <rect width="43.938" height="105.872" x="112.713" y="280.167" fill="#FFFFFF"></rect>
    <rect width="151.309" height="105.872" x="180.346" y="125.959" fill="#FFFFFF"></rect>
    <path fill="#43576A" d="M55.847 390.209h400.306c6.838 0 12.403-5.565 12.403-12.404v-89.398c0-6.839-5.565-12.404-12.403-12.404-34.815-.002-366.451-.001-400.306 0-6.838 0-12.403 5.565-12.403 12.404v89.398C43.444 384.644 49.009 390.209 55.847 390.209zM403.453 284.339h52.699c2.244 0 4.067 1.825 4.067 4.069v89.398c0 2.244-1.823 4.069-4.067 4.069h-52.699V284.339zM359.516 284.339h35.602v97.533h-35.602V284.339zM160.82 284.339h190.36v97.535H160.82V284.339zM116.882 284.339h35.602v97.533h-35.602V284.339zM51.78 288.407c0-2.244 1.823-4.069 4.067-4.069h52.699v97.535H55.847c-2.244 0-4.067-1.825-4.067-4.069V288.407zM55.847 235.998c48.82 0 359.081 0 400.306 0 6.838 0 12.403-5.565 12.403-12.404v-89.399c0-6.839-5.565-12.403-12.403-12.403-42.599 0-381.079 0-400.306 0-6.838 0-12.403 5.564-12.403 12.403v89.399C43.444 230.433 49.009 235.998 55.847 235.998zM335.822 130.127h120.33c2.244 0 4.067 1.825 4.067 4.067v89.399c0 2.244-1.823 4.069-4.067 4.069h-120.33V130.127zM184.513 130.127h142.974v97.535H184.513V130.127zM51.78 134.195c0-2.243 1.823-4.067 4.067-4.067h120.33v97.535H55.847c-2.244 0-4.067-1.825-4.067-4.069V134.195z"></path>
  </g>
</svg>
