<svg xmlns="http://www.w3.org/2000/svg" width='40' height='40' viewBox="0 0 100 100" id="envelope">
  <path fill="#F79009" d="M87 19H23c-4.4 0-8 3.6-8 8v2h-2c-4.4 0-8 3.6-8 8v36c0 4.4 3.6 8 8 8h64c4.4 0 8-3.6 8-8v-2h2c4.4 0 8-3.6 8-8V27c0-4.4-3.6-8-8-8zm-9.1 14L60.4 47.5c-1.3-3.7-4.5-6.3-8.1-6.5-2.7-.2-5.3.8-7.3 2.5-2-1.7-4.6-2.7-7.3-2.5-3.6.2-6.8 2.8-8.1 6.5L12.1 33h65.8zM53.2 58 45 64.5 36.8 58c-3.3-2.7-4.6-5.9-3.6-8.9.7-2.3 2.7-3.9 4.7-4.1h.4c2 0 3.9 1 5.1 2.6.4.5 1 .8 1.6.8s1.2-.3 1.6-.8c1.2-1.7 3.1-2.6 5.1-2.6h.4c2 .1 3.9 1.8 4.7 4.1.9 3-.4 6.2-3.6 8.9zM9 73V37c0-.4.1-.8.2-1.2L29 52.3c.2 1.5.7 2.9 1.4 4.3L9.2 74.2c-.1-.4-.2-.8-.2-1.2zm3.1 4 20.7-17.2c.5.5 1 .9 1.5 1.4l9.4 7.5c.4.3.8.4 1.2.4s.9-.1 1.2-.4l9.5-7.5c.5-.4 1-.9 1.5-1.3L77.9 77H12.1zM81 73c0 .4-.1.8-.2 1.2L59.6 56.5c.8-1.4 1.2-2.8 1.4-4.3l19.8-16.5c.1.4.2.8.2 1.2V73zm10-10c0 2.2-1.8 4-4 4h-2V37c0-4.4-3.6-8-8-8H19v-2c0-2.2 1.8-4 4-4h64c2.2 0 4 1.8 4 4v36z"></path>
</svg>
