<svg xmlns="http://www.w3.org/2000/svg" width='40' height='40' viewBox="0 0 64 64" id="fireworks">
  <path fill="#3A89D8" d="M32,60.06V57.2a2,2,0,0,1,.83.21l4.34,2.18a1.976,1.976,0,0,0,1.68.04l5.3-2.26a1.976,1.976,0,0,1,1.68.04l4.34,2.18a1.976,1.976,0,0,0,1.68.04H52V63H32Z"></path>
  <path fill="#E05A4F" d="M52,52.63v7h-.15a1.976,1.976,0,0,1-1.68-.04l-4.34-2.18a1.976,1.976,0,0,0-1.68-.04l-5.3,2.26a1.976,1.976,0,0,1-1.68-.04l-4.34-2.18A2,2,0,0,0,32,57.2v-7a2,2,0,0,1,.83.21l4.34,2.18a1.976,1.976,0,0,0,1.68.04l5.3-2.26a1.976,1.976,0,0,1,1.68.04l4.34,2.18a1.976,1.976,0,0,0,1.68.04Z"></path>
  <path fill="#3A89D8" d="M52,45.63v7h-.15a1.976,1.976,0,0,1-1.68-.04l-4.34-2.18a1.976,1.976,0,0,0-1.68-.04l-5.3,2.26a1.976,1.976,0,0,1-1.68-.04l-4.34-2.18A2,2,0,0,0,32,50.2v-7a2,2,0,0,1,.83.21l4.34,2.18a1.976,1.976,0,0,0,1.68.04l5.3-2.26a1.976,1.976,0,0,1,1.68.04l4.34,2.18a1.976,1.976,0,0,0,1.68.04Z"></path>
  <path fill="#E05A4F" d="M52,39v6.63h-.15a1.976,1.976,0,0,1-1.68-.04l-4.34-2.18a1.976,1.976,0,0,0-1.68-.04l-5.3,2.26a1.976,1.976,0,0,1-1.68-.04l-4.34-2.18A2,2,0,0,0,32,43.2V39H52Z"></path>
  <circle cx="48" cy="25" r="2" fill="#F79009"></circle>
  <polygon fill="#0DA300" points="34 37.29 34 39 32 39 32 43.2 32 49.06 14 55.94 14 44.94 34 37.29"></polygon>
  <polygon fill="#F79009" points="34 26.29 34 37.29 14 44.94 14 33.94 34 26.29"></polygon>
  <polygon fill="#0DA300" points="34 24 34 26.29 14 33.94 14 24 24 24 34 24"></polygon>
  <polygon fill="#0DA300" points="32 60.06 32 63 24.31 63 32 60.06"></polygon>
  <polygon fill="#F79009" points="32 57.2 32 60.06 24.31 63 14 63 14 55.94 32 49.06 32 50.2 32 57.2"></polygon>
  <circle cx="30" cy="10" r="2" fill="#F79009"></circle>
  <path fill="#384149" d="M30 11a1 1 0 0 1-1-1 1 1 0 0 0-2 0 3 3 0 1 0 3-3 1 1 0 0 0 0 2 1 1 0 0 1 0 2zM18.684 7.052a1 1 0 1 0 .632 1.9 7.17 7.17 0 0 1 3.428.019 1 1 0 0 0 .514-1.933A9.087 9.087 0 0 0 18.684 7.052zM24.4 10.2l-4 3a1 1 0 1 0 1.2 1.6l4-3a1 1 0 1 0-1.2-1.6zM26.9 5.447a1 1 0 0 0-.448-1.342l-4-2a1 1 0 1 0-.894 1.79l4 2A1 1 0 0 0 26.9 5.447zM41.316 7.052a9.125 9.125 0 0 0-4.574-.018 1 1 0 0 0 .514 1.933 7.168 7.168 0 0 1 3.428-.019 1 1 0 1 0 .632-1.9zM39 15a1 1 0 0 0 .6-1.8l-4-3a1 1 0 0 0-1.2 1.6l4 3A1 1 0 0 0 39 15zM37.553 2.105l-4 2a1 1 0 0 0 .894 1.79l4-2a1 1 0 1 0-.894-1.79zM30 6a1 1 0 0 0 1-1V1a1 1 0 0 0-2 0V5A1 1 0 0 0 30 6zM13 24V63a1 1 0 0 0 1 1H52a1 1 0 0 0 1-1V39a1 1 0 0 0-1-1H42.912c-.088-1.68.051-5.549 2.8-8.293a1 1 0 0 0-1.414-1.414C41.034 31.552 40.8 35.934 40.9 38H35V24a1 1 0 0 0-1-1H24.912c-.088-1.68.051-5.549 2.8-8.293a1 1 0 0 0-1.414-1.414C23.034 16.552 22.8 20.934 22.9 23H14A1 1 0 0 0 13 24zM33 51.618l3.722 1.861a3 3 0 0 0 2.525.075l5.294-2.27a1 1 0 0 1 .841.026l4.34 2.169a2.992 2.992 0 0 0 1.278.31v5a.985.985 0 0 1-.382-.1l-4.34-2.169a3 3 0 0 0-2.525-.075l-5.294 2.27a1 1 0 0 1-.841-.026l-4.341-2.169c-.089-.045-.185-.068-.277-.1zm18 .169a1 1 0 0 1-.382-.1l-4.34-2.169a3 3 0 0 0-2.525-.075l-5.294 2.27a1 1 0 0 1-.841-.026l-4.341-2.169c-.089-.045-.185-.068-.277-.1v-4.8l3.722 1.861a3 3 0 0 0 2.525.075l5.294-2.27a1 1 0 0 1 .841.026l4.34 2.169a2.992 2.992 0 0 0 1.278.31zM32 38a1 1 0 0 0-1 1v9.371L15 54.489v-8.86l13.357-5.108a1 1 0 1 0-.714-1.867L15 43.489V34.628l18-6.882V38zM15 56.629l16-6.118v8.86L24.124 62H15zM29.722 62L31 61.512V62zM33 62V58.618l3.722 1.861a3 3 0 0 0 2.525.075l5.294-2.27a1 1 0 0 1 .841.026l4.34 2.169a2.992 2.992 0 0 0 1.278.31V62zM51 40v4.786a.984.984 0 0 1-.382-.1l-4.34-2.169a3 3 0 0 0-2.525-.075l-5.294 2.27a1.008 1.008 0 0 1-.841-.026l-4.341-2.169c-.089-.045-.185-.068-.277-.1V40zM33 25v.606L15 32.488V25zM48 26a1 1 0 0 1-1-1 1 1 0 0 0-2 0 3 3 0 1 0 3-3 1 1 0 0 0 0 2 1 1 0 0 1 0 2z"></path>
  <path fill="#384149" d="M37 24a1 1 0 0 0 .316-.052 7.17 7.17 0 0 1 3.428.019 1 1 0 0 0 .514-1.933 9.1 9.1 0 0 0-4.574.018A1 1 0 0 0 37 24zM39 30a1 1 0 0 0 .6-.2l4-3a1 1 0 1 0-1.2-1.6l-4 3A1 1 0 0 0 39 30zM44.9 20.447a1 1 0 0 0-.448-1.342l-4-2a1 1 0 0 0-.894 1.79l4 2a1 1 0 0 0 1.342-.448zM59 24a1 1 0 0 0 .316-1.948 9.112 9.112 0 0 0-4.574-.018 1 1 0 0 0 .514 1.933 7.168 7.168 0 0 1 3.428-.019A1 1 0 0 0 59 24zM52.2 25.4a1 1 0 0 0 .2 1.4l4 3a1 1 0 1 0 1.2-1.6l-4-3A1 1 0 0 0 52.2 25.4zM55.553 17.105l-4 2a1 1 0 0 0 .894 1.79l4-2a1 1 0 1 0-.894-1.79zM48 21a1 1 0 0 0 1-1V16a1 1 0 0 0-2 0v4A1 1 0 0 0 48 21z"></path>
</svg>
