<svg xmlns="http://www.w3.org/2000/svg" width="40" height="40" viewBox="280 280 1520 1520" id="international-flights">
  <g>
    <g>
      <g>
        <g>
          <g>
            <polygon fill="#E05A4F" points="863.788 661.328 895.878 814.348 856.558 841.508 842.178 813.218 783.188 697.208 740.478 613.208 839.368 544.898"></polygon>
          </g>
          <g>
            <polygon fill="#E05A4F" points="762.508 433.618 663.608 501.918 491.178 312.538 530.508 285.378"></polygon>
          </g>
          <g>
            <path fill="#E05A4F" d="M429.038,577.608l105.23,28.55c-20.79,22.42-37.9,44.8-49.17,63.54
						c-1.86,3.1-3.75,6.2-5.61,9.28l-88.56-56.46L429.038,577.608z"></path>
          </g>
          <g>
            <path fill="#E05A4F" d="M596.708,697.478l-10.44,107.47l-54.66,19.45l-21.24-101.79c3.44-0.63,6.93-1.28,10.41-1.92
						C542.108,716.778,568.738,708.798,596.708,697.478z"></path>
          </g>
          <g>
            <path fill="#F79009" d="M990.278,358.508c21.1,30.55-23.75,98.56-57.48,121.85l-93.43,64.54l-98.89,68.31l-49.4,34.12
						c-29.34,20.27-62.71,37.34-94.37,50.15c-27.97,11.32-54.6,19.3-75.93,23.21c-3.48,0.64-6.97,1.29-10.41,1.92
						c-22.28,4.1-42.7,7.41-48.24,0.71c-4.71-7.07,5.74-25.09,17.36-44.34c1.86-3.08,3.75-6.18,5.61-9.28
						c11.27-18.74,28.38-41.12,49.17-63.54c23.1-24.94,50.75-49.95,79.94-70.11l49.4-34.13l98.9-68.3l93.43-64.54
						C889.658,345.788,969.138,327.908,990.278,358.508z"></path>
          </g>
          <g>
            <path fill="#28abfa" d="M1478.458,1103.588h-249.19c0-70.36-7.25-137.08-20.24-196.9
						C1368.168,941.258,1478.458,1016.428,1478.458,1103.588z"></path>
          </g>
          <g>
            <path fill="#3A89D8" d="M1229.268,1103.588h249.19c0,87.17-110.29,162.34-269.43,196.9
						C1222.018,1240.668,1229.268,1173.948,1229.268,1103.588z"></path>
          </g>
          <g>
            <path fill="#3A89D8" d="M1012.108,637.238c257.56,0,466.35,208.79,466.35,466.35c0-87.16-110.29-162.33-269.43-196.9
						C1174.458,747.538,1099.278,637.238,1012.108,637.238z"></path>
          </g>
          <g>
            <path fill="#28abfa" d="M1478.458,1103.588c0,257.56-208.79,466.36-466.35,466.36c87.17,0,162.35-110.3,196.92-269.46
						C1368.168,1265.928,1478.458,1190.758,1478.458,1103.588z"></path>
          </g>
          <g>
            <path fill="#3A89D8" d="M1229.268,1103.588h-217.17v-217.15h0.01c70.37,0,137.1,7.26,196.92,20.25
						C1222.018,966.508,1229.268,1033.228,1229.268,1103.588z"></path>
          </g>
          <g>
            <path fill="#15A3AD" d="M1012.098,1103.588h217.17c0,70.36-7.25,137.08-20.24,196.9
						c-59.82,13-126.55,20.26-196.92,20.26h-0.01V1103.588z"></path>
          </g>
          <g>
            <path fill="#4798E8" d="M1012.108,637.238c87.17,0,162.35,110.3,196.92,269.45c-59.82-12.99-126.55-20.25-196.92-20.25
						h-0.01v-249.2H1012.108z"></path>
          </g>
          <g>
            <path fill="#4798E8" d="M1209.028,1300.488c-34.57,159.16-109.75,269.46-196.92,269.46h-0.01v-249.2h0.01
						C1082.478,1320.748,1149.208,1313.488,1209.028,1300.488z"></path>
          </g>
          <g>
            <path fill="#15A3AD" d="M1012.098,1320.748v249.2c-87.17-0.01-162.34-110.31-196.91-269.46
						C875.008,1313.488,941.738,1320.748,1012.098,1320.748z"></path>
          </g>
          <g>
            <path fill="#4798E8" d="M1012.098,1103.588v217.16c-70.36,0-137.09-7.26-196.91-20.26
						c-12.99-59.82-20.24-126.54-20.24-196.9H1012.098z"></path>
          </g>
          <g>
            <path fill="#15A3AD" d="M1012.098,886.438v217.15h-217.15c0-70.35,7.26-137.07,20.25-196.9
						C875.018,893.698,941.738,886.438,1012.098,886.438z"></path>
          </g>
          <g>
            <path fill="#3A89D8" d="M1012.098,637.238v249.2c-70.36,0-137.08,7.26-196.9,20.25c7.28-33.51,16.37-64.86,26.98-93.47
						l14.38,28.29l39.32-27.16l-32.09-153.02C910.388,645.698,960.248,637.238,1012.098,637.238z"></path>
          </g>
          <g>
            <path fill="#3A89D8" d="M815.188,1300.488c34.57,159.15,109.74,269.45,196.91,269.46
						c-257.11-0.01-465.63-208.09-466.33-465.04C546.868,1191.518,656.848,1266.108,815.188,1300.488z"></path>
          </g>
          <g>
            <path fill="#15A3AD" d="M783.188,697.208l58.99,116.01c-10.61,28.61-19.7,59.96-26.98,93.47
						c-158.5,34.42-268.55,109.12-269.43,195.83C546.148,928.598,641.748,777.048,783.188,697.208z"></path>
          </g>
          <g>
            <path fill="#3A89D8" d="M815.198,906.688c-12.99,59.83-20.25,126.55-20.25,196.9h-249.19c0-0.36,0-0.71,0.01-1.07
						C546.648,1015.808,656.698,941.108,815.198,906.688z"></path>
          </g>
          <g>
            <path fill="#4798E8" d="M794.948,1103.588c0,70.36,7.25,137.08,20.24,196.9c-158.34-34.38-268.32-108.97-269.42-195.58
						c-0.01-0.44-0.01-0.88-0.01-1.32H794.948z"></path>
          </g>
        </g>
        <g>
          <g>
            <path fill="#43576A" d="M476.007,751.166c-13.205,0-24.532-3.068-32.375-12.555c-0.526-0.636-1.02-1.3-1.478-1.987
						c-13.377-20.08,1.275-44.352,16.787-70.049l2.093-3.457c1.164-1.92,2.331-3.845,3.485-5.77
						c12.438-20.683,30.955-44.651,52.151-67.509c26.22-28.31,55.235-53.743,83.899-73.54l49.397-34.127l98.904-68.303
						l93.428-64.538c20.239-13.979,52.568-25.573,82.362-29.538c40.185-5.348,70.501,3.557,85.364,25.072
						c14.85,21.5,12.435,52.992-6.798,88.676c-14.263,26.464-36.555,52.592-56.791,66.565L704.718,667.075
						c-28.774,19.878-63.011,38.085-99.008,52.65l0.002-0.001c-28.524,11.544-57.151,20.27-80.606,24.569l-4.371,0.807
						c-2.024,0.374-4.043,0.748-6.045,1.114C501.064,748.723,487.787,751.166,476.007,751.166z M946.638,366.262
						c-4.558,0-9.769,0.33-15.647,1.112c-22.138,2.946-47.392,11.767-61.413,21.451l-93.429,64.539l-98.902,68.302l-49.396,34.127
						c-25.823,17.834-52.093,40.889-75.974,66.673c-19.027,20.519-35.435,41.682-46.21,59.6c-1.18,1.965-2.382,3.95-3.582,5.93
						l-2.052,3.39c-1.354,2.243-3.496,5.791-5.75,9.682c4.692-0.767,9.033-1.565,11.743-2.064c1.996-0.366,3.987-0.734,5.983-1.103
						l4.429-0.817c20.365-3.733,45.67-11.493,71.268-21.853c0.001,0,0.001,0,0.002-0.001c32.781-13.264,63.809-29.74,89.73-47.648
						l241.721-166.971c14.022-9.683,31.216-30.177,41.815-49.843c11.57-21.466,12.003-35.082,9.558-38.622
						C968.673,369.459,960.828,366.262,946.638,366.262z"></path>
          </g>
          <g>
            <path fill="#43576A" d="M531.609,848.398c-4.072,0-8.122-1.036-11.751-3.073c-6.045-3.395-10.328-9.238-11.744-16.025
						l-21.24-101.79c-2.708-12.975,5.616-25.689,18.592-28.396c12.978-2.705,25.689,5.617,28.396,18.592l15.62,74.858l14.373-5.114
						l8.965-92.292c1.282-13.192,13.016-22.843,26.208-21.567c13.193,1.282,22.849,13.016,21.567,26.208l-10.44,107.47
						c-0.9,9.263-7.074,17.171-15.842,20.291l-54.66,19.45C537.042,847.938,534.321,848.398,531.609,848.398z"></path>
          </g>
          <g>
            <path fill="#43576A" d="M479.465,702.981c-4.416,0-8.88-1.216-12.879-3.766l-88.56-56.46
						c-5.846-3.727-9.795-9.8-10.83-16.656c-1.035-6.855,0.946-13.823,5.432-19.109l38.11-44.91
						c6.022-7.096,15.605-10.07,24.583-7.634l105.23,28.55c12.792,3.471,20.349,16.654,16.878,29.447
						c-3.471,12.792-16.658,20.349-29.447,16.878l-90.513-24.557l-10.443,12.307l65.362,41.67
						c11.177,7.125,14.461,21.962,7.335,33.139C495.149,699.057,487.39,702.981,479.465,702.981z"></path>
          </g>
          <g>
            <path fill="#43576A" d="M663.615,525.918c-6.521,0-13.017-2.641-17.753-7.842l-172.43-189.38
						c-4.663-5.121-6.886-12.005-6.098-18.886c0.787-6.88,4.508-13.085,10.207-17.021l39.33-27.16
						c7.95-5.491,18.417-5.678,26.56-0.476l232,148.24c11.169,7.137,14.438,21.977,7.302,33.146
						c-7.138,11.17-21.978,14.438-33.146,7.302L531.023,314.188l-3.613,2.495L681.354,485.76c8.924,9.801,8.213,24.98-1.588,33.904
						C675.166,523.852,669.381,525.918,663.615,525.918z"></path>
          </g>
          <g>
            <path fill="#43576A" d="M856.557,865.507c-1.968,0-3.946-0.242-5.891-0.734c-6.713-1.7-12.365-6.217-15.503-12.39
						L719.084,624.085c-6.007-11.815-1.299-26.263,10.516-32.271c11.815-6.008,26.264-1.299,32.271,10.516L865.51,806.155
						l3.605-2.49l-53.237-253.84c-2.721-12.973,5.59-25.695,18.562-28.416c12.971-2.722,25.695,5.589,28.416,18.562l56.511,269.451
						c1.983,9.457-1.898,19.181-9.849,24.673l-39.32,27.16C866.15,864.05,861.385,865.507,856.557,865.507z"></path>
          </g>
          <g>
            <path fill="#43576A" d="M1012.098,1593.948C1012.097,1593.948,1012.098,1593.948,1012.098,1593.948
						c-66.073-0.003-130.189-12.931-190.569-38.423c-58.309-24.619-110.693-59.862-155.698-104.753
						c-45-44.885-80.376-97.172-105.145-155.409c-25.616-60.229-38.708-124.217-38.917-190.178c-0.01-0.533-0.011-1.064-0.011-1.598
						c0-0.462,0.002-0.913,0.011-1.37c0.236-88.205,24.168-174.628,69.214-249.953c43.777-73.201,106.161-134.046,180.408-175.957
						c11.543-6.516,26.183-2.439,32.697,9.102c6.516,11.543,2.44,26.182-9.102,32.698
						c-138.572,78.221-224.871,225.539-225.218,384.462c0,0.21-0.004,0.42-0.01,0.63l0,0.388c0,0.254-0.002,0.508,0.004,0.762
						c0.004,0.164,0.006,0.329,0.006,0.493c0.662,243.216,199.091,441.096,442.331,441.105c13.255,0.001,24,10.746,23.999,24.001
						C1036.097,1583.203,1025.352,1593.948,1012.098,1593.948z"></path>
          </g>
          <g>
            <path fill="#43576A" d="M1012.108,1593.948c-13.255,0-24-10.745-24-24s10.745-24,24-24
						c243.912,0,442.35-198.442,442.35-442.36c0-243.913-198.438-442.35-442.35-442.35c-48.164,0-95.495,7.686-140.688,22.844
						c-12.567,4.215-26.171-2.555-30.386-15.122c-4.215-12.567,2.555-26.171,15.122-30.386
						c50.122-16.812,102.588-25.336,155.942-25.336c66.196,0,130.416,12.968,190.884,38.544
						c58.394,24.698,110.831,60.05,155.856,105.076c45.024,45.025,80.377,97.462,105.075,155.856
						c25.576,60.468,38.544,124.688,38.544,190.875s-12.968,130.406-38.544,190.876c-24.698,58.395-60.05,110.833-105.075,155.859
						s-97.463,80.38-155.855,105.079C1142.514,1580.979,1078.294,1593.948,1012.108,1593.948z"></path>
          </g>
          <g>
            <path fill="#43576A" d="M1318.578,531.892c-3.703,0-7.46-0.859-10.979-2.673
						c-34.878-17.982-71.543-32.809-108.976-44.068c-12.693-3.818-19.888-17.203-16.069-29.896
						c3.817-12.692,17.199-19.888,29.896-16.07c40.244,12.105,79.658,28.043,117.146,47.371
						c11.781,6.074,16.408,20.548,10.334,32.33C1335.669,527.148,1327.276,531.892,1318.578,531.892z"></path>
          </g>
          <g>
            <path fill="#F79009" d="M1678.407,1196.66c-0.819,0-1.646-0.042-2.479-0.127c-13.186-1.354-22.778-13.139-21.426-26.324
						c2.253-21.958,3.396-44.372,3.396-66.621c0-25.983-1.561-52.123-4.638-77.692c-0.114-0.952-0.172-1.909-0.172-2.868
						c0-13.255,10.745-24.005,24-24.005c12.417,0,22.631,9.425,23.873,21.513c3.275,27.346,4.937,55.287,4.937,83.052
						c0,23.879-1.227,47.941-3.646,71.52C1700.985,1187.461,1690.56,1196.659,1678.407,1196.66z"></path>
          </g>
          <g>
            <path fill="#F79009" d="M1434.382,1647.529c-6.978,0-13.894-3.026-18.638-8.862
						c-8.361-10.285-6.801-25.401,3.484-33.762c37.335-30.35,71.368-64.97,101.153-102.899c8.187-10.425,23.274-12.24,33.698-4.054
						c10.425,8.187,12.239,23.273,4.054,33.698c-31.983,40.729-68.531,77.907-108.628,110.501
						C1445.057,1645.768,1439.702,1647.529,1434.382,1647.529z"></path>
          </g>
          <g>
            <path fill="#F79009" d="M1012.108,1797.378c-23.875,0-47.937-1.227-71.519-3.645
						c-13.186-1.353-22.778-13.138-21.426-26.323c1.353-13.187,13.133-22.77,26.324-21.427c21.961,2.253,44.375,3.395,66.621,3.395
						c25.976,0,52.121-1.558,77.71-4.629c13.172-1.566,25.11,7.808,26.689,20.969c1.579,13.16-7.809,25.109-20.969,26.689
						C1068.058,1795.705,1039.988,1797.378,1012.108,1797.378z"></path>
          </g>
          <g>
            <path fill="#F79009" d="M598.862,1654.739c-5.184,0-10.404-1.671-14.798-5.119
						c-40.676-31.912-77.857-68.466-110.511-108.646c-8.359-10.287-6.798-25.402,3.489-33.762
						c10.285-8.359,25.402-6.798,33.761,3.488c30.403,37.411,65.021,71.444,102.889,101.155c10.429,8.181,12.25,23.268,4.068,33.696
						C613.026,1651.587,605.979,1654.739,598.862,1654.739z"></path>
          </g>
          <g>
            <path fill="#F79009" d="M347.098,1208.16c-11.973,0-22.33-8.947-23.797-21.133c-3.306-27.454-4.982-55.527-4.982-83.439
						c0-23.882,1.227-47.944,3.646-71.52c1.353-13.186,13.135-22.78,26.324-21.425c13.186,1.353,22.778,13.139,21.425,26.324
						c-2.252,21.955-3.395,44.369-3.395,66.621c0,26.001,1.561,52.144,4.638,77.701c1.584,13.16-7.799,25.112-20.959,26.697
						C349.023,1208.103,348.055,1208.16,347.098,1208.16z"></path>
          </g>
          <g>
            <path fill="#43576A" d="M370.687,934.164c-2.292,0-4.621-0.331-6.928-1.025c-12.692-3.821-19.884-17.208-16.062-29.899
						c12.134-40.307,28.076-79.72,47.382-117.144c6.077-11.78,20.551-16.402,32.332-10.326c11.78,6.077,16.403,20.552,10.326,32.332
						c-17.96,34.815-32.79,71.479-44.078,108.975C390.532,927.461,381.001,934.164,370.687,934.164z"></path>
          </g>
          <g>
            <path fill="#43576A" d="M421.829,1444.333c-8.55,0-16.825-4.58-21.158-12.638
						c-19.951-37.098-36.571-76.215-49.399-116.267c-4.043-12.623,2.913-26.134,15.536-30.177
						c12.623-4.042,26.133,2.912,30.177,15.536c11.934,37.261,27.397,73.655,45.961,108.173c6.278,11.674,1.904,26.227-9.77,32.504
						C429.559,1443.41,425.666,1444.333,421.829,1444.333z"></path>
          </g>
          <g>
            <path fill="#43576A" d="M818.686,1769.034c-2.293,0-4.624-0.33-6.933-1.026
						c-40.305-12.145-79.714-28.085-117.134-47.379c-11.781-6.074-16.407-20.549-10.333-32.329
						c6.074-11.781,20.548-16.41,32.33-10.333c34.816,17.951,71.485,32.782,108.985,44.082c12.691,3.824,19.88,17.212,16.056,29.903
						C838.529,1762.335,828.998,1769.034,818.686,1769.034z"></path>
          </g>
          <g>
            <path fill="#43576A" d="M1216.621,1765.585c-10.153,0-19.583-6.494-22.849-16.681
						c-4.046-12.622,2.906-26.135,15.528-30.181c37.255-11.941,73.652-27.41,108.182-45.975c11.672-6.274,26.227-1.901,32.504,9.773
						c6.276,11.675,1.9,26.227-9.773,32.504c-37.104,19.949-76.221,36.572-116.26,49.406
						C1221.518,1765.213,1219.049,1765.585,1216.621,1765.585z"></path>
          </g>
          <g>
            <path fill="#43576A" d="M1607.788,1434.083c-3.705,0-7.464-0.86-10.983-2.676c-11.78-6.077-16.403-20.553-10.326-32.332
						c17.965-34.823,32.794-71.484,44.077-108.965c3.821-12.692,17.208-19.884,29.899-16.063
						c12.692,3.821,19.884,17.207,16.063,29.899c-12.13,40.293-28.071,79.702-47.382,117.135
						C1624.875,1429.341,1616.484,1434.083,1607.788,1434.083z"></path>
          </g>
          <g>
            <path fill="#43576A" d="M1650.082,923.074c-10.154,0-19.587-6.496-22.851-16.686
						c-11.928-37.241-27.392-73.636-45.963-108.175c-6.276-11.674-1.901-26.227,9.773-32.503
						c11.674-6.279,26.227-1.901,32.504,9.773c19.957,37.118,36.577,76.235,49.398,116.264c4.043,12.623-2.912,26.134-15.535,30.177
						C1654.975,922.703,1652.508,923.074,1650.082,923.074z"></path>
          </g>
          <g>
            <path fill="#F79009" d="M1532.052,705.329c-6.977,0-13.895-3.027-18.638-8.862
						c-30.371-37.362-64.99-71.395-102.896-101.151c-10.426-8.185-12.243-23.271-4.059-33.698
						c8.186-10.425,23.271-12.243,33.697-4.058c40.707,31.956,77.886,68.504,110.503,108.629
						c8.361,10.286,6.801,25.401-3.484,33.762C1542.726,703.568,1537.371,705.329,1532.052,705.329z"></path>
          </g>
          <g>
            <path fill="#43576A" d="M1012.108,1593.948c-50.217-0.006-97.829-29.425-137.7-85.075
						c-36.16-50.471-64.748-120.768-82.673-203.29c-13.793-63.52-20.787-131.479-20.787-201.995
						c0-70.473,6.997-138.432,20.796-201.992c7.451-34.295,16.848-66.837,27.931-96.723c4.608-12.428,18.42-18.767,30.847-14.158
						c12.428,4.609,18.767,18.419,14.158,30.847c-10.3,27.775-19.058,58.129-26.029,90.221
						c-13.074,60.217-19.703,124.75-19.703,191.805c0,67.097,6.626,131.63,19.694,191.808
						c16.546,76.176,42.407,140.329,74.786,185.522c21.253,29.663,55.624,65.025,98.674,65.03c43.057,0,77.429-35.36,98.683-65.023
						c32.382-45.194,58.244-109.35,74.791-185.53c13.067-60.177,19.693-124.71,19.693-191.807s-6.626-131.63-19.693-191.807
						c-16.547-76.175-42.409-140.328-74.791-185.521c-21.254-29.663-55.626-65.022-98.676-65.022c-13.255,0-24-10.745-24-24
						s10.745-24,24-24c50.205,0,97.819,29.415,137.693,85.065c36.164,50.471,64.754,120.768,82.68,203.29
						c13.793,63.519,20.787,131.479,20.787,201.995s-6.994,138.476-20.787,201.993c-17.925,82.528-46.516,152.827-82.679,203.3
						C1109.927,1564.532,1062.314,1593.948,1012.108,1593.948z"></path>
          </g>
          <g>
            <path fill="#43576A" d="M1012.098,1593.948c-13.255,0-24-10.745-24-24v-932.71c0-13.255,10.745-24,24-24
						s24,10.745,24,24v932.71C1036.098,1583.203,1025.353,1593.948,1012.098,1593.948z"></path>
          </g>
          <g>
            <path fill="#43576A" d="M1012.108,1344.748c-70.52,0-138.485-7.001-202.017-20.807
						c-176.432-38.309-286.866-121.986-288.317-218.427c-0.021-0.643-0.026-1.284-0.026-1.927c0-0.577,0.006-1.142,0.026-1.712
						c1.273-96.535,111.698-180.284,288.331-218.642c63.548-13.799,131.508-20.796,201.994-20.796
						c70.508,0,138.475,6.997,202.022,20.796c82.52,17.926,152.811,46.514,203.277,82.673c55.646,39.87,85.06,87.479,85.06,137.68
						c0,50.205-29.413,97.817-85.06,137.688c-50.467,36.16-120.759,64.746-203.276,82.666h0.003
						C1150.592,1337.747,1082.624,1344.748,1012.108,1344.748z M569.749,1103.954c0.009,0.216,0.014,0.433,0.017,0.649
						c0.544,42.844,36.011,77.012,65.668,98.131c45.156,32.156,109.075,57.849,184.846,74.301
						c60.193,13.081,124.729,19.713,191.818,19.713c67.105,0,131.644-6.632,191.833-19.712c0.001-0.001,0.002-0.001,0.003-0.001
						c76.172-16.542,140.319-42.4,185.508-74.777c29.66-21.252,65.016-55.621,65.016-98.67c0-43.043-35.355-77.411-65.016-98.662
						c-45.188-32.378-109.337-58.238-185.509-74.785c-60.205-13.074-124.745-19.703-191.825-19.703
						c-67.077,0-131.61,6.629-191.817,19.703c-75.853,16.473-139.82,42.198-184.984,74.396
						c-29.659,21.144-65.105,55.348-65.541,98.224c-0.002,0.244-0.008,0.488-0.019,0.732L569.749,1103.954z M569.733,1103.815
						c0,0.011-0.001,0.022-0.002,0.033C569.731,1103.838,569.732,1103.826,569.733,1103.815z M569.734,1103.788
						c0,0.007-0.001,0.014-0.001,0.021C569.733,1103.801,569.734,1103.795,569.734,1103.788z"></path>
          </g>
          <g>
            <path fill="#43576A" d="M1478.468,1127.588h-932.71c-13.255,0-24.005-10.745-24.005-24s10.74-24,23.995-24h932.709
						c13.255,0,24.005,10.745,24.005,24S1491.723,1127.588,1478.468,1127.588z"></path>
          </g>
        </g>
      </g>
    </g>
  </g>
</svg>
