<svg xmlns="http://www.w3.org/2000/svg" width="40" height="40" viewBox="0 0 24 24" id="star">
  <polygon fill="#43576A" points="22 2 22 18 0 18 0 0 8 0 9 2 22 2"></polygon>
  <polygon fill="#3A89D8" points="0 18 2 6 24 6 22 18 0 18"></polygon>
  <circle fill="#F79009" cx="12" cy="17" r="7"></circle>
  <polygon fill="#3A89D8" points="8 0 9 2 15 2 14 0 8 0"></polygon>
  <polygon fill="#FFFFFF" points="12 19.26 14.45 20.55 13.98 17.82 15.97 15.88 13.23 15.48 12 13 10.77 15.48 8.03 15.88 10.02 17.82 9.55 20.55 12 19.26"></polygon>
</svg>
