<svg xmlns="http://www.w3.org/2000/svg" width="40" height="40" viewBox="0 0 24 24" id="ice-bucket">
  <path fill="#F79009" d="M17.67,20.74H7.33a1,1,0,0,1-1-.82L4.5,9.74h16L18.65,19.92A1,1,0,0,1,17.67,20.74Z"></path>
  <path fill="#FFFFFF" d="M9.35,19.92,7.5,9.75h-3L6.35,19.92a1,1,0,0,0,1,.82h3A1,1,0,0,1,9.35,19.92Z"></path>
  <rect width="3" height="3" x=".5" y="17.74" fill="#3A89D8"></rect>
  <rect width="3" height="3" x="11.5" y="6.74" fill="#3A89D8"></rect>
  <polyline fill="#3A89D8" points="14.05 6.75 13.01 4.53 15.72 3.25 16.88 5.72"></polyline>
  <polyline fill="#3A89D8" points="11.84 6.75 12.88 4.53 10.17 3.25 9.01 5.72"></polyline>
  <polyline fill="#3A89D8" points="7.5 8.43 7.5 9.74 4.5 9.74 4.5 6.75 7.5 6.75 7.5 7.07"></polyline>
  <polyline fill="#3A89D8" points="18.42 6.75 20.5 6.75 20.5 9.74 17.5 9.74 17.5 8.66"></polyline>
  <rect width="3" height="3" x="20.5" y="17.74" fill="#3A89D8"></rect>
  <rect width="3" height="3" x="7.5" y="5.74" fill="#3A89D8" transform="rotate(13.46 9.016 7.228)"></rect>
  <rect width="3" height="3" x="15.5" y="5.74" fill="#3A89D8" transform="rotate(166.54 17 7.248)"></rect>
  <path fill="#43576A" d="M3.5,17.25H.5a.5.5,0,0,0-.5.5v3a.5.5,0,0,0,.5.5h3a.5.5,0,0,0,.5-.5v-3A.5.5,0,0,0,3.5,17.25Zm-.5,3H1v-2H3Zm20.5-3h-3a.5.5,0,0,0-.5.5v3a.5.5,0,0,0,.5.5h3a.5.5,0,0,0,.5-.5v-3A.5.5,0,0,0,23.5,17.25Zm-.5,3H21v-2h2ZM21,9.79a.47.47,0,0,0,0,0v-3a.5.5,0,0,0-.5-.5H18.82l-.22-.92A.5.5,0,0,0,18,5l-.83.2L16.17,3a.5.5,0,0,0-.67-.24L12.94,4,10.38,2.8A.5.5,0,0,0,9.72,3l-1,2.08L8,5a.5.5,0,0,0-.6.37l-.22.92H4.5a.5.5,0,0,0-.5.5v3a.47.47,0,0,0,0,0s0,0,0,0L5.86,20a1.5,1.5,0,0,0,1.48,1.23H17.67A1.5,1.5,0,0,0,19.14,20L21,9.83S21,9.81,21,9.79ZM17.74,6,18.21,8l-1.95.47L15.79,6.5ZM15.48,3.92l.69,1.47-1.09.26a.5.5,0,0,0-.37.6v0a.49.49,0,0,0-.22-.05h-.13l-.69-1.48Zm0,5.33H15V7.48l.4,1.69A.48.48,0,0,0,15.44,9.25ZM14,7.25v2H12v-2ZM12.94,5.56l.32.68h-.64ZM10.41,3.92l1.8.85-.69,1.48h0a.49.49,0,0,0-.22.05v0a.5.5,0,0,0-.37-.6L9.73,5.36ZM11,7.48V9.25h-.44a.48.48,0,0,0,0-.08ZM8.26,6l.52.12h0a.49.49,0,0,0,.22,0l1.19.28L9.74,8.45,7.79,8Zm.51,3.21H8V9.06ZM5,7.25H6.94l-.24,1a.5.5,0,0,0,.06.38A.49.49,0,0,0,7,8.81v.44H5ZM18.16,19.83a.5.5,0,0,1-.49.41H7.33a.5.5,0,0,1-.49-.41L5.46,12.25H19.54Zm1.56-8.59H5.28l-.18-1H19.9Zm.28-2H18V9.06l.92-.22a.5.5,0,0,0,.37-.6l-.24-1H20Z"></path>
</svg>
