<svg xmlns="http://www.w3.org/2000/svg" width="40" height="40" viewBox="0 -10 40 40" id="international">
  <path fill="#E05A4F" d="m13.396 12.678-1.294-.961-1.921-.193-.286.466-.388-.129-.193-.719-.575-.039.24-.683-.481-.047-.479.385-.335-.482.288-.815 1.297-.193.238.672.337-.047v-.625l.912-1.248 1.152-.626 1.488-.669L12.34 4.37l-.481.287-.381-1.054-.916.047-.238 1.872-.336.048-1.393-1.487.289-.771 1.44-.287V1.199l-3.601.387L4.852.48l-.867.817L1.632 0 .336.768l.48.721H.287l-.142.528.719.095-.719.577.237.817.625.144L0 4.467l1.584-.769.864-.481 1.394.866 1.104 1.872v1.681l.671 1.248 1.106 1.728 1.344.481.577.288.67.864.471-.073-.516.843.429 1.727.913.816-1.104 4.465.387.961 1.101.289-.671-.721.912-1.727 1.968-1.682.146-.768.961-.146.96-1.967-1.68-.817zM36.335 13.016l-.104.816-.69-.252.127-.44-.756-.062-.98.911-1.038.378.252 1.412-.095.283.379.219 1.542-.381.597.347.284-.157.188.571.785.221.569-.347.315-1.696-.851-.85zM32.516 12.228l.819.156.378-1.163-.222-.19-1.1.693zM37.269 13.077l-.284-.598-1.291-.628-.661.062.85.881.487.033.205-.19zM36.576 4.769h-.22l-.032 1.132-.566 1.197-.724.535-.031.471 1.321-.786.063-.819.44-.408-.344-.282.187-.663zM39.975 16.193l.094.88-.974.913.629.064.564-.851.442-.596-.283-.032zM18.939 2.949v.917l.637-.279.18-.282-.689-1.326-.407.283.025.354-.383.462-.026.482h.46zM24.696 13.746l-.026 1.021.41.177.407-1.223-.102-.509z"></path>
  <path fill="#F79009" d="m25.208 7.072.125-.484-.279-.713.791-.433v.381l-.308.128.257.382.124.789-.71-.05zm-.919-.433-.559-.153-.766.126-.178-.329.408-.713 1.324.688-.229.381zm15.403-3.758 1.134-.63-.315-.881L32.162.191s-5.059.537-7.849.83L21.895.577l-.968.533-.383.943-.46.356-.024.79.254.152.536-.305.255.815.458-.179.308-.816-.308-.33.281-.61.331-.409.2.031-.188.479-.215.153.079.194-.015.032.026.003.188.457.536-.151.184.217-.592.191.129.483-.385-.129-.279.715-.993-.025-.179-.509-.229.306.077.331-.357.027-.433.584-.79.256.205.433.329.534-1.043-.075.051 1.019.815.127.535-.841.765-.384.331.384.457.612.334-.384-.638-.432-.027-.408.306.153.511.407-.026.407.383.486.178-.612.204.103.279.484.864.144-.142.47-.324.195-1.25-.32-.315.439-.817-.534-.127-.533-2.013.345-1.039 1.258-.19 1.7 1.072 1.039 1.92-.126.566 1.762-.221 1.007.911 2.203 1.04-.188 1.038-1.951.566-.441-.156-1.352 1.007-.913.314-1.103-1.007.473-1.029-2.355.21-.037 1.01 1.983 1.95-1.164-.663-.503-.502.252-.315-.756.221-.125.44.375 1.512.284.628.756.566 1.416.441-.438v-.539l1.228-.85.441.943.362-.091.077.942.377.69-.816-.408.597.85.662.629 1.573.283-.85-.345-.631-.222-.22-1.007-.505-.567.019-.569.58.602.566-.473-.533-.786.25-.41 1.166-.062.533-.977-.376-1.069.472-.501.347.472.127.597.408-.22-.156-.661.347-.503.566-.095.659-1.826-.565-.408.785-.756 1.04.064.85-.693.66-.095-1.069 1.291.031 1.133.819-1.007-.031-.725.848-.187zM14.509.932 13.8.738l-.877.936 1.127 2.934.533.132.042-.954.361-.222.021-.362.372-.699-.26-.529z"></path>
</svg>
