<svg xmlns="http://www.w3.org/2000/svg" width="40" height="40" fill="none" viewBox="0 0 24 24" id="love-comment">
  <path fill="#3A89D8" fill-rule="evenodd" d="M1.25 6C1.25 3.37665 3.37665 1.25 6 1.25H18C20.6234 1.25 22.75 3.37665 22.75 6V14C22.75 16.6234 20.6234 18.75 18 18.75H12.2271L6.41603 22.624C6.18588 22.7775 5.88997 22.7918 5.64611 22.6613C5.40224 22.5307 5.25 22.2766 5.25 22L5.25 18.6911C2.98301 18.3315 1.25 16.3682 1.25 14V6ZM12 6.68087C10.9141 5.97829 9.47568 6.13494 8.54696 7.1508C7.48435 8.31313 7.48435 10.1722 8.54696 11.3345L11.4465 14.5061C11.5885 14.6615 11.7894 14.75 12 14.75C12.2106 14.75 12.4115 14.6615 12.5535 14.5061L15.453 11.3345C16.5157 10.1722 16.5157 8.31313 15.453 7.1508C14.5243 6.13494 13.0859 5.97829 12 6.68087Z" clip-rule="evenodd"></path>
</svg>
