<svg xmlns="http://www.w3.org/2000/svg" width="40" height="40" viewBox="0 0 96 96" id="mountain">
  <path fill="#15A3AD" d="M95,59.7v2.72H73.54a30.4,30.4,0,0,0-8.05,1.09l-7.73,2.13a30,30,0,0,1-8,1.09H38.6a40.68,40.68,0,0,0-13,2.13L20.2,70.69A39.11,39.11,0,0,0,7.78,68.11L1,67.84V59.7l.07-.13,18.68-33.4h0L32.12,24.3,41,8.83,60,33.4l12,.84,12,19.91.45.75,5,2.29Z"></path>
  <path fill="#3A89D8" d="M84,57.19H76.48a30.4,30.4,0,0,0-8,1.09L60.7,60.41a30,30,0,0,1-8.05,1.09H41.54a40.68,40.68,0,0,0-13,2.13l-5.42,1.83a39.11,39.11,0,0,0-12.42-2.58L7,62.73a3.18,3.18,0,0,1-3.06-3.18V54.47L4,54.34,19.77,26.17l9.82-1.49,2.53-.38L35.76,18,41,8.83,58.36,31.28,60,33.4l3.91.27,8.09.57,12,19.91.45.75A1.2,1.2,0,0,1,84,57.19Z"></path>
  <polygon fill="#15A3AD" points="10.84 68.64 26.89 46.55 35.13 46.55 44.6 37.99 60.06 60.68 72.3 68.64 10.84 68.64"></polygon>
  <path fill="#FFFFFF" d="M50.45 50.38l-4.87-6.26a.73.73 0 00-1.2.08l-3.75 6.25a.73.73 0 00.62 1.1h8.63A.72.72 0 0050.45 50.38zM42 54.38l3.42 2.72a.71.71 0 00.45.16h8.44a.73.73 0 00.57-1.18l-2.11-2.71a.72.72 0 00-.58-.28H42.46A.72.72 0 0042 54.38z"></path>
  <path fill="#718395" d="M95,62.42V87.17H19.25V71l6.37-2.15a40.68,40.68,0,0,1,13-2.13H49.71a30,30,0,0,0,8-1.09l7.73-2.13a30.4,30.4,0,0,1,8.05-1.09Z"></path>
  <path fill="#3A89D8" d="M48,87.17H1V67.84l6.78.27a38.91,38.91,0,0,1,14.73,3.56l8.91,4.13A60.46,60.46,0,0,1,48,87.17Z"></path>
</svg>
