<svg xmlns="http://www.w3.org/2000/svg" width="40" height="40" fill="none" viewBox="0 0 32 32" id="reload">
  <g>
    <path fill="#F79009" d="M27.0156 5.001L25.2432 6.7725A12.264 12.264 0 0 0 3.2783 13.7939a1.0147 1.0147 0 0 0 .999 1.0391H8.7915a1.0006 1.0006 0 0 0 .998-.9365 5.7553 5.7553 0 0 1 10.7671-2.4355l-1.666 1.665a1.0109 1.0109 0 0 0 .707 1.707h8.125a.9994.9994 0 0 0 1-1V5.708A1.011 1.011 0 0 0 27.0156 5.001zM27.7227 17.167H23.209a1.0009 1.0009 0 0 0-.998.9365 5.7553 5.7553 0 0 1-10.7671 2.4355l1.6655-1.665a1.011 1.011 0 0 0-.707-1.707H4.2773a1 1 0 0 0-1 1v8.125a1.011 1.011 0 0 0 1.707.707l1.772-1.7715a12.2643 12.2643 0 0 0 21.9653-7.0215A1.0147 1.0147 0 0 0 27.7227 17.167z"></path>
    <path fill="#3A89D8" d="M27.7227,14.833h-8.125a1.0109,1.0109,0,0,1-.707-1.707l1.666-1.665A5.7553,5.7553,0,0,0,9.79,13.8965a1.0006,1.0006,0,0,1-.998.9365H4.2773a1.0147,1.0147,0,0,1-.999-1.0391A12.264,12.264,0,0,1,25.2432,6.7725L27.0156,5.001a1.011,1.011,0,0,1,1.707.707v8.125A.9994.9994,0,0,1,27.7227,14.833Zm-5.71-2h4.71V8.1221l-.9111.9111a1.0149,1.0149,0,0,1-1.5566-.1787A10.2638,10.2638,0,0,0,5.3687,12.833h2.542a7.7547,7.7547,0,0,1,14.7778-1.55C22.9646,11.9484,22.4342,12.4115,22.0127,12.833ZM16.4648,30a12.1814,12.1814,0,0,1-9.7085-4.7725L4.9844,26.999a1.011,1.011,0,0,1-1.707-.707V18.167a1,1,0,0,1,1-1h8.125a1.011,1.011,0,0,1,.707,1.707l-1.6655,1.665a5.7553,5.7553,0,0,0,10.7671-2.4355,1.0009,1.0009,0,0,1,.998-.9365h4.5137a1.0147,1.0147,0,0,1,.999,1.0391A12.2326,12.2326,0,0,1,16.4648,30ZM6.8955,22.6738a.8969.8969,0,0,1,.1143.0068.9972.9972,0,0,1,.7349.4648A10.2638,10.2638,0,0,0,26.6309,19.167H24.09A7.7544,7.7544,0,0,1,9.312,20.7158a1,1,0,0,1,.2168-1.09l.459-.459h-4.71v4.7109l.9111-.9111A1,1,0,0,1,6.8955,22.6738Z"></path>
  </g>
</svg>
