<svg xmlns="http://www.w3.org/2000/svg" width="40" height="40" viewBox="0 0 64 64" id="surfing">
  <path fill="#F79009" d="m32,53.24c-.86,0-1.71-.21-2.47-.62-.45-.24-.87-.55-1.24-.92-1.06-1.06-2.85-1.23-4.07-.42-.18.11-.33.23-.48.38-.26.24-.62.33-.96.24-.34-.1-.6-.36-.69-.7-.74-2.73-1.26-5.55-1.56-8.37,0-.01,0-.03,0-.04-.21-1.88-.31-3.83-.31-5.79,0-.18,0-.37.01-.55.02-3.37.38-6.85,1.08-10.28.38-1.91.88-3.87,1.51-5.83,1-3.15,2.3-6.24,3.88-9.18.52-.96,1.29-1.76,2.22-2.32.01,0,.13-.08.14-.08.17-.09.35-.18.54-.26,1.37-.6,2.93-.66,4.26-.2.17.05.38.13.57.22.21.08.45.2.67.33.92.55,1.69,1.35,2.21,2.31,2.91,5.43,4.87,11.26,5.82,17.35.4,2.54.62,5.16.65,7.78,0,.21.01.46.01.7,0,3.08-.26,6.15-.77,9.13-.29,1.71-.66,3.42-1.1,5.07-.09.34-.36.61-.7.7-.34.1-.71,0-.96-.24-1.22-1.18-3.33-1.16-4.54.05-.37.37-.79.68-1.24.92-.76.4-1.61.62-2.47.62Zm-6-4.48c1.4,0,2.72.54,3.71,1.53.23.23.48.42.76.56.95.5,2.12.5,3.06,0,.28-.15.54-.34.76-.56.99-.99,2.31-1.53,3.71-1.53.82,0,1.61.19,2.32.54.27-1.15.51-2.33.71-3.5.5-2.88.75-5.83.75-8.79,0-.22,0-.43,0-.65-.03-2.56-.24-5.08-.63-7.53-.92-5.87-2.8-11.49-5.6-16.71-.35-.64-.86-1.17-1.48-1.54-.14-.09-.28-.15-.43-.21-.16-.08-.28-.12-.4-.15-.92-.32-1.92-.26-2.83.13-.13.06-.27.13-.4.19-.68.41-1.19.94-1.54,1.59-1.52,2.83-2.77,5.8-3.74,8.83-.6,1.89-1.09,3.77-1.45,5.61-.67,3.31-1.02,6.66-1.04,9.95-.01.2,0,.34,0,.48,0,1.9.1,3.79.3,5.61,0,.04,0,.07,0,.11.23,2.17.62,4.39,1.14,6.58.71-.35,1.5-.54,2.33-.54Z"></path>
  <path fill="#F79009" d="M34 29.77c-.24 0-.48-.09-.67-.26-.73-.66-1.93-.66-2.66 0-.29.27-.71.33-1.08.17-.36-.16-.59-.52-.59-.91V9.42c0-.4.24-.76.6-.92 1.37-.6 2.93-.66 4.26-.2.17.05.38.13.57.22.35.16.58.52.58.91v19.34c0 .4-.23.75-.59.91-.13.06-.27.09-.41.09zm-3-19.64v17c.65-.17 1.35-.17 2 0V10.13c-.65-.18-1.34-.18-2 0zM32 53.24c-.86 0-1.71-.21-2.47-.62-.33-.17-.53-.51-.53-.88v-12.51c0-.4.23-.75.59-.91.36-.16.78-.09 1.08.17.73.66 1.93.66 2.66 0 .29-.27.72-.33 1.08-.17.36.16.59.52.59.91v12.51c0 .37-.2.71-.53.88-.76.4-1.61.62-2.47.62zm-1-2.16c.65.21 1.35.21 2 0v-10.21c-.65.17-1.35.17-2 0v10.21z"></path>
  <path fill="#3A89D8" d="m56,55c-.26,0-.51-.1-.71-.29l-3-3c-1.26-1.26-3.32-1.26-4.59,0-.99.99-2.31,1.53-3.71,1.53s-2.6-.5-3.56-1.4c-.05-.04-.1-.08-.14-.13-1.31-1.27-3.38-1.21-4.59,0-.37.37-.79.68-1.24.92-1.52.81-3.42.81-4.94,0-.45-.24-.87-.55-1.24-.92-1.06-1.06-2.85-1.23-4.07-.42-.18.11-.33.23-.48.38-1.03,1.03-2.35,1.57-3.75,1.57s-2.72-.54-3.71-1.53c-1.22-1.22-3.36-1.22-4.59,0l-3,3c-.39.39-1.02.39-1.41,0s-.39-1.02,0-1.41l3-3c.99-.99,2.31-1.53,3.71-1.53s2.72.54,3.71,1.53c1.22,1.22,3.36,1.22,4.59,0,0,0,.07-.07.08-.08.24-.23.49-.43.76-.6.83-.56,1.83-.86,2.87-.86,1.4,0,2.72.54,3.71,1.53.23.23.48.42.76.56.95.5,2.12.5,3.06,0,.28-.15.54-.34.76-.56.99-.99,2.31-1.53,3.71-1.53s2.66.52,3.63,1.46l.07.07c1.37,1.29,3.39,1.2,4.59,0,2.04-2.04,5.37-2.04,7.41,0l3,3c.39.39.39,1.02,0,1.41-.2.2-.45.29-.71.29Z"></path>
  <path fill="#E05A4F" d="m32,41c-.99,0-1.94-.37-2.67-1.03-.84-.73-1.33-1.82-1.33-2.97v-6c0-1.15.49-2.24,1.34-2.98,1.44-1.3,3.86-1.31,5.33.01,0,0,.08.06.16.14.76.76,1.17,1.76,1.17,2.83v6c0,1.15-.49,2.24-1.34,2.98-.72.65-1.67,1.02-2.66,1.02Zm0-12c-.49,0-.96.18-1.33.51-.43.38-.67.91-.67,1.49v6c0,.57.24,1.11.66,1.48.76.69,1.94.67,2.67.01.43-.38.67-.91.67-1.49v-6c0-.53-.21-1.03-.59-1.41-.03-.02-.06-.05-.08-.08-.36-.33-.84-.51-1.33-.51Z"></path>
</svg>
