<svg xmlns="http://www.w3.org/2000/svg" width="40" height="40" fill="none" viewBox="0 0 1380 1379" id="goals">
  <path fill="#3A89D8" fill-rule="evenodd" d="M862.5 1282.04H164.414C110.508 1282.04 67.3828 1236.25 67.3828 1185.08V193.922C67.3828 142.748 110.508 96.9609 164.414 96.9609H940.664C994.57 96.9609 1037.7 142.748 1037.7 193.922V689.5C1037.7 702.967 1029.61 711.047 1016.13 711.047C679.219 1020.78 1150.9 829.555 881.367 1263.19C881.367 1273.96 873.281 1282.04 862.5 1282.04Z" clip-rule="evenodd"></path>
  <path fill="#43576A" fill-rule="evenodd" d="M194.062 404.004H88.9453C40.4297 404.004 0 363.604 0 315.123 0 274.723 29.6484 239.709 67.3828 231.629V274.723C51.2109 282.803 40.4297 298.963 40.4297 317.816 40.4297 342.057 61.9922 366.297 88.9453 366.297H194.062C207.539 366.297 215.625 374.377 215.625 385.15 215.625 395.924 207.539 404.004 194.062 404.004zM194.062 635.633H88.9453C40.4297 635.633 0 595.232 0 549.445 0 506.352 29.6484 471.338 67.3828 463.258V506.352C51.2109 514.432 40.4297 530.592 40.4297 549.445 40.4297 576.379 61.9922 597.926 88.9453 597.926H194.062C207.539 597.926 215.625 606.006 215.625 616.779 215.625 630.246 207.539 635.633 194.062 635.633zM194.062 869.953H88.9453C40.4297 869.953 0 829.553 0 783.766 0 740.672 29.6484 705.658 67.3828 697.578V740.672C51.2109 746.059 40.4297 764.912 40.4297 783.766 40.4297 810.699 61.9922 829.553 88.9453 829.553H194.062C207.539 829.553 215.625 840.326 215.625 851.1 215.625 861.873 207.539 869.953 194.062 869.953zM194.062 1104.28H88.9453C40.4297 1104.28 0 1063.88 0 1015.4 0 974.998 29.6484 939.984 67.3828 929.211V972.305C51.2109 980.385 40.4297 999.238 40.4297 1015.4 40.4297 1042.33 61.9922 1063.88 88.9453 1063.88H194.062C207.539 1063.88 215.625 1074.65 215.625 1085.43 215.625 1096.2 207.539 1104.28 194.062 1104.28z" clip-rule="evenodd"></path>
  <path fill="#FFFFFF" fill-rule="evenodd" d="M905.625 309.736H307.266C293.789 309.736 285.703 298.963 285.703 288.189 285.703 277.416 293.789 269.336 307.266 269.336H905.625C916.406 269.336 927.188 277.416 927.188 288.189 927.188 298.963 916.406 309.736 905.625 309.736zM905.625 468.643H307.266C293.789 468.643 285.703 460.562 285.703 449.789 285.703 436.322 293.789 428.242 307.266 428.242H905.625C916.406 428.242 927.188 436.322 927.188 449.789 927.188 460.562 916.406 468.643 905.625 468.643zM695.391 630.244H307.266C293.789 630.244 285.703 619.471 285.703 608.697 285.703 597.924 293.789 589.844 307.266 589.844H695.391C706.172 589.844 714.258 597.924 714.258 608.697 714.258 619.471 706.172 630.244 695.391 630.244z" clip-rule="evenodd"></path>
  <path fill="#E05A4F" fill-rule="evenodd" d="M1156.29 864.57L1161.68 875.344L1167.07 883.424L1161.68 886.117L1156.29 878.037V875.344L1150.9 867.264L1156.29 864.57Z" clip-rule="evenodd"></path>
  <path fill="#E05A4F" fill-rule="evenodd" d="M1183.24 891.502C1188.63 910.355 1188.63 931.902 1188.63 956.143C1188.63 1136.6 1043.09 1282.04 862.5 1282.04C681.914 1282.04 536.367 1136.6 536.367 956.143C536.367 775.688 681.914 630.246 862.5 630.246C1002.66 630.246 1126.64 719.127 1172.46 851.102C1172.46 853.795 1183.24 888.809 1183.24 891.502Z" clip-rule="evenodd"></path>
  <path fill="#3A89D8" fill-rule="evenodd" d="M1207.5 948.062C1202.11 948.062 1196.72 948.062 1194.02 942.676L1132.03 894.195C1123.95 888.809 1123.95 880.728 1126.64 872.648L1156.29 797.234C1158.98 791.848 1164.37 789.154 1169.77 786.461L1323.4 746.061C1328.79 743.367 1336.87 746.061 1342.27 751.447C1347.66 756.834 1350.35 762.221 1347.66 770.301L1328.79 829.555L1374.61 872.648C1380 875.342 1380 883.422 1380 891.502C1377.3 896.889 1371.91 902.275 1366.52 904.969L1212.89 948.062C1210.2 948.062 1207.5 948.062 1207.5 948.062Z" clip-rule="evenodd"></path>
  <path fill="#FFFFFF" fill-rule="evenodd" d="M862.5 1168.92C743.906 1168.92 649.57 1074.65 649.57 956.141C649.57 837.633 743.906 740.672 862.5 740.672C981.094 740.672 1078.12 837.633 1078.12 956.141C1078.12 1074.65 981.094 1168.92 862.5 1168.92Z" clip-rule="evenodd"></path>
  <path fill="#E05A4F" fill-rule="evenodd" d="M862.5 1055.8C808.594 1055.8 762.773 1010.01 762.773 956.143C762.773 899.582 808.594 856.488 862.5 856.488C919.102 856.488 962.227 899.582 962.227 956.143C962.227 1010.01 919.102 1055.8 862.5 1055.8Z" clip-rule="evenodd"></path>
  <path fill="#FFFFFF" fill-rule="evenodd" d="M862.5 974.995C854.414 974.995 846.328 969.608 843.633 961.528C840.938 950.755 846.328 939.981 857.109 937.288L1237.15 834.94C1247.93 832.247 1258.71 837.634 1261.41 848.407C1264.1 859.181 1258.71 869.954 1247.93 872.647L867.891 974.995C865.195 974.995 865.195 974.995 862.5 974.995Z" clip-rule="evenodd"></path>
</svg>
